<?xml version="1.0" encoding="UTF-8" standalone="no"?>
<!-- Created with Inkscape (http://www.inkscape.org/) -->

<svg
   xmlns:dc="http://purl.org/dc/elements/1.1/"
   xmlns:cc="http://creativecommons.org/ns#"
   xmlns:rdf="http://www.w3.org/1999/02/22-rdf-syntax-ns#"
   xmlns:svg="http://www.w3.org/2000/svg"
   xmlns="http://www.w3.org/2000/svg"
   xmlns:sodipodi="http://sodipodi.sourceforge.net/DTD/sodipodi-0.dtd"
   xmlns:inkscape="http://www.inkscape.org/namespaces/inkscape"
   width="744.09448819"
   height="1052.3622047"
   id="svg19387"
   version="1.1"
   inkscape:version="0.48.4 r9939"
   sodipodi:docname="s_metropolisHastings_twoTypesNonConvergence.svg">
  <defs
     id="defs19389">
    <marker
       inkscape:stockid="Arrow2Mend"
       orient="auto"
       refY="0"
       refX="0"
       id="Arrow2Mend"
       style="overflow:visible">
      <path
         inkscape:connector-curvature="0"
         id="path10539"
         style="fill-rule:evenodd;stroke-width:0.625;stroke-linejoin:round"
         d="M 8.7185878,4.0337352 -2.2072895,0.01601326 8.7185884,-4.0017078 c -1.7454984,2.3720609 -1.7354408,5.6174519 -6e-7,8.035443 z"
         transform="scale(-0.6,-0.6)" />
    </marker>
    <marker
       inkscape:stockid="Arrow2Mstart"
       orient="auto"
       refY="0"
       refX="0"
       id="Arrow2Mstart"
       style="overflow:visible">
      <path
         inkscape:connector-curvature="0"
         id="path10536"
         style="fill-rule:evenodd;stroke-width:0.625;stroke-linejoin:round"
         d="M 8.7185878,4.0337352 -2.2072895,0.01601326 8.7185884,-4.0017078 c -1.7454984,2.3720609 -1.7354408,5.6174519 -6e-7,8.035443 z"
         transform="scale(0.6,0.6)" />
    </marker>
    <marker
       inkscape:stockid="Arrow2Mend"
       orient="auto"
       refY="0"
       refX="0"
       id="marker14775"
       style="overflow:visible">
      <path
         inkscape:connector-curvature="0"
         id="path14777"
         style="fill-rule:evenodd;stroke-width:0.625;stroke-linejoin:round"
         d="M 8.7185878,4.0337352 -2.2072895,0.01601326 8.7185884,-4.0017078 c -1.7454984,2.3720609 -1.7354408,5.6174519 -6e-7,8.035443 z"
         transform="scale(-0.6,-0.6)" />
    </marker>
    <marker
       inkscape:stockid="Arrow2Mstart"
       orient="auto"
       refY="0"
       refX="0"
       id="marker19411"
       style="overflow:visible">
      <path
         inkscape:connector-curvature="0"
         id="path19413"
         style="fill-rule:evenodd;stroke-width:0.625;stroke-linejoin:round"
         d="M 8.7185878,4.0337352 -2.2072895,0.01601326 8.7185884,-4.0017078 c -1.7454984,2.3720609 -1.7354408,5.6174519 -6e-7,8.035443 z"
         transform="scale(0.6,0.6)" />
    </marker>
    <marker
       inkscape:stockid="Arrow2Mend"
       orient="auto"
       refY="0"
       refX="0"
       id="marker19415"
       style="overflow:visible">
      <path
         inkscape:connector-curvature="0"
         id="path19417"
         style="fill-rule:evenodd;stroke-width:0.625;stroke-linejoin:round"
         d="M 8.7185878,4.0337352 -2.2072895,0.01601326 8.7185884,-4.0017078 c -1.7454984,2.3720609 -1.7354408,5.6174519 -6e-7,8.035443 z"
         transform="scale(-0.6,-0.6)" />
    </marker>
    <marker
       inkscape:stockid="Arrow2Mend"
       orient="auto"
       refY="0"
       refX="0"
       id="Arrow2Mend-0"
       style="overflow:visible">
      <path
         inkscape:connector-curvature="0"
         id="path10539-7"
         style="fill-rule:evenodd;stroke-width:0.625;stroke-linejoin:round"
         d="M 8.7185878,4.0337352 -2.2072895,0.01601326 8.7185884,-4.0017078 c -1.7454984,2.3720609 -1.7354408,5.6174519 -6e-7,8.035443 z"
         transform="scale(-0.6,-0.6)" />
    </marker>
    <marker
       inkscape:stockid="Arrow2Mend"
       orient="auto"
       refY="0"
       refX="0"
       id="Arrow2Mend-3"
       style="overflow:visible">
      <path
         inkscape:connector-curvature="0"
         id="path10539-5"
         style="fill-rule:evenodd;stroke-width:0.625;stroke-linejoin:round"
         d="M 8.7185878,4.0337352 -2.2072895,0.01601326 8.7185884,-4.0017078 c -1.7454984,2.3720609 -1.7354408,5.6174519 -6e-7,8.035443 z"
         transform="scale(-0.6,-0.6)" />
    </marker>
  </defs>
  <sodipodi:namedview
     id="base"
     pagecolor="#ffffff"
     bordercolor="#666666"
     borderopacity="1.0"
     inkscape:pageopacity="0.0"
     inkscape:pageshadow="2"
     inkscape:zoom="0.49497475"
     inkscape:cx="465"
     inkscape:cy="610"
     inkscape:document-units="px"
     inkscape:current-layer="layer1"
     showgrid="false"
     inkscape:window-width="1366"
     inkscape:window-height="706"
     inkscape:window-x="-8"
     inkscape:window-y="-8"
     inkscape:window-maximized="1" />
  <metadata
     id="metadata19392">
    <rdf:RDF>
      <cc:Work
         rdf:about="">
        <dc:format>image/svg+xml</dc:format>
        <dc:type
           rdf:resource="http://purl.org/dc/dcmitype/StillImage" />
        <dc:title></dc:title>
      </cc:Work>
    </rdf:RDF>
  </metadata>
  <g
     inkscape:label="Layer 1"
     inkscape:groupmode="layer"
     id="layer1">
    <g
       id="g20648"
       transform="translate(52.527932,-16.011478)">
      <path
         inkscape:connector-curvature="0"
         id="path11014"
         d="m -250.54101,254.00023 c 12.00913,0 24.01825,0 36.02738,0 2.40182,0 4.80365,0 7.20548,0 0.4003,0 0.8006,0 1.20091,0 0.4003,0 0.84287,-0.17902 1.20091,0 0.50635,0.25318 0.69456,0.94774 1.20091,1.20091 0.35804,0.17903 0.84287,-0.17901 1.20092,0 0.50634,0.25318 0.8006,0.80062 1.20091,1.20092 0.4003,0.4003 0.94774,0.69456 1.20091,1.20091 0.23808,0.47615 -0.24551,3.35723 0,3.60274 0.28306,0.28305 1.02189,-0.35805 1.20091,0 0.17569,0.35138 0,6.22253 0,7.20548 0,0.44101 -0.0483,4.75532 0,4.80364 0.12009,0.12009 3.48265,0.12009 3.60274,0 0.28306,-0.28306 -0.28306,-0.91785 0,-1.20091 0.63294,-0.63293 1.76889,-0.56797 2.40183,-1.20091 0.63293,-0.63294 0.70439,-1.65705 1.20091,-2.40182 0.4003,-0.40031 0.80061,-0.80062 1.20091,-1.20092 0.4003,0 0.91786,0.28306 1.20091,0 0.28306,-0.28306 -0.28305,-0.91786 0,-1.20091 0.28306,-0.28306 0.84287,0.17902 1.20092,0 0.50634,-0.25318 0.8006,-0.80061 1.20091,-1.20091 0.4003,-0.40031 0.80061,-0.80061 1.20091,-1.20092 0.4003,-0.4003 0.69456,-0.94773 1.20091,-1.20091 0.35805,-0.17902 0.80061,0 1.20092,0 0.4003,0 0.91785,-0.28306 1.20091,0 0.60045,0.60046 -0.60046,3.00228 0,3.60274 0.28306,0.28305 0.91785,-0.28306 1.20091,0 0.28306,0.28305 0,0.80061 0,1.20091 0,0.4003 0,0.80061 0,1.20092 0,3.20243 0,6.40486 0,9.60729 0,1.20092 0,2.40183 0,3.60274 0,0.40031 0.4003,1.20091 0,1.20091 -0.4003,0 -0.28306,-0.91785 0,-1.20091 0.16936,-0.16936 3.3564,-0.12317 3.60274,0 0.50635,0.25318 0.80061,0.80061 1.20091,1.20091 0.4003,0.40031 0.94774,0.69457 1.20091,1.20091 0.23808,0.47616 -0.24551,3.35723 0,3.60274 0.28306,0.28306 1.20092,0.40031 1.20092,0 0,-0.56611 -1.76703,-1.20091 -1.20092,-1.20091 1.26588,0 2.70763,2.09602 3.60274,1.20091 0.28306,-0.28305 -0.28306,-0.91785 0,-1.20091 0.28306,-0.28306 0.91785,0.28306 1.20091,0 0.28306,-0.28306 -0.28306,-0.91785 0,-1.20091 0.28306,-0.28306 0.91786,-0.28306 1.20092,0 0.28305,0.28306 -0.17903,0.84287 0,1.20091 0.25317,0.50635 1.02189,0.66385 1.20091,1.20091 0.27233,0.81699 -0.31839,5.3678 0,6.00457 0.25317,0.50634 0.94774,0.69456 1.20091,1.20091 0.17902,0.35804 -0.28306,0.91785 0,1.20091 0.28306,0.28306 0.91786,-0.28306 1.20091,0 0.40259,0.40259 -0.40259,1.99924 0,2.40183 0.60046,0.60045 3.00228,-0.60046 3.60274,0 0.28306,0.28305 -0.28306,0.91785 0,1.20091 0.28306,0.28305 0.91785,-0.28306 1.20091,0 0.28306,0.28305 -0.28306,0.91785 0,1.20091 0.56612,0.56612 1.83571,-0.56612 2.40183,0 0.28306,0.28306 -0.17902,0.84287 0,1.20091 2.49895,4.99791 -0.0829,-1.28381 2.40182,1.20092 0.28306,0.28305 -0.28306,0.91785 0,1.20091 0.28306,0.28306 0.80061,0 1.20091,0 0.29126,0 3.56412,0.0386 3.60274,0 0.28306,-0.28306 -0.17902,-0.84287 0,-1.20091 2.49896,-4.99792 -0.0829,1.28382 2.40183,-1.20092 0.63293,-0.63293 0.80061,-1.60121 1.20091,-2.40182 0.4003,-0.80061 0.91785,-1.55265 1.20091,-2.40183 0.12659,-0.37976 -0.17902,-0.84286 0,-1.20091 0.25318,-0.50635 0.80061,-0.80061 1.20091,-1.20091 0.40031,0 1.0219,0.35804 1.20092,0 0.35804,-0.71609 -0.15701,-1.61676 0,-2.40183 0.24826,-1.24129 0.9263,-2.36701 1.20091,-3.60274 0.52822,-2.37697 0.76533,-4.80979 1.20091,-7.20547 0.36514,-2.00823 0.91225,-3.98392 1.20092,-6.00456 0.11322,-0.79257 0,-1.60122 0,-2.40183 0,-3.20243 0,-6.40486 0,-9.6073 0,-1.20091 -0.19743,-2.41816 0,-3.60273 0.2081,-1.24865 0.9928,-2.35409 1.20091,-3.60274 0.003,-0.0204 -0.23612,-5.2962 0,-6.00456 2.89957,-8.69871 -0.34623,1.89337 2.40182,-3.60274 0.17902,-0.35804 -0.28306,-0.91785 0,-1.20091 0.28306,-0.28306 0.80061,0 1.20091,0 0.40031,0 0.84287,-0.17903 1.20092,0 0.50635,0.25317 0.94774,0.69456 1.20091,1.20091 0.17902,0.35804 -0.28306,0.91785 0,1.20091 0.28306,0.28306 0.91785,-0.28306 1.20091,0 0.28306,0.28306 -0.17902,0.84287 0,1.20091 0.87691,1.75383 1.52492,0.64801 2.40183,2.40183 0.17902,0.35804 -0.17902,0.84287 0,1.20091 0.68837,1.37675 2.50572,1.67048 3.60273,2.40182 0.40031,0.40031 0.80061,0.80062 1.20092,1.20092 0,0.4003 -0.28306,0.91785 0,1.20091 0.28306,0.28306 0.84287,-0.17902 1.20091,0 0.50635,0.25318 0.69456,0.94774 1.20091,1.20091 0.35805,0.17902 0.91786,-0.28305 1.20091,0 0.28306,0.28306 -0.28305,0.91786 0,1.20092 0.28306,0.28305 0.91786,-0.28306 1.20092,0 0.28305,0.28305 -0.17902,0.84286 0,1.20091 0.87236,1.74473 1.52946,0.65709 2.40182,2.40182 0.17902,0.35805 -0.28306,0.91786 0,1.20092 0.63294,0.63293 1.76889,0.56797 2.40183,1.20091 0.28305,0.28305 -0.17902,0.84287 0,1.20091 0.25317,0.50635 0.94774,0.69457 1.20091,1.20092 0.17902,0.35804 -0.28306,0.91785 0,1.20091 0.28306,0.28305 0.91786,-0.28306 1.20091,0 0.28306,0.28305 -0.28305,0.91785 0,1.20091 0.1201,0.12009 3.48265,0.12009 3.60274,0 0.63294,-0.63294 0.80061,-1.60122 1.20091,-2.40182 0.4003,-0.80062 0.91786,-1.55266 1.20092,-2.40183 0.36027,-1.08082 -0.36028,-2.52192 0,-3.60274 0.17901,-0.53706 0.88688,-0.72988 1.20091,-1.20091 0.49651,-0.74478 0.91785,-1.55265 1.20091,-2.40183 0.60045,-1.80136 -1.20091,-1.20091 0,-3.60274 0.17902,-0.35804 0.91785,0.28306 1.20091,0 0.28306,-0.28305 -0.28306,-0.91785 0,-1.20091 0.28306,-0.28305 0.91785,0.28306 1.20091,0 0.28306,-0.28305 -0.28306,-0.91785 0,-1.20091 0.56612,-0.56611 1.835711,0.56612 2.401827,0 0.28306,-0.28306 -0.283056,-0.91785 0,-1.20091 0.169359,-0.16936 3.356397,-0.12317 3.602738,0 0.50635,0.25317 0.694565,0.94774 1.200911,1.20091 1.656487,0.82825 1.074185,-1.45437 2.401827,1.20091 0.358045,0.71609 -0.566115,1.83571 0,2.40183 0.566116,0.56612 1.685737,-0.35804 2.401827,0 4.997908,2.49895 -1.283819,-0.0829 1.200911,2.40182 0.283056,0.28306 0.800608,0 1.200911,0 0.85121,0 6.894978,0.15525 7.205477,0 0.50635,-0.25317 0.69456,-0.94773 1.200911,-1.20091 0.358045,-0.17902 0.84287,0.17902 1.200911,0 0.50635,-0.25317 0.694565,-0.94773 1.200916,-1.20091 0.35804,-0.17902 0.917851,0.28306 1.200911,0 0.28306,-0.28306 -0.28306,-0.91786 0,-1.20092 2.48473,-2.48473 -0.09713,3.79701 2.401827,-1.20091 0.179018,-0.35804 -0.222051,-0.86783 0,-1.20091 0.628045,-0.94207 1.722485,-1.49604 2.401822,-2.40182 0.537063,-0.71609 0.800608,-1.60122 1.200912,-2.40183 0.400307,-0.80061 0.98382,-1.53344 1.200915,-2.40182 0.194175,-0.77671 -0.194179,-1.62512 0,-2.40183 1.449782,-5.79914 0.570697,0.0595 2.401823,-3.60273 0.179022,-0.35805 -0.283056,-0.91786 0,-1.20092 0.120093,-0.12009 3.482648,-0.12009 3.602738,0 0.28306,0.28306 -0.283056,0.91786 0,1.20092 2.48473,2.48473 -0.09713,-3.797 2.401826,1.20091 0.179019,0.35804 -0.179022,0.84287 0,1.20091 3.982926,3.98292 -0.566115,-1.13223 1.200912,2.40182 0.50635,1.0127 1.895476,1.38913 2.401826,2.40183 0.179019,0.35804 -0.179022,0.84287 0,1.20091 0.253171,0.50635 0.947737,0.69456 1.200912,1.20091 0.179022,0.35805 -0.179023,0.84287 0,1.20092 0.253175,0.50635 0.947736,0.69456 1.200911,1.20091 0.179022,0.35804 -0.283056,0.91785 0,1.20091 0.396727,0.39673 2.0051,-0.39672 2.401827,0 0.283055,0.28306 0,0.80061 0,1.20091 0.800607,0 1.685737,-0.35804 2.401822,0 0.358045,0.17903 -0.283055,0.91786 0,1.20091 0.28306,0.28306 0.917856,-0.28305 1.200916,0 0.283056,0.28306 -0.28306,0.91786 0,1.20092 4.686842,4.68684 0.644946,-0.27798 3.602734,1.20091 0.50635,0.25318 0.694565,0.94774 1.200915,1.20091 0.358041,0.17902 0.917852,-0.28305 1.200911,0 0.28306,0.28306 -0.358044,1.0219 0,1.20092 0.716086,0.35804 1.625123,-0.19418 2.401827,0 0.86838,0.21709 1.552652,0.91785 2.401823,1.20091 0.759525,0.25317 1.835711,-0.56612 2.401827,0 0.283055,0.28305 -0.28306,0.91785 0,1.20091 0.283055,0.28306 0.800607,0 1.200911,0 0.44102,0 4.755325,0.0483 4.803649,0 0.28306,-0.28306 -0.283055,-0.91786 0,-1.20091 0.28306,-0.28306 0.800608,0 1.200912,0 0,-0.80061 -0.358041,-1.68574 0,-2.40183 0.179022,-0.35804 0.800611,0 1.200915,0 0.400304,-0.4003 0.990663,-0.67528 1.200911,-1.20091 0.612977,-1.53245 0.462789,-3.3274 1.200912,-4.80365 0.50635,-1.0127 1.773777,-1.45975 2.401826,-2.40182 0.222047,-0.33308 -0.179022,-0.84287 0,-1.20092 2.498955,-4.9979 -0.08291,1.28382 2.401823,-1.20091 0.28306,-0.28306 -0.283056,-0.91785 0,-1.20091 0.566115,-0.56612 1.642301,0.25317 2.401827,0 0.849175,-0.28306 1.552651,-0.91785 2.401826,-1.20091 0.759522,-0.25318 1.835707,0.56611 2.401823,0 0.28306,-0.28306 -0.283056,-0.91786 0,-1.20092 0.404974,-0.40497 1.9968533,0.40498 2.4018268,0 0.2830557,-0.28306 0,-0.8006 0,-1.20091 0.4003038,0 0.9178514,0.28306 1.2009113,0 0.2830599,-0.28306 -0.2830599,-0.91785 0,-1.20091 0.2830599,-0.28306 0.8006075,0 1.2009113,0 0.4003037,0 0.8006075,0 1.2009155,0 0.4003037,0 0.8006075,0 1.2009112,0 0.4003038,0 0.8428707,-0.17902 1.2009113,0 0.5063504,0.25317 0.7298762,0.88689 1.2009113,1.20091 0.7447765,0.49652 1.76888886,0.56798 2.40182678,1.20091 0.28305988,0.28306 -0.17902242,0.84288 0,1.20092 0.25317517,0.50635 1.02189302,0.66384 1.20091132,1.20091 0.2531751,0.75952 -0.2531752,1.6423 0,2.40182 0.3580448,1.07413 1.8954764,1.38913 2.4018267,2.40183 0,3.20243 -0.4003037,-0.40031 1.2009113,1.20091 0.6004557,0.60046 -0.6004556,3.00228 0,3.60274 0.2830599,0.28306 0.9178556,-0.28306 1.2009113,0 0.2830599,0.28306 -0.2830557,0.91785 0,1.20091 0.2830599,0.28306 0.9178556,-0.28306 1.2009155,0 0.2830557,0.28306 -0.1790224,0.84287 0,1.20091 0.2531752,0.50635 0.9477361,0.69457 1.2009113,1.20092 0.3580448,0.71608 -0.3580449,1.68574 0,2.40182 0.2531752,0.50635 0.9477361,0.69457 1.2009111,1.20091 0.217146,0.43429 0,5.16928 0,6.00457 0,0.4003 0,0.8006 0,1.20091 0,0.4003 0.400304,1.20091 0,1.20091 -0.4003036,0 -0.1790181,-1.55895 0,-1.20091 0.566116,1.13223 0.6348,2.4705 1.200916,3.60274 0.253171,0.50635 0.947736,0.69456 1.200911,1.20091 0.238077,0.47615 -0.245513,3.35723 0,3.60274 0.566115,0.56611 1.685737,-0.35805 2.401823,0 0.50635,0.25317 0.694565,0.94774 1.200915,1.20091 0.358041,0.17902 0.842866,-0.17902 1.200911,0 0.506351,0.25317 0.694565,0.94774 1.200912,1.20091 0.716085,0.35804 1.835711,-0.56611 2.401826,0 0.283056,0.28306 -0.28306,0.91785 0,1.20091 0.283056,0.28306 0.917856,-0.28306 1.200912,0 0.28306,0.28306 -0.283056,0.91786 0,1.20091 0.28306,0.28306 0.917855,-0.28305 1.200911,0 0.533742,0.53374 -0.934042,2.2684 1.200915,1.20092 0.506347,-0.25317 0.800608,-0.80061 1.200912,-1.20092 3.065784,-3.06578 0.494405,0.0717 1.200911,-8.40638 0.202211,-2.42654 0.85656,-4.79499 1.200915,-7.20547 0.162353,-1.13649 0,-2.45337 0,-3.60274 0,-4.00304 0,-8.00609 0,-12.00913 0,-0.28537 -0.134582,-4.53449 0,-4.80365 0.253171,-0.50635 0.947737,-0.69456 1.200912,-1.20091 0.179022,-0.35804 -0.28306,-0.91785 0,-1.20091 0.283055,-0.28306 0.917855,0.28306 1.200911,0 0.28306,-0.28306 -0.283056,-0.91786 0,-1.20092 0.28306,-0.28306 0.917856,-0.28306 1.200911,0 0.28306,0.28306 -0.283055,0.91786 0,1.20092 0.28306,0.28306 0.917856,-0.28306 1.200916,0 0.283055,0.28306 -0.28306,0.91785 0,1.20091 0.283055,0.28306 0.917851,-0.28306 1.200911,0 0.566116,0.56611 -0.358045,1.68574 0,2.40182 0.720549,1.4411 2.882189,2.16165 3.602738,3.60274 0.179023,0.35804 -0.28306,0.91786 0,1.20091 0.283056,0.28306 0.917856,-0.28305 1.200911,0 0.28306,0.28306 -0.283055,0.91786 0,1.20091 0.28306,0.28306 0.917856,-0.28305 1.200912,0 0.28306,0.28306 -0.283056,0.91786 0,1.20092 0.03863,0.0386 3.311486,0 3.602738,0 0.400304,0 0.800607,0 1.200915,0 0.400304,0 0.917852,0.28306 1.200912,0 0.283055,-0.28306 -0.179023,-0.84287 0,-1.20092 0.253175,-0.50634 0.947736,-0.69456 1.200911,-1.20091 0.358045,-0.71608 -0.194175,-1.62512 0,-2.40182 2.498954,-9.99582 -0.0829,1.44963 2.401827,-6.00456 0.322204,-0.96662 -0.383706,-4.03624 0,-4.80365 0.253175,-0.50635 0.947736,-0.69457 1.200911,-1.20091 0.179022,-0.35805 0,-0.80062 0,-1.20092 0,-0.4003 0,-0.80061 0,-1.20091 0,-2.40182 0,-4.80365 0,-7.20548 0,-0.80061 0,-1.60121 0,-2.40182 0,-0.4003 0.28306,-0.91786 0,-1.20091 -0.28306,-0.28306 -0.917856,0.28305 -1.200911,0 -0.28306,-0.28306 0,-0.80061 0,-1.20092 0,-0.4003 0,-0.8006 0,-1.20091 0,-2.40183 0,-4.80365 0,-7.20547 0,-0.40031 -0.28306,-0.91786 0,-1.20092 0.120089,-0.12009 3.482644,-0.12009 3.602738,0 0.283055,0.28306 -0.28306,0.91786 0,1.20092 0.400614,0.40061 2.001207,-0.40062 2.401822,0 0.28306,0.28306 -0.283055,0.91785 0,1.20091 0.28306,0.28306 0.917856,-0.28306 1.200912,0 0.283059,0.28306 -0.179019,0.84287 0,1.20091 0.253175,0.50635 0.800611,0.80061 1.200915,1.20091 0.400304,0.40031 0.694561,0.94774 1.200911,1.20091 0.358045,0.17903 0.842871,-0.17901 1.200912,0 4.997912,2.49896 -1.283816,-0.0829 1.200915,2.40183 0.283056,0.28306 0.917851,-0.28306 1.200911,0 0.283056,0.28306 -0.28306,0.91786 0,1.20091 0.283056,0.28306 0.917856,-0.28305 1.200912,0 0.402981,0.40298 -0.402977,1.99885 0,2.40183 0.28306,0.28306 0.800607,0 1.200911,0 0.400308,0 0.917856,0.28306 1.200915,0 0.283056,-0.28306 0,-0.80061 0,-1.20091 0,-2.4037 0,-4.80178 0,-7.20548 0,-1.20091 0.235518,-2.42514 0,-3.60274 -0.424917,-2.12457 -2.996448,-4.18568 -3.602738,-6.00456 -0.421038,-1.26311 0.39634,-4.81554 0,-6.00456 -0.611001,-1.833 -1.790825,-2.97065 -2.401826,-4.80365 -0.155767,-0.4673 0.186365,-3.41637 0,-3.60274 -0.283056,-0.28305 -0.917852,0.28306 -1.200912,0 -0.04833,-0.0483 0,-4.36263 0,-4.80365 0,-0.4003 -0.28306,-0.91785 0,-1.20091 0.28306,-0.28306 0.800608,0 1.200912,0 0.800607,0 1.625122,-0.19418 2.401826,0 2.479019,0.61975 3.096354,2.40182 6.004561,2.40182 0.400304,0 0.842871,-0.17902 1.200915,0 1.181733,0.59087 3.621918,4.21279 4.80365,4.80365 0.716085,0.35805 1.835707,-0.56611 2.401822,0 0.28306,0.28306 -0.283055,0.91786 0,1.20092 0.566116,0.56611 1.835712,-0.56612 2.401827,0 0.632938,0.63293 0.567974,1.76889 1.200911,2.40182 0.28306,0.28306 0.821153,-0.12659 1.200912,0 0.849175,0.28306 1.768889,0.56798 2.401826,1.20092 0.28306,0.28305 -0.283059,0.91785 0,1.20091 0.28306,0.28305 1.021894,-0.35805 1.200912,0 0.358045,0.71608 -0.444097,1.73568 0,2.40182 0.496519,0.74478 1.768889,0.56798 2.401827,1.20092 0.07695,0.077 2.252693,4.57995 2.401822,4.80364 1.832038,2.74806 0.950607,-0.75092 2.401827,3.60274 0.253175,0.75952 -0.358045,1.68574 0,2.40183 0.253175,0.50635 0.947736,0.69456 1.200911,1.20091 0.182742,0.36548 0,3.0619 0,3.60273 0,1.60122 0,3.20244 0,4.80366 0,2.00152 0,4.00304 0,6.00456 0,0.4003 0,0.80061 0,1.20091 0,0.4003 0.28306,0.91786 0,1.20092 -0.283056,0.28305 -1.200911,0.4003 -1.200911,0 0,-0.40031 0.917855,0.28305 1.200911,0 0.28306,-0.28306 -0.179018,-0.84287 0,-1.20092 0.253175,-0.50635 0.94774,-0.69456 1.200916,-1.20091 0.179018,-0.35805 -0.126588,-0.82115 0,-1.20091 0.283055,-0.84918 1.025365,-1.52411 1.200911,-2.40183 0.392528,-1.96265 -0.48544,-4.0628 0,-6.00456 0.217095,-0.86838 0.917856,-1.55265 1.200911,-2.40183 0.126588,-0.37976 -0.283055,-0.91785 0,-1.20091 0.28306,-0.28306 1.021893,0.35804 1.200912,0 0.480366,-0.96073 -0.480362,-2.64201 0,-3.60274 0.853025,-1.70604 2.749713,-1.70604 3.602733,0 0.17903,0.35805 -0.17901,0.84287 0,1.20092 0.25318,0.50635 0.94774,0.69456 1.20092,1.20091 0.17902,0.35804 -0.12659,0.82115 0,1.20091 0.28306,0.84917 0.66385,1.68574 1.20091,2.40182 0.67934,0.90579 2.04378,1.3277 2.40182,2.40183 0.50635,1.51905 -0.26323,3.22422 0,4.80365 0.14716,0.88293 0.91786,1.55265 1.20092,2.40183 0.37713,1.13139 -0.3893,6.42687 0,7.20547 0.25317,0.50635 0.94774,0.69456 1.20091,1.20092 0.41476,0.8295 -0.42154,5.58301 0,6.00456 0.28306,0.28306 0.91786,-0.28306 1.20091,0 0.40259,0.40259 -0.40259,1.99923 0,2.40182 0.56612,0.56612 1.68574,-0.35804 2.40183,0 0.50635,0.25318 0.69456,0.94774 1.20091,1.20091 0.36548,0.18274 3.0619,0 3.60274,0 3.20243,0 6.40487,0 9.6073,0 0.83528,0 5.57027,-0.21714 6.00456,0 0.50635,0.25318 0.69456,0.94774 1.20091,1.20092 0.36548,0.18274 3.0619,0 3.60274,0 2.80213,0 5.60426,0 8.40639,0 0.94525,0 5.90813,0.0964 6.00456,0 0.28306,-0.28306 -0.17902,-0.84287 0,-1.20092 2.49895,-4.9979 -0.0829,1.28382 2.40183,-1.20091 0.28305,-0.28306 -0.28306,-0.91785 0,-1.20091 0.28305,-0.28306 0.91785,0.28306 1.20091,0 0.28306,-0.28306 -0.28306,-0.91785 0,-1.20091 0.63293,-0.63294 1.65705,-0.7044 2.40182,-1.20092 0.47104,-0.31402 0.69456,-0.94774 1.20092,-1.20091 0.35804,-0.17902 0.84287,0.17902 1.20091,0 0.50635,-0.25317 0.69456,-0.94774 1.20091,-1.20091 0.35804,-0.17902 0.84287,0.17902 1.20091,0 0.50635,-0.25318 0.69456,-0.94774 1.20091,-1.20091 0.31577,-0.15789 4.17567,0 4.80365,0 0.40031,0 0.91786,-0.28306 1.20092,0 0.28305,0.28305 -0.28306,0.91785 0,1.20091 0.28305,0.28306 0.91785,-0.28306 1.20091,0 0.56612,0.56611 -0.35804,1.68574 0,2.40182 1.21441,2.42883 2.78693,0.38511 3.60274,1.20092 0.28305,0.28306 -0.17902,0.84287 0,1.20091 0.25317,0.50635 0.80061,0.80061 1.20091,1.20091 0.80061,0.80061 1.77378,1.45975 2.40183,2.40183 0.22204,0.33307 -0.28306,0.91785 0,1.20091 0.28305,0.28306 0.91785,-0.28306 1.20091,0 2.48473,2.48473 -3.797,-0.0971 1.20091,2.40182 0.35804,0.17903 0.84287,-0.17902 1.20091,0 0.50635,0.25318 0.69457,0.94774 1.20092,1.20091 0.24634,0.12317 3.43337,0.16936 3.60273,0 0.63294,-0.63293 0.91786,-1.55265 1.20092,-2.40182 0.25317,-0.75952 -0.56612,-1.83571 0,-2.40182 2.48473,-2.48474 -0.0971,3.79699 2.40182,-1.20092 0.41476,-0.8295 -0.42154,-5.58301 0,-6.00456 0.28306,-0.28306 0.91785,0.28306 1.20091,0 0.60046,-0.60046 -0.60045,-3.00228 0,-3.60273 0.28306,-0.28306 0.91785,0.28305 1.20091,0 0.28306,-0.28306 -0.28306,-0.91786 0,-1.20092 0.28306,-0.28306 0.91786,0.28306 1.20092,0 0.28306,-0.28306 -0.28306,-0.91785 0,-1.20091 0.28306,-0.28306 0.8006,0 1.20091,0 0.29125,0 3.56412,-0.0386 3.60274,0 0.28306,0.28306 -0.28306,0.91785 0,1.20091 1.60121,1.60122 1.20091,-2.00152 1.20091,1.20092"
         style="fill:none;stroke:#0000ff;stroke-width:2.52191615;stroke-linecap:butt;stroke-linejoin:miter;stroke-miterlimit:4;stroke-opacity:1;stroke-dasharray:none" />
      <path
         inkscape:connector-curvature="0"
         id="path11016"
         d="m -249.34009,400.39147 c 0.4003,1.60121 2.80213,4.40334 1.20091,4.80365 -1.60121,0.4003 -2.36799,-5.97073 -1.20091,-4.80365 1.52431,1.52431 1.43776,4.07644 2.40182,6.00456 2.49896,4.99791 -0.0829,-1.28382 2.40183,1.20091 0.28306,0.28306 -0.28306,0.91786 0,1.20091 0.28306,0.28306 0.80061,0 1.20091,0 0.4003,0 0.80061,0 1.20092,0 1.64779,0 3.88796,0.63045 4.80364,-1.20091 0.17902,-0.35804 -0.28306,-0.91786 0,-1.20091 0.28306,-0.28306 0.91786,0.28305 1.20092,0 0.28306,-0.28306 -0.28306,-0.91786 0,-1.20091 0.28306,-0.28306 0.84287,0.17902 1.20091,0 0.50635,-0.25318 0.69456,-0.94774 1.20091,-1.20092 0.35804,-0.17902 0.91785,0.28306 1.20091,0 0.28306,-0.28305 -0.28306,-0.91785 0,-1.20091 1.64629,-1.64629 3.96139,-1.20091 6.00456,-1.20091 0.40031,0 0.80061,0 1.20092,0 0.4003,0 0.91785,-0.28306 1.20091,0 0.28306,0.28305 -0.28306,0.91785 0,1.20091 2.48473,2.48473 -0.0971,-3.797 2.40182,1.20091 0.35805,0.71609 -0.56611,1.83571 0,2.40183 0.28306,0.28305 0.91786,-0.28306 1.20092,0 0.28306,0.28305 -0.12659,0.82115 0,1.20091 0.28306,0.84917 0.7044,1.65705 1.20091,2.40183 0.31403,0.47103 1.02189,0.66384 1.20091,1.20091 0.25318,0.75952 -0.19417,1.62512 0,2.40182 0.4342,1.73677 1.83571,3.10531 2.40183,4.80365 0.27534,0.82603 -0.35428,2.89418 0,3.60274 0.25317,0.50635 0.94773,0.69456 1.20091,1.20091 0.35804,0.71609 -0.56612,1.83571 0,2.40183 2.48473,2.48473 -0.0971,-3.797 2.40183,1.20091 0,3.20244 -0.40031,-0.4003 1.20091,1.20091 0.28306,0.28306 -0.40031,1.20091 0,1.20091 0.56611,0 0.80061,-1.60121 1.20091,-1.20091 0.4003,0.40031 -1.76703,1.20091 -1.20091,1.20091 0.89511,0 1.55265,-0.91785 2.40182,-1.20091 0.37976,-0.12659 0.80061,0 1.20092,0 6.08247,0 -2.56015,-0.19417 7.20547,1.20091 1.18884,0.16984 2.42515,-0.23551 3.60274,0 1.75545,0.3511 3.1053,1.83571 4.80365,2.40183 1.00651,0.3355 4.00777,-0.39794 4.80365,0 0.50635,0.25318 0.66385,1.02189 1.20091,1.20091 0.75952,0.25318 1.68574,-0.35804 2.40183,0 0.35804,0.17902 -0.35805,1.02189 0,1.20092 0.71608,0.35804 1.60121,0 2.40182,0 0.80061,0 1.60122,0 2.40183,0 1.00563,0 5.0913,0.22831 6.00456,0 1.73676,-0.4342 3.06688,-1.96764 4.80365,-2.40183 0.7767,-0.19417 1.68574,0.35805 2.40182,0 1.0127,-0.50635 1.49604,-1.72249 2.40183,-2.40183 0.71608,-0.53706 1.65705,-0.70439 2.40182,-1.20091 0.47104,-0.31402 0.80061,-0.80061 1.20092,-1.20091 0.4003,-0.4003 0.94773,-0.69456 1.20091,-1.20091 0.35804,-0.71609 -0.56612,-1.83571 0,-2.40183 0.56611,-0.56611 1.83571,0.56612 2.40182,0 1.60122,-1.60121 -2.00152,-1.20091 1.20092,-1.20091 1.24236,0 1.65983,-0.28306 2.40182,1.20091 0.17902,0.35805 -0.28306,0.91786 0,1.20091 0.28306,0.28306 0.84287,-0.17902 1.20091,0 4.99791,2.49896 -1.28382,-0.0829 1.20091,2.40183 0.28306,0.28306 0.91786,-0.28306 1.20092,0 0.28306,0.28306 -0.28306,0.91786 0,1.20091 0.28306,0.28306 0.91785,-0.28305 1.20091,0 0.28306,0.28306 -0.28306,0.91786 0,1.20091 0.28306,0.28306 0.91785,-0.28305 1.20091,0 2.48473,2.48473 -3.797,-0.0971 1.20091,2.40183 0.31577,0.15788 4.17567,0 4.80366,0 1.20091,0 2.40182,0 3.60273,0 0.40031,0 0.91786,0.28306 1.20091,0 0.56612,-0.56612 -0.35804,-1.68574 0,-2.40183 0.25318,-0.50634 1.0219,-0.66384 1.20092,-1.20091 0.37084,-1.11254 -0.38358,-4.85383 0,-6.00456 0.28306,-0.84917 0.98381,-1.53344 1.20091,-2.40183 0.26804,-1.07215 0,-4.61447 0,-6.00456 0,-0.4003 -0.28306,-0.91785 0,-1.20091 0.28306,-0.28306 1.02189,0.35804 1.20091,0 0.3487,-0.69739 -0.35395,-6.49756 0,-7.20547 0.25318,-0.50635 0.94774,-0.69457 1.20091,-1.20092 0.17903,-0.35804 -0.28305,-0.91785 0,-1.20091 0.36715,-0.36715 2.03468,0.36715 2.40183,0 0.28306,-0.28306 -0.28306,-0.91786 0,-1.20091 0.0386,-0.0386 3.31148,0 3.60274,0 2.36594,0 3.52345,-0.0396 6.00456,1.20091 0.50635,0.25318 0.69456,0.94774 1.20091,1.20091 0.35804,0.17902 0.80061,0 1.20091,0 1.20092,0.40031 2.51727,0.54963 3.60274,1.20092 1.94176,1.16505 3.0354,3.38905 4.80365,4.80365 1.12704,0.90163 2.58216,1.38124 3.60274,2.40182 1.02058,1.02058 1.38125,2.58216 2.40182,3.60274 1.4153,1.41529 3.283985,2.30016 4.803654,3.60273 1.289481,1.10528 2.27655,2.54179 3.602738,3.60274 1.397923,1.11834 3.537777,1.13595 4.803649,2.40183 0.28306,0.28306 -0.283056,0.91785 0,1.20091 0.28306,0.28306 0.917856,-0.28306 1.200911,0 0.28306,0.28306 -0.283055,0.91786 0,1.20091 0.28306,0.28306 0.917856,-0.28305 1.200916,0 0.283056,0.28306 0.400304,1.20091 0,1.20091 -0.400304,0 -0.179023,-0.84286 0,-1.20091 0.506346,-1.01269 2.043782,-1.32769 2.401822,-2.40182 0.253176,-0.75953 0,-1.60122 0,-2.40183 0,-1.20091 -0.235517,-2.42514 0,-3.60274 0.175547,-0.87772 0.917856,-1.55265 1.200916,-2.40182 0.126588,-0.37976 -0.126588,-0.82115 0,-1.20091 1.558952,-4.67687 1.200911,-0.11235 1.200911,-4.80365 0,-0.80061 0,-1.60122 0,-2.40183 0.400304,-0.4003 1.06361,-0.6517 1.200912,-1.20091 0.291264,-1.16505 -0.446006,-2.48772 0,-3.60274 0.4205,-1.05125 1.601219,-1.60121 2.401826,-2.40182 0.400304,-0.4003 1.021889,-0.66385 1.200912,-1.20091 0.272329,-0.81699 -0.318384,-5.3678 0,-6.00457 0.253175,-0.50635 0.947736,-0.69456 1.200911,-1.20091 0.414754,-0.82951 -0.421543,-5.58302 0,-6.00456 0.28306,-0.28306 0.917855,0.28306 1.200915,0 0.283056,-0.28306 -0.28306,-0.91785 0,-1.20091 0.283056,-0.28306 0.917852,0.28306 1.200912,0 0.283055,-0.28306 -0.28306,-0.91786 0,-1.20092 0.283055,-0.28306 0.800607,0 1.200911,0 0.800607,0 1.685741,-0.35804 2.401827,0 0.35804,0.17903 -0.28306,0.91786 0,1.20092 0.600455,0.60045 3.002278,-0.60046 3.602738,0 0.283055,0.28306 -0.179023,0.84287 0,1.20091 0.253171,0.50635 0.800607,0.80061 1.200911,1.20091 0.800608,0.80061 1.459752,1.77378 2.401823,2.40182 0.333073,0.22206 0.84287,-0.17902 1.200915,0 3.117757,1.55889 -0.982997,2.45631 3.602738,3.60274 0.776704,0.19418 1.625119,-0.19417 2.401823,0 1.736764,0.43419 3.105302,1.83571 4.803649,2.40183 0.379763,0.12659 0.842871,-0.17902 1.200916,0 0.506346,0.25317 0.694561,0.94774 1.200911,1.20091 0.358041,0.17902 0.917855,-0.28306 1.200911,0 0.28306,0.28306 -0.283056,0.91786 0,1.20091 0.28306,0.28306 0.917856,-0.28305 1.200911,0 0.28306,0.28306 -0.283055,0.91786 0,1.20092 0.28306,0.28305 0.917856,-0.28306 1.200916,0 2.48473,2.48473 -3.796997,-0.0971 1.200911,2.40182 0.358045,0.17902 0.917856,-0.28306 1.200911,0 0.28306,0.28306 -0.222046,0.86784 0,1.20091 0.62805,0.94208 1.773778,1.45975 2.401827,2.40183 0.222047,0.33307 -0.28306,0.91785 0,1.20091 0.632938,0.63294 1.657051,0.7044 2.401823,1.20091 2.379079,-0.11987 0.567977,1.76889 1.200915,2.40183 0.283056,0.28306 0.842867,-0.17902 1.200912,0 0.50635,0.25317 0.694565,0.94774 1.200911,1.20091 0.358045,0.17902 0.917855,-0.28306 1.200915,0 0.566116,0.56611 -0.566115,1.83571 0,2.40183 0.283056,0.28305 0.917852,-0.28306 1.200912,0 0.283055,0.28305 -0.28306,0.91785 0,1.20091 0.283055,0.28306 0.84287,-0.17903 1.200911,0 0.50635,0.25317 0.694565,0.94774 1.200911,1.20091 0.358045,0.17902 0.917856,-0.28306 1.200916,0 0.283055,0.28306 -0.28306,0.91785 0,1.20091 0.283055,0.28306 0.800607,0 1.200911,0 0.566229,0 5.950133,0.0544 6.004561,0 0.28306,-0.28306 -0.179019,-0.84287 0,-1.20091 2.383278,-4.76655 0.379569,5.30764 2.401826,-4.80365 0.157011,-0.78506 -0.194175,-1.62512 0,-2.40182 1.449787,-5.79915 0.570697,0.0595 2.401827,-3.60274 1.712264,-3.42453 1.200911,-7.12357 1.200911,-10.80822 0,-3.20243 0,-6.40486 0,-9.60729 0,-0.40031 -0.283059,-0.91786 0,-1.20092 1.724386,-1.72439 1.108534,2.21707 1.200912,2.40183 0.253175,0.50635 0.94774,0.69456 1.200911,1.20091 0.179022,0.35804 -0.358041,1.02189 0,1.20091 0.71609,0.35805 1.6857413,-0.35804 2.4018268,0 0.3580449,0.17903 -0.2830599,0.91786 0,1.20091 0.2830599,0.28306 0.8428706,-0.17902 1.2009113,0 1.59536,0.79769 0.8064668,1.60415 2.4018268,2.40183 0.3580406,0.17902 0.8678376,-0.22205 1.2009112,0 0.9420745,0.62805 1.6012193,1.60122 2.4018268,2.40182 0.4003038,0.40031 0.694561,0.94774 1.2009113,1.20092 0.35804485,0.17902 0.84287064,-0.17902 1.20091128,0 0.50635034,0.25317 0.66384822,1.02189 1.20091552,1.20091 0.7595213,0.25318 1.7356752,-0.4441 2.4018225,0 0.7447765,0.49652 0.456139,1.90531 1.2009113,2.40183 0.6661474,0.44409 1.6423013,-0.25318 2.4018268,0 0.5370631,0.17902 0.6945651,0.94773 1.2009113,1.20091 0.3580448,0.17902 0.8211527,-0.12659 1.2009151,0 0.849172,0.28305 1.552652,0.91785 2.401823,1.20091 0.379763,0.12659 0.821153,-0.12659 1.200911,0 0.849176,0.28306 1.552652,0.91786 2.401827,1.20091 0.759526,0.25318 1.835711,-0.56611 2.401827,0 0.283055,0.28306 -0.28306,0.91786 0,1.20092 0.283055,0.28305 0.800607,0 1.200911,0 1.601215,0 3.202434,0 4.803649,0 0.400304,0 1.021893,0.35804 1.200912,0 0.358045,-0.71609 -0.253175,-1.6423 0,-2.40183 0.179022,-0.53706 1.021893,-0.66385 1.200915,-1.20091 0.272325,-0.81698 -0.318388,-5.36779 0,-6.00457 0.253171,-0.50634 0.947736,-0.69456 1.200911,-1.20091 0.358041,-0.71608 -0.566115,-1.8357 0,-2.40182 0.404583,-0.40459 1.99724,0.40458 2.401823,0 0.28306,-0.28306 -0.283056,-0.91786 0,-1.20092 0.28306,-0.28305 0.842871,0.17903 1.200916,0 0.506346,-0.25317 0.69456,-0.94773 1.200911,-1.20091 0.102373,-0.0512 4.701276,-0.0512 4.803649,0 0.50635,0.25318 0.729876,0.88689 1.200911,1.20091 1.489549,0.99304 3.314105,1.4088 4.803654,2.40183 1.093209,0.72881 2.538321,3.07053 3.602734,3.60274 0.358045,0.17902 0.917855,-0.28306 1.200915,0 2.484731,2.48473 -3.796997,-0.0971 1.200912,2.40182 0.358044,0.17902 0.917855,-0.28305 1.200911,0 0.28306,0.28306 -0.283056,0.91786 0,1.20092 0.28306,0.28305 0.917855,-0.28306 1.200915,0 0.404974,0.40497 -0.404973,1.99685 0,2.40182 0.600456,0.60046 3.002279,-0.60046 3.602734,0 0.28306,0.28306 -0.283055,0.91786 0,1.20091 0.18637,0.18637 3.135436,-0.15576 3.602738,0 0.849176,0.28306 1.657051,0.7044 2.401827,1.20092 0.471035,0.31402 0.663848,1.02189 1.200911,1.20091 0.759526,0.25317 1.642302,-0.25318 2.401827,0 0.537063,0.17902 0.663848,1.02189 1.200911,1.20091 0.759526,0.25317 1.601215,0 2.401827,0 0.800608,0.4003 1.552652,0.91786 2.401823,1.20091 0.44416,0.14805 6.894835,0.15532 7.205476,0 1.65779,-0.82889 0.744037,-1.57293 2.401822,-2.40182 0.358045,-0.17902 0.917856,0.28305 1.200916,0 0.283056,-0.28306 -0.28306,-0.91786 0,-1.20091 0.283056,-0.28306 0.917851,0.28305 1.200911,0 0.28306,-0.28306 -0.09709,-0.81256 0,-1.20092 2.498954,-9.99582 -0.0829,1.44963 2.401827,-6.00456 0.155766,-0.4673 -0.18637,-3.41637 0,-3.60274 0.283056,-0.28305 0.842866,0.17903 1.200911,0 1.012697,-0.50635 1.389126,-1.89547 2.401823,-2.40182 0.358045,-0.17902 0.917855,0.28306 1.200915,0 0.283056,-0.28306 -0.28306,-0.91786 0,-1.20092 0.283056,-0.28305 0.800608,0 1.200912,0 2.401826,0 4.803649,0 7.205476,0 0.918007,0 8.068509,-0.16893 8.406389,0 0.50634,0.25318 0.69456,0.94775 1.20091,1.20092 0.47615,0.23807 3.35722,-0.24551 3.60274,0 0.28305,0.28306 -0.28306,0.91785 0,1.20091 0.28305,0.28306 0.91785,-0.28306 1.20091,0 0.56611,0.56612 -0.56612,1.83571 0,2.40182 0.28306,0.28306 0.91785,-0.28305 1.20091,0 0.28306,0.28306 -0.28306,0.91786 0,1.20092 0.28306,0.28306 0.80061,0 1.20092,0 0,0.4003 -0.28306,0.91785 0,1.20091 0.28305,0.28306 0.91785,-0.28306 1.20091,0 0.56611,0.56612 -0.56612,1.83571 0,2.40183 0.28306,0.28305 0.91785,-0.28306 1.20091,0 0.60045,0.60045 -0.60046,3.00228 0,3.60273 0.28306,0.28306 0.91785,-0.28305 1.20091,0 0.28306,0.28306 -0.17902,0.84287 0,1.20092 0.25317,0.50634 0.94774,0.69456 1.20091,1.20091 0.32574,0.65148 -0.32859,4.47505 0,4.80365 0.28306,0.28306 0.80061,0 1.20092,0 0.8006,0 1.60122,0 2.40182,0 0.40031,0 0.86784,0.22205 1.20091,0 0.94208,-0.62805 1.45976,-1.77378 2.40183,-2.40183 0.33307,-0.22205 0.91785,0.28306 1.20091,0 0.63294,-0.63293 0.56798,-1.76888 1.20091,-2.40182 1.02059,-1.02058 2.4757,-1.50019 3.60274,-2.40183 0.88413,-0.7073 1.49604,-1.72248 2.40183,-2.40182 0.71608,-0.53706 1.65705,-0.7044 2.40182,-1.20091 1.66537,-1.11025 3.13829,-2.4925 4.80365,-3.60274 0.74478,-0.49652 1.65705,-0.7044 2.40183,-1.20092 2.98719,-1.99146 0.13797,-0.27594 1.20091,-2.40182 2.49895,-4.99791 -0.0829,1.28382 2.40183,-1.20091 0.28305,-0.28306 -0.17903,-0.84287 0,-1.20092 0.25317,-0.50634 0.8006,-0.8006 1.20091,-1.20091 0.4003,-0.4003 0.69456,-0.94773 1.20091,-1.20091 0.35804,-0.17902 0.91785,0.28306 1.20091,0 2.48473,-2.48473 -3.797,0.0971 1.20091,-2.40182 0.35805,-0.17903 0.80061,0 1.20092,0 0.4003,0 0.8006,0 1.20091,0 0.44102,0 4.75532,-0.0483 4.80365,0 0.28306,0.28306 -0.28306,0.91785 0,1.20091 0.63293,0.63293 1.65705,0.70439 2.40182,1.20091 0.47104,0.31403 0.69457,0.94774 1.20091,1.20091 0.35805,0.17903 0.86785,-0.22205 1.20092,0 0.94207,0.62805 1.49604,1.72249 2.40182,2.40183 1.43217,1.07413 3.37148,1.32769 4.80365,2.40182 0.90579,0.67934 1.60122,1.60122 2.40183,2.40183 0.4003,0.4003 0.69456,0.94774 1.20091,1.20091 0.35804,0.17902 0.91786,-0.28306 1.20092,0 0.28305,0.28306 -0.17903,0.84287 0,1.20091 0.25317,0.50635 0.94773,0.69457 1.20091,1.20092 0.17902,0.35804 -0.28306,0.91785 0,1.20091 0.56611,0.56611 1.8357,-0.56612 2.40182,0 0.40459,0.40458 -0.40458,1.99724 0,2.40182 0.0386,0.0386 3.31149,0 3.60274,0 0.4003,0 0.91785,0.28306 1.20091,0 0.56612,-0.56611 -0.35804,-1.68574 0,-2.40182 0.25317,-0.50635 0.94774,-0.69457 1.20091,-1.20091 0.35804,-0.71609 -0.56611,-1.83571 0,-2.40183 0.28306,-0.28306 0.91786,0.28306 1.20092,0 0.63293,-0.63294 0.70439,-1.65705 1.20091,-2.40183 0.31402,-0.47103 0.94774,-0.69456 1.20091,-1.20091 0.35804,-0.71608 -0.56611,-1.8357 0,-2.40182 0.28306,-0.28306 0.91785,0.28306 1.20091,0 0.56612,-0.56612 -0.56611,-1.83571 0,-2.40183 0.28306,-0.28306 0.84287,0.17903 1.20091,0 4.99792,-2.49895 -1.28381,0.0829 1.20092,-2.40182 0.28306,-0.28306 0.91785,0.28306 1.20091,0 0.28306,-0.28306 -0.28306,-0.91785 0,-1.20091 0.28306,-0.28306 0.91786,0.28306 1.20091,0 0.28306,-0.28306 -0.28305,-0.91786 0,-1.20092 0.40498,-0.40497 1.99686,0.40498 2.40183,0 0.28306,-0.28306 -0.28306,-0.91785 0,-1.20091 0.0386,-0.0386 3.31148,0 3.60274,0 0.44101,0 4.75532,-0.0483 4.80365,0 0.28305,0.28306 -0.17903,0.84287 0,1.20091 0.25317,0.50635 0.94773,0.69457 1.20091,1.20092 0.23808,0.47615 -0.24551,3.35722 0,3.60273 0.28306,0.28306 1.02189,-0.35804 1.20091,0 0.17569,0.35139 0,6.22253 0,7.20548 0,0.44102 -0.0483,4.75532 0,4.80365 0.28306,0.28305 0.91786,-0.28306 1.20091,0 1.18468,1.18467 -2.46076,2.40182 1.20092,2.40182"
         style="fill:none;stroke:#00ff00;stroke-width:2.52200007;stroke-linecap:butt;stroke-linejoin:miter;stroke-miterlimit:4;stroke-opacity:1;stroke-dasharray:none" />
      <rect
         transform="matrix(0.98693166,-0.16113935,0.16113935,0.98693166,0,0)"
         y="262.38385"
         x="173.69708"
         height="12.009125"
         width="70.853836"
         id="rect11528"
         style="fill:#0000ff;fill-opacity:1;stroke:none" />
      <rect
         transform="matrix(0.98110193,-0.19349163,0.09435316,0.99553879,0,0)"
         y="257.46851"
         x="192.09732"
         height="11.936677"
         width="52.487534"
         id="rect11528-9"
         style="fill:#0000ff;fill-opacity:1;stroke:none" />
      <rect
         transform="matrix(0.98731184,-0.15879337,0.05920767,0.99824569,0,0)"
         y="276.68506"
         x="201.74689"
         height="11.936677"
         width="52.487534"
         id="rect11528-9-5"
         style="fill:#0000ff;fill-opacity:1;stroke:none" />
      <rect
         inkscape:transform-center-x="34.288774"
         transform="matrix(0.98290835,-0.18409556,-0.14430903,0.98953267,0,0)"
         y="255.83498"
         x="252.35648"
         height="11.89665"
         width="27.57905"
         id="rect11528-9-54"
         style="fill:#0000ff;fill-opacity:1;stroke:none" />
      <rect
         inkscape:transform-center-x="34.288774"
         transform="matrix(0.98290835,-0.18409556,-0.14430903,0.98953267,0,0)"
         y="310.62265"
         x="268.95288"
         height="11.89665"
         width="27.57905"
         id="rect11528-9-54-0"
         style="fill:#0000ff;fill-opacity:1;stroke:none" />
      <rect
         inkscape:transform-center-y="-1.0139281e-005"
         inkscape:transform-center-x="27.145896"
         transform="matrix(0.97313749,-0.23022472,-0.11469393,0.99340088,0,0)"
         y="253.07881"
         x="242.71002"
         height="11.850326"
         width="22.053152"
         id="rect11528-9-54-3"
         style="fill:#0000ff;fill-opacity:1;stroke:none" />
      <rect
         inkscape:transform-center-y="-3.0126401e-005"
         inkscape:transform-center-x="17.145894"
         transform="matrix(0.93646454,-0.35076225,-0.07273115,0.99735158,0,0)"
         y="364.08163"
         x="262.42593"
         height="11.803384"
         width="14.474707"
         id="rect11528-9-54-3-4"
         style="fill:#0000ff;fill-opacity:1;stroke:none" />
      <rect
         inkscape:transform-center-x="34.288774"
         transform="matrix(0.98290835,-0.18409556,-0.14430903,0.98953267,0,0)"
         y="433.43945"
         x="302.86798"
         height="11.89665"
         width="27.57905"
         id="rect11528-9-54-0-5"
         style="fill:#00ff00;fill-opacity:1;stroke:none" />
      <rect
         inkscape:transform-center-y="-3.0228468e-005"
         inkscape:transform-center-x="70.003019"
         transform="matrix(0.99581814,-0.09135772,-0.2853548,0.95842195,0,0)"
         y="435.17657"
         x="362.62662"
         height="12.28282"
         width="55.57473"
         id="rect11528-9-54-0-5-8"
         style="fill:#00ff00;fill-opacity:1;stroke:none" />
      <rect
         inkscape:transform-center-y="-2.2802312e-005"
         inkscape:transform-center-x="90.002969"
         transform="matrix(0.9974639,-0.07117414,-0.35749937,0.93391338,0,0)"
         y="454.71991"
         x="403.31812"
         height="12.605156"
         width="71.334633"
         id="rect11528-9-54-0-5-8-3"
         style="fill:#00ff00;fill-opacity:1;stroke:none" />
      <rect
         inkscape:transform-center-y="-4.8440163"
         inkscape:transform-center-x="58.997963"
         transform="matrix(0.9996879,-0.02498215,-0.45584497,0.89005919,0,0)"
         y="471.00394"
         x="458.02014"
         height="12.821089"
         width="47.903568"
         id="rect11528-9-54-0-5-9"
         style="fill:#00ff00;fill-opacity:1;stroke:none" />
      <path
         inkscape:connector-curvature="0"
         id="path11526"
         d="m 206.06391,184.60548 c 41.27273,290.17015 41.27273,294.65732 41.27273,294.65732"
         style="fill:none;stroke:#000000;stroke-width:2.73616123;stroke-linecap:butt;stroke-linejoin:miter;stroke-miterlimit:4;stroke-opacity:1;stroke-dasharray:none;marker-end:url(#Arrow2Mend)" />
      <text
         sodipodi:linespacing="125%"
         id="text18586-2-4-2-4-9-6"
         y="524.5556"
         x="240.36971"
         style="font-size:50px;font-style:normal;font-variant:normal;font-weight:normal;font-stretch:normal;text-align:start;line-height:125%;letter-spacing:0px;word-spacing:0px;writing-mode:lr-tb;text-anchor:start;fill:#000000;fill-opacity:1;stroke:none;font-family:Sans;-inkscape-font-specification:Sans"
         xml:space="preserve"><tspan
           dy="0"
           y="524.5556"
           x="240.36971"
           id="tspan18588-3-8-8-6-6-1"
           sodipodi:role="line">θ</tspan></text>
      <rect
         inkscape:transform-center-x="34.288774"
         transform="matrix(0.98290835,-0.18409556,-0.14430903,0.98953267,0,0)"
         y="489.49307"
         x="316.20444"
         height="11.89665"
         width="27.57905"
         id="rect11528-9-54-0-5-84"
         style="fill:#00ff00;fill-opacity:1;stroke:none" />
    </g>
    <g
       id="g20620"
       transform="translate(50.507627,10.101525)">
      <rect
         transform="matrix(0.98110193,-0.19349163,0.09435316,0.99553879,0,0)"
         y="362.65762"
         x="868.26532"
         height="11.936677"
         width="52.487534"
         id="rect11528-9-6"
         style="fill:#0000ff;fill-opacity:1;stroke:none" />
      <rect
         inkscape:transform-center-x="34.288774"
         transform="matrix(0.98290835,-0.18409556,-0.14430903,0.98953267,0,0)"
         y="479.1105"
         x="989.05469"
         height="11.89665"
         width="27.57905"
         id="rect11528-9-54-2"
         style="fill:#0000ff;fill-opacity:1;stroke:none" />
      <rect
         inkscape:transform-center-x="34.288774"
         transform="matrix(0.98290835,-0.18409556,-0.14430903,0.98953267,0,0)"
         y="414.51486"
         x="969.229"
         height="11.89665"
         width="27.57905"
         id="rect11528-9-54-0-2"
         style="fill:#0000ff;fill-opacity:1;stroke:none" />
      <rect
         inkscape:transform-center-y="-1.0139281e-005"
         inkscape:transform-center-x="27.145896"
         transform="matrix(0.97313749,-0.23022472,-0.11469393,0.99340088,0,0)"
         y="390.90793"
         x="950.85541"
         height="11.850326"
         width="22.053152"
         id="rect11528-9-54-3-0"
         style="fill:#0000ff;fill-opacity:1;stroke:none" />
      <rect
         inkscape:transform-center-y="-3.0126401e-005"
         inkscape:transform-center-x="17.145894"
         transform="matrix(0.93646454,-0.35076225,-0.07273115,0.99735158,0,0)"
         y="607.07013"
         x="1003.3452"
         height="11.803384"
         width="14.474707"
         id="rect11528-9-54-3-4-1"
         style="fill:#0000ff;fill-opacity:1;stroke:none" />
      <rect
         inkscape:transform-center-x="34.288774"
         transform="matrix(0.98290835,-0.18409556,-0.14430903,0.98953267,0,0)"
         y="537.33167"
         x="1003.1441"
         height="11.89665"
         width="27.57905"
         id="rect11528-9-54-0-5-1"
         style="fill:#00ff00;fill-opacity:1;stroke:none" />
      <path
         inkscape:connector-curvature="0"
         id="path11526-1"
         d="m 879.37859,158.49248 c 41.27273,290.17015 41.27273,294.65732 41.27273,294.65732"
         style="fill:none;stroke:#000000;stroke-width:2.73616123;stroke-linecap:butt;stroke-linejoin:miter;stroke-miterlimit:4;stroke-opacity:1;stroke-dasharray:none;marker-end:url(#Arrow2Mend)" />
      <text
         sodipodi:linespacing="125%"
         id="text18586-2-4-2-4-9-6-8"
         y="498.4426"
         x="913.68439"
         style="font-size:50px;font-style:normal;font-variant:normal;font-weight:normal;font-stretch:normal;text-align:start;line-height:125%;letter-spacing:0px;word-spacing:0px;writing-mode:lr-tb;text-anchor:start;fill:#000000;fill-opacity:1;stroke:none;font-family:Sans;-inkscape-font-specification:Sans"
         xml:space="preserve"><tspan
           dy="0"
           y="498.4426"
           x="913.68439"
           id="tspan18588-3-8-8-6-6-1-1"
           sodipodi:role="line">θ</tspan></text>
      <path
         inkscape:connector-curvature="0"
         id="path20362"
         d="m 455.71429,215.21933 c 4.32528,-2.90994 4.78243,-2.85715 8.57142,-2.85715 0.95239,0 1.9332,0.23099 2.85715,0 2.77869,-0.69467 5.79274,-2.16247 8.57143,-2.85714 1.21724,-0.30431 3.0262,0 4.28571,0 4.28571,0 8.57143,0 12.85714,0 2.38096,0 4.76191,0 7.14286,0 0.95238,0 1.90476,0 2.85714,0 0.47619,0 0.97682,-0.15059 1.42857,0 0.95239,0.47619 1.90477,0.95238 2.85715,1.42857 0.47619,0 0.97681,-0.15058 1.42857,0 1.01015,0.33672 1.84699,1.09185 2.85714,1.42857 0.45176,0.15059 1.00266,-0.21296 1.42857,0 1.20468,0.60234 1.65247,2.25481 2.85715,2.85715 0.42591,0.21295 1.09185,-0.33672 1.42857,0 0.33671,0.33671 -0.21296,1.00265 0,1.42857 0.30117,0.60234 1.1274,0.82623 1.42857,1.42857 0.21296,0.42592 -0.21296,1.00265 0,1.42857 0.30117,0.60234 1.1274,0.82623 1.42857,1.42857 0.21296,0.42592 0,0.95238 0,1.42857 0,0.47619 0,0.95238 0,1.42857 0,2.38096 0,4.76191 0,7.14286 0,2.85714 0,5.71429 0,8.57143 0,0.64337 -0.21738,3.85095 0,4.28571 0.30117,0.60234 1.1274,0.82624 1.42857,1.42858 0.57143,1.14285 -0.57143,3.14285 0,4.28571 0.30117,0.60234 1.1274,0.82623 1.42857,1.42857 0.21296,0.42592 -0.33671,1.09185 0,1.42857 0.33672,0.33672 1.09186,-0.33672 1.42857,0 0.33672,0.33672 -0.33671,1.09186 0,1.42857 0.33672,0.33672 1.09186,-0.33671 1.42858,0 0.33671,0.33672 -0.33672,1.09186 0,1.42858 0.33671,0.33671 0.95238,0 1.42857,0 0.47619,0 0.95238,0 1.42857,0 4.28571,0 8.57143,0 12.85714,0 0.47619,0 0.95238,0 1.42857,0 0.47619,0 1.09186,-0.33672 1.42857,0 0.33672,0.33671 -0.42591,1.21561 0,1.42857 0.85184,0.42591 1.95364,-0.30117 2.85715,0 0.63887,0.21296 0.86824,1.05501 1.42857,1.42857 0.88596,0.59064 1.84699,1.09185 2.85714,1.42857 0.45176,0.15058 0.95238,0 1.42857,0 1.42857,0.47619 2.93885,0.75514 4.28572,1.42857 0.60234,0.30117 0.82623,1.1274 1.42857,1.42857 0.42592,0.21296 0.9666,-0.11549 1.42857,0 1.46089,0.36522 2.80036,1.18101 4.28571,1.42857 1.40914,0.23486 2.85715,0 4.28572,0 2.85714,0 5.71428,0 8.57143,0 0.64337,0 3.85095,-0.21738 4.28571,0 0.60234,0.30117 0.82623,1.12741 1.42857,1.42858 0.89789,0.44894 4.8164,-0.44895 5.71429,0 0.60234,0.30116 0.82623,1.1274 1.42857,1.42857 0.42592,0.21296 1.00265,-0.21296 1.42857,0 0.3793,0.18965 4.09607,3.90641 4.28572,4.28571 0.21295,0.42592 -0.21296,1.00265 0,1.42857 2.97268,5.94537 -0.0986,-1.52719 2.85714,1.42857 0.33672,0.33672 -0.33672,1.09186 0,1.42858 0.33672,0.33671 1.09185,-0.33672 1.42857,0 0.67344,0.67343 -0.67343,2.1837 0,2.85714 0.33672,0.33672 1.09185,-0.33672 1.42857,0 0.34376,0.34376 -0.34376,5.37053 0,5.71428 0.33672,0.33672 1.09186,-0.33671 1.42857,0 0.67344,0.67344 -0.42591,2.00531 0,2.85715 2.97269,5.94537 -0.0986,-1.5272 2.85715,1.42857 0.67343,0.67343 -0.42592,2.00531 0,2.85714 0.30117,0.60234 1.05501,0.86824 1.42857,1.42857 0.59064,0.88596 0.67565,2.10422 1.42857,2.85715 0.33672,0.33671 1.09185,-0.33672 1.42857,0 0.33672,0.33671 -0.33672,1.09185 0,1.42857 0.33672,0.33671 1.09185,-0.33672 1.42857,0 0.75293,0.75292 0.67565,2.10422 1.42857,2.85714 0.33672,0.33672 1.09186,-0.33672 1.42857,0 0.33672,0.33672 -0.33671,1.09185 0,1.42857 0.33672,0.33672 1.03236,-0.26414 1.42858,0 1.12066,0.74711 1.73648,2.11003 2.85714,2.85714 0.39621,0.26415 1.09185,-0.33671 1.42857,0 0.33672,0.33672 -0.33672,1.09186 0,1.42858 0.67344,0.67343 2.18371,-0.67344 2.85714,0 0.33672,0.33671 -0.33671,1.09185 0,1.42857 0.33672,0.33671 1.00266,-0.21296 1.42857,0 0.60234,0.30117 0.82624,1.1274 1.42858,1.42857 0.43476,0.21738 3.64234,0 4.28571,0 2.85714,0 5.71429,0 8.57143,0 0.47619,0 0.95238,0 1.42857,0 0.47619,0 1.09185,0.33672 1.42857,0 0.33672,-0.33672 -0.33672,-1.09186 0,-1.42857 0.67344,-0.67344 2.00531,0.42591 2.85714,0 0.60234,-0.30117 0.82624,-1.12741 1.42858,-1.42857 0.75748,-0.37875 6.17099,0.32395 7.14285,0 0.63888,-0.21296 0.82624,-1.12741 1.42857,-1.42858 0.32019,-0.16009 5.37482,0 5.71429,0 0.95238,0 1.90476,0 2.85714,0 0.47619,0 1.00266,-0.21296 1.42857,0 0.60234,0.30117 0.82624,1.12741 1.42858,1.42858 0.42591,0.21295 1.09185,-0.33672 1.42857,0 0.33672,0.33671 -0.33672,1.09185 0,1.42857 0.33672,0.33671 1.00265,-0.21296 1.42857,0 1.88731,0.94365 0.96983,1.91348 2.85714,2.85714 0.42592,0.21296 1.00266,-0.21296 1.42857,0 0.3793,0.18965 4.09607,3.90641 4.28572,4.28571 0.42592,0.85184 -0.67344,2.18371 0,2.85715 0.33672,0.33671 1.09185,-0.33672 1.42857,0 0.67343,0.67343 -0.67344,2.1837 0,2.85714 0.33672,0.33672 1.09185,-0.33672 1.42857,0 0.67344,0.67343 -0.42592,2.00531 0,2.85714 0.30117,0.60234 1.1274,0.82624 1.42857,1.42857 0.28321,0.56642 -0.29205,3.99367 0,4.28572 0.33672,0.33672 1.09186,-0.33672 1.42857,0 0.67344,0.67343 -0.42591,2.00531 0,2.85714 0.60234,1.20468 2.25481,1.65247 2.85715,2.85714 0.21295,0.42592 -0.21296,1.00266 0,1.42858 0.60233,1.20467 2.2548,1.65246 2.85714,2.85714 0.21296,0.42592 -0.21296,1.00265 0,1.42857 0.30117,0.60234 1.1274,0.82623 1.42857,1.42857 0.21296,0.42592 -0.21296,1.00265 0,1.42857 0.94403,1.88806 1.91311,0.96909 2.85714,2.85715 0.21296,0.42591 -0.21296,1.00265 0,1.42857 0.30117,0.60234 1.12741,0.82623 1.42857,1.42857 0.42592,0.85183 -0.42591,2.00531 0,2.85714 0.30117,0.60234 1.12741,0.82623 1.42858,1.42857 0.21295,0.42592 -0.21296,1.00266 0,1.42857 2.97268,5.94538 -0.0986,-1.52719 2.85714,1.42858 0.67343,0.67343 -0.42592,2.0053 0,2.85714 0.30117,0.60234 0.95238,0.95238 1.42857,1.42857 0.47619,0.47619 0.82623,1.1274 1.42857,1.42857 0.56642,0.28321 3.99366,-0.29205 4.28572,0 0.33671,0.33672 -0.33672,1.09185 0,1.42857 0.33671,0.33672 0.95238,0 1.42857,0 0.47619,0 0.95238,0 1.42857,0 2.85714,0 5.71428,0 8.57143,0 1.42857,0 2.87658,0.23486 4.28571,0 1.48536,-0.24756 2.82483,-1.06335 4.28572,-1.42857 0.92394,-0.23099 1.90476,0 2.85714,0 2.85714,0 5.71428,0 8.57143,0 0.47619,0 0.95238,0 1.42857,0 0.47619,0 1.09185,-0.33672 1.42857,0 0.33672,0.33672 -0.33672,1.09185 0,1.42857 0.34376,0.34376 5.37053,-0.34376 5.71429,0 0.33671,0.33672 -0.33672,1.09186 0,1.42857 0.33671,0.33672 1.09185,-0.33671 1.42857,0 0.33672,0.33672 -0.33672,1.09186 0,1.42858 0.33672,0.33671 1.09185,-0.33672 1.42857,0 0.71428,0.71428 -0.71429,3.57142 0,4.28571 0.33672,0.33672 1.09185,-0.33672 1.42857,0 0.0648,0.0647 0,6.46929 0,7.14286 0,4.7619 0,9.52381 0,14.28571 0,1.15005 -0.29888,4.81764 0,5.71429 0.33672,1.01015 1.09185,1.84699 1.42857,2.85714 0.15059,0.45175 -0.33672,1.09185 0,1.42857 0.33672,0.33672 1.09186,-0.33672 1.42857,0 0.67344,0.67344 -0.42591,2.00531 0,2.85714 0.30117,0.60234 1.12741,0.82624 1.42857,1.42858 0.21296,0.42591 -0.33671,1.09185 0,1.42857 0.33672,0.33671 1.09186,-0.33672 1.42858,0 0.33671,0.33671 -0.33672,1.09185 0,1.42857 0.34375,0.34376 5.37052,-0.34376 5.71428,0 0.33672,0.33672 -0.33672,1.09185 0,1.42857 0.71429,0.71429 3.57143,-0.71429 4.28572,0 0.33671,0.33672 -0.33672,1.09185 0,1.42857 0.33671,0.33672 0.96659,-0.11549 1.42857,0 1.46088,0.36522 2.82483,1.06335 4.28571,1.42857 0.51854,0.12964 4.11072,-0.17499 4.28572,0 0.33671,0.33672 -0.42592,1.21561 0,1.42857 1.14285,0.57143 3.14285,-0.57142 4.28571,0 6.53801,3.26901 -6.06202,-0.5921 4.28571,2.85715 0.45176,0.15058 0.95239,0 1.42858,0 0.79736,0 6.4889,-0.21799 7.14285,0 0.63888,0.21296 0.82624,1.1274 1.42857,1.42857 0.42592,0.21296 1.00266,-0.21296 1.42858,0 0.60233,0.30117 0.82623,1.1274 1.42857,1.42857 0.42592,0.21296 1.00265,-0.21296 1.42857,0 0.60234,0.30117 0.95238,0.95238 1.42857,1.42857 0.47619,0.47619 1.1274,0.82623 1.42857,1.42857 0.21296,0.42592 -0.33672,1.09186 0,1.42857 0.33672,0.33672 1.09186,-0.33671 1.42857,0 0.67344,0.67344 -0.42591,2.00531 0,2.85715 0.30117,0.60234 1.12741,0.82623 1.42857,1.42857 0.18782,0.37563 0,4.96725 0,5.71428 0,3.80953 0,7.61905 0,11.42858 0,0.67356 -0.0647,7.07811 0,7.14285 0.33672,0.33672 1.09186,-0.33672 1.42858,0 0.33671,0.33672 -0.33672,1.09186 0,1.42857 0.33671,0.33672 1.00265,-0.21296 1.42857,0 0.60234,0.30117 0.82623,1.12741 1.42857,1.42858 0.85183,0.42591 2.18371,-0.67344 2.85714,0 0.67344,0.67343 -0.67343,2.1837 0,2.85714 0.33672,0.33672 0.95238,0 1.42857,0 0.47619,0 0.95238,0 1.42857,0 3.80953,0 7.61905,0 11.42858,0 0.47619,0 0.95238,0 1.42857,0 0.47619,0 1.09185,-0.33672 1.42857,0 0.33672,0.33672 -0.33672,1.09185 0,1.42857 0.33672,0.33672 0.95238,0 1.42857,0 0.47619,0 0.95238,0 1.42857,0"
         style="fill:none;stroke:#0000ff;stroke-width:2.51999998;stroke-linecap:butt;stroke-linejoin:miter;stroke-miterlimit:4;stroke-opacity:1;stroke-dasharray:none" />
      <path
         inkscape:connector-curvature="0"
         id="path20366"
         d="m 468.57143,459.50504 c 4.25918,-1.3755 -1.0648,-5.01327 0,-7.14286 3.269,-6.53801 -0.5921,6.06203 2.85714,-4.28571 1.84816,-5.54449 -5.99498,7.27693 1.42857,-5.71429 1.18129,-2.06724 2.965,-3.73321 4.28572,-5.71428 1.24578,-1.86867 4.23524,-9.77288 4.28571,-10 0.4132,-1.85941 -0.21034,-3.82118 0,-5.71429 0.26814,-2.41325 1.08519,-4.73916 1.42857,-7.14286 0.13469,-0.94281 -0.23098,-1.93319 0,-2.85714 0.25825,-1.033 1.09186,-1.84699 1.42857,-2.85714 0.71429,-2.14286 -1.42857,-1.42857 0,-4.28572 0.60277,-1.20553 1.5144,1.25694 2.85715,-1.42857 0.28321,-0.56641 -0.29205,-3.99366 0,-4.28571 0.33671,-0.33672 1.09185,0.33672 1.42857,0 0.33672,-0.33672 -0.33672,-1.09186 0,-1.42857 0.33672,-0.33672 0.95238,0 1.42857,0 1.90476,0 3.80952,0 5.71429,0 0.47619,0 0.97681,-0.15059 1.42857,0 1.01015,0.33671 1.90476,0.95238 2.85714,1.42857 0.95238,0.47619 1.97118,0.83793 2.85714,1.42857 0.56033,0.37355 0.82624,1.1274 1.42857,1.42857 0.42592,0.21296 1.00266,-0.21296 1.42858,0 0.60233,0.30117 0.82623,1.1274 1.42857,1.42857 0.42592,0.21296 1.09185,-0.33672 1.42857,0 0.75292,0.75293 0.67565,2.10422 1.42857,2.85715 0.33672,0.33671 0.97682,-0.15059 1.42857,0 1.01015,0.33671 2.10422,0.67564 2.85714,1.42857 0.33672,0.33671 -0.21295,1.00265 0,1.42857 0.30117,0.60234 0.95239,0.95238 1.42858,1.42857 0.47619,0.47619 0.82623,1.1274 1.42857,1.42857 0.85183,0.42592 2.0053,-0.42592 2.85714,0 0.60234,0.30117 0.82623,1.1274 1.42857,1.42857 0.42592,0.21296 1.00266,-0.21296 1.42857,0 1.20468,0.60234 1.65247,2.25481 2.85715,2.85715 0.89788,0.44894 4.81639,-0.44895 5.71428,0 0.60234,0.30116 0.82623,1.1274 1.42857,1.42857 0.42592,0.21296 1.09186,-0.33672 1.42857,0 1.90477,1.90476 -2.38095,1.42857 1.42858,1.42857 3.35025,0 -0.67344,-0.33672 2.85714,1.42857 0.85183,0.42592 2.18371,-0.67344 2.85714,0 0.33672,0.33672 -0.33672,1.09185 0,1.42857 0.33672,0.33672 1.09186,0.33672 1.42857,0 0.33672,-0.33672 0,-0.95238 0,-1.42857 0,-1.13994 -0.28568,-6.2858 0,-7.14286 0.33672,-1.01015 1.17032,-1.82414 1.42857,-2.85714 0.46198,-1.84789 -0.60233,-3.90727 0,-5.71429 0.21296,-0.63887 1.12741,-0.82623 1.42858,-1.42857 0.21082,-0.42165 0,-8.52827 0,-10 0,-0.47619 0,-0.95238 0,-1.42857 0,-0.47619 -0.21296,-1.00265 0,-1.42857 0.30117,-0.60234 1.1274,-0.82623 1.42857,-1.42857 0.44894,-0.89789 -0.44895,-4.8164 0,-5.71429 2.97268,-5.94537 -0.0986,1.5272 2.85714,-1.42857 0.33672,-0.33672 -0.21296,-1.00265 0,-1.42857 0.30117,-0.60234 0.95238,-0.95238 1.42857,-1.42857 0.47619,-0.47619 0.82623,-1.1274 1.42857,-1.42857 0.42592,-0.21296 1.09186,0.33671 1.42857,0 2.95577,-2.95577 -4.5168,0.11554 1.42858,-2.85715 0.42591,-0.21296 0.95238,0 1.42857,0 2.38095,0 4.7619,0 7.14285,0 0.4762,0 0.95239,0 1.42858,0 0.47619,0 1.00265,0.21296 1.42857,0 0.60234,-0.30117 0.77524,-1.26524 1.42857,-1.42857 1.38592,-0.34648 2.85714,0 4.28571,0 2.85715,0 5.71429,0 8.57143,0 2.85714,0 5.71429,0 8.57143,0 0.95238,0 2.00531,-0.42592 2.85714,0 0.42592,0.21296 -0.33671,1.09186 0,1.42857 0.33672,0.33672 0.95238,0 1.42857,0 0.4762,0 0.95239,0 1.42858,0 4.28571,0 8.57142,0 12.85714,0 0.47619,0 0.95238,0 1.42857,0 0.47619,0 1.09185,0.33672 1.42857,0 0.33672,-0.33671 -0.33672,-1.09185 0,-1.42857 0.33672,-0.33672 1.09186,0.33672 1.42857,0 0.33672,-0.33672 -0.21296,-1.00265 0,-1.42857 0.30117,-0.60234 1.12741,-0.82623 1.42857,-1.42857 0.21739,-0.43476 0,-3.64235 0,-4.28571 0,-0.64628 0.19036,-8.19072 0,-8.57143 -0.30116,-0.60234 -1.1274,-0.82624 -1.42857,-1.42857 -0.21296,-0.42592 0.0674,-0.95717 0,-1.42858 -0.40963,-2.86744 -1.16633,-5.68677 -1.42857,-8.57142 -0.37448,-4.11934 0,-9.87652 0,-14.28572 0,-2.38095 0,-4.7619 0,-7.14286 0,-0.95238 -0.18678,-1.92325 0,-2.85714 2.67215,-13.36076 0.13403,0.89248 2.85714,-10 0.1155,-0.46197 -0.21295,-1.00265 0,-1.42857 0.30117,-0.60234 1.12741,-0.82623 1.42858,-1.42857 0.21295,-0.42592 -0.21296,-1.00266 0,-1.42857 0.30117,-0.60234 0.86824,-1.05502 1.42857,-1.42857 2.36682,-1.57788 3.24456,-1.42858 5.71428,-1.42858 2.38096,0 4.76191,0 7.14286,0 0.47619,0 0.95238,0 1.42857,0 0.47619,0 1.00266,-0.21296 1.42857,0 1.20468,0.60234 1.65247,2.25481 2.85715,2.85715 0.42591,0.21296 1.00265,-0.21296 1.42857,0 1.20467,0.60234 1.57939,2.43122 2.85714,2.85714 0.90351,0.30117 1.95364,-0.30117 2.85714,0 0.96736,0.32245 3.19445,3.74008 4.28572,4.28571 0.89789,0.44895 4.81639,-0.44894 5.71428,0 0.60234,0.30117 0.82624,1.12741 1.42857,1.42858 0.36936,0.18467 7.55886,0 8.57143,0 0.67357,0 7.07811,0.0647 7.14286,0 0.33672,-0.33672 -0.33672,-1.09186 0,-1.42858 0.33672,-0.33671 0.95238,0 1.42857,0 0.47619,-0.47619 1.05502,-0.86824 1.42857,-1.42857 0.59064,-0.88596 0.7897,-2.00531 1.42857,-2.85714 1.21219,-1.61624 3.16506,-2.60472 4.28572,-4.28571 4.81124,-7.21687 0.011,-0.0331 1.42857,-4.28572 0.67344,-2.0203 2.34064,-3.64828 2.85714,-5.71428 0.23099,-0.92395 -0.18677,-1.92326 0,-2.85715 1.48635,-7.43171 0.95238,-1.42857 2.85715,-7.14285 0.62087,-1.86263 0.88918,-3.82645 1.42857,-5.71429 0.41369,-1.44791 1.06335,-2.82483 1.42857,-4.28571 0.29317,-1.17271 -0.41996,-4.87437 0,-5.71429 3.269,-6.53801 -0.5921,6.06202 2.85714,-4.28571 0.30117,-0.90351 -0.67343,-2.18371 0,-2.85715 0.33672,-0.33672 1.09186,0.33672 1.42857,0 0.33672,-0.33672 0,-0.95238 0,-1.42857 0,-0.95238 -0.42591,-2.00531 0,-2.85714 0.21296,-0.42592 1.00266,0.21296 1.42857,0 5.94538,-2.97269 -1.52719,0.0986 1.42858,-2.85714 0.33671,-0.33672 1.09185,0.33671 1.42857,0 0.33672,-0.33672 -0.33672,-1.09186 0,-1.42858 0.0647,-0.0647 6.46929,0 7.14285,0 0.98646,0 5.27995,-0.21716 5.71429,0 0.60234,0.30117 0.82623,1.12741 1.42857,1.42858 0.63568,0.31784 5.06088,-0.21781 5.71429,0 0.63887,0.21295 0.82623,1.1274 1.42857,1.42857 0.42592,0.21296 1.00265,-0.21296 1.42857,0 0.60234,0.30117 0.7897,1.21561 1.42857,1.42857 9.80702,3.269 -6.65412,-5.46992 7.14286,1.42857 0.60234,0.30117 0.78969,1.21561 1.42857,1.42857 0.90351,0.30117 1.9332,-0.23099 2.85714,0 6.8985,1.72462 -0.0708,0.67889 4.28572,2.85714 0.42592,0.21296 1.00265,-0.21296 1.42857,0 0.60234,0.30117 0.78969,1.21562 1.42857,1.42858 0.90351,0.30116 2.00531,-0.42592 2.85714,0 0.42592,0.21295 -0.33671,1.09185 0,1.42857 0.67344,0.67343 2.18371,-0.67344 2.85715,0 0.33671,0.33671 -0.33672,1.09185 0,1.42857 0.33671,0.33672 0.95238,0 1.42857,0 0.47619,0 0.95238,0 1.42857,0 0.47619,0 0.95238,0 1.42857,0 0.47619,0 1.21561,0.42592 1.42857,0 0.42592,-0.85184 0,-1.90476 0,-2.85714 0,-2.85715 0,-5.71429 0,-8.57143 0,-0.47619 -0.21296,-1.00266 0,-1.42857 0.30117,-0.60234 1.1274,-0.82624 1.42857,-1.42858 0.21296,-0.42591 -0.33671,-1.09185 0,-1.42857 0.33672,-0.33672 1.09186,0.33672 1.42857,0 0.33672,-0.33672 -0.15058,-0.97682 0,-1.42857 0.33672,-1.01015 0.88074,-1.94409 1.42858,-2.85714 0.88335,-1.47226 2.0893,-2.75005 2.85714,-4.28572 0.57143,-1.14285 -0.57143,-3.14285 0,-4.28571 2.97269,-5.94537 -0.0986,1.52719 2.85714,-1.42857 0.67344,-0.67344 -0.42592,-2.00531 0,-2.85714 1.09399,-2.18797 2.54574,-1.11717 4.28572,-2.85715 5.57533,-5.57533 -0.33068,-0.76721 1.42857,-4.28571 0.30117,-0.60234 1.1274,-0.82623 1.42857,-1.42857 0.21296,-0.42592 -0.21296,-1.00266 0,-1.42857 0.30117,-0.60234 0.95238,-0.95239 1.42857,-1.42858 0.95238,-0.95238 2.11003,-1.73648 2.85714,-2.85714 0.39099,-0.58648 -0.38949,-4.9353 0,-5.71428 0.30117,-0.60234 1.12741,-0.82624 1.42857,-1.42858 0.45063,-0.90124 -0.45062,-6.24161 0,-7.14285 0.30117,-0.60234 1.21562,-0.7897 1.42858,-1.42857 0.30117,-0.90351 -0.42592,-2.00531 0,-2.85715 0.21295,-0.42592 1.09185,0.33672 1.42857,0 0.67343,-0.67343 -0.42592,-2.00531 0,-2.85714 0.30117,-0.60234 1.1274,-0.82623 1.42857,-1.42857 0.21296,-0.42592 -0.21296,-1.00266 0,-1.42857 2.97269,-5.94538 -0.0986,1.52719 2.85714,-1.42857 0.67344,-0.67344 -0.67343,-2.18371 0,-2.85715 0.33672,-0.33672 0.95238,0 1.42857,0 1.42857,0 2.85715,0 4.28572,0 2.38095,0 4.7619,0 7.14285,0 0.4762,0 1.09186,-0.33672 1.42858,0 0.33671,0.33672 -0.33672,1.09186 0,1.42857 0.33671,0.33672 1.00265,-0.21296 1.42857,0 0.60234,0.30117 0.82623,1.12741 1.42857,1.42858 0.77498,0.38749 5.3234,-0.39089 5.71428,0 0.33672,0.33671 -0.33671,1.09185 0,1.42857 0.33672,0.33671 1.09186,-0.33672 1.42858,0 0.33671,0.33671 -0.33672,1.09185 0,1.42857 0.71428,0.71428 3.57142,-0.71429 4.28571,0 0.33672,0.33672 -0.42592,1.21561 0,1.42857 0.41799,0.209 7.40215,0 8.57143,0 1.01257,0 8.20207,0.18468 8.57143,0 0.60234,-0.30117 0.95238,-0.95238 1.42857,-1.42857 0.47619,-0.47619 1.21561,-0.7897 1.42857,-1.42857 0.30117,-0.90351 -0.42592,-2.00531 0,-2.85715 0.21296,-0.42591 1.09185,0.33672 1.42857,0 0.33672,-0.33671 -0.21296,-1.00265 0,-1.42857 0.30117,-0.60234 1.1274,-0.82623 1.42857,-1.42857 0.21296,-0.42592 -0.33671,-1.09185 0,-1.42857 0.33672,-0.33672 1.00266,0.21296 1.42857,0 0.60234,-0.30117 0.82624,-1.1274 1.42858,-1.42857 0.43476,-0.21738 3.64234,0 4.28571,0"
         style="fill:none;stroke:#00ff00;stroke-width:2.51999998;stroke-linecap:butt;stroke-linejoin:miter;stroke-miterlimit:4;stroke-opacity:1;stroke-dasharray:none" />
      <rect
         inkscape:transform-center-x="34.288774"
         transform="matrix(0.98290835,-0.18409556,-0.14430903,0.98953267,0,0)"
         y="594.82245"
         x="1022.0398"
         height="11.89665"
         width="27.57905"
         id="rect11528-9-54-2-7-8"
         style="fill:#0000ff;fill-opacity:1;stroke:none" />
      <rect
         inkscape:transform-center-y="-3.0126401e-005"
         inkscape:transform-center-x="17.145894"
         transform="matrix(0.93646454,-0.35076225,-0.07273115,0.99735158,0,0)"
         y="624.54944"
         x="1008.8905"
         height="11.803384"
         width="14.474707"
         id="rect11528-9-54-3-4-1-6"
         style="fill:#0000ff;fill-opacity:1;stroke:none" />
      <rect
         inkscape:transform-center-y="-3.0126401e-005"
         inkscape:transform-center-x="17.145894"
         transform="matrix(0.93646454,-0.35076225,-0.07273115,0.99735158,0,0)"
         y="664.86096"
         x="1013.5468"
         height="11.803384"
         width="14.474707"
         id="rect11528-9-54-3-4-1-69"
         style="fill:#0000ff;fill-opacity:1;stroke:none" />
      <rect
         inkscape:transform-center-y="-3.0126401e-005"
         inkscape:transform-center-x="17.145894"
         transform="matrix(0.93646454,-0.35076225,-0.07273115,0.99735158,0,0)"
         y="563.25757"
         x="993.45178"
         height="11.803384"
         width="14.474707"
         id="rect11528-9-54-3-4-1-9"
         style="fill:#0000ff;fill-opacity:1;stroke:none" />
      <rect
         inkscape:transform-center-y="-3.0126401e-005"
         inkscape:transform-center-x="17.145894"
         transform="matrix(0.93646454,-0.35076225,-0.07273115,0.99735158,0,0)"
         y="681.94086"
         x="1019.7549"
         height="11.803384"
         width="14.474707"
         id="rect11528-9-54-3-4-1-2"
         style="fill:#0000ff;fill-opacity:1;stroke:none" />
      <rect
         inkscape:transform-center-x="34.288774"
         transform="matrix(0.98290835,-0.18409556,-0.14430903,0.98953267,0,0)"
         y="552.15222"
         x="1009.9612"
         height="11.89665"
         width="27.57905"
         id="rect11528-9-54-2-7-8-6"
         style="fill:#0000ff;fill-opacity:1;stroke:none" />
      <rect
         inkscape:transform-center-x="34.288774"
         transform="matrix(0.98290835,-0.18409556,-0.14430903,0.98953267,0,0)"
         y="524.0462"
         x="998.56769"
         height="11.89665"
         width="27.57905"
         id="rect11528-9-54-2-7-8-6-6"
         style="fill:#0000ff;fill-opacity:1;stroke:none" />
      <rect
         inkscape:transform-center-x="34.288774"
         transform="matrix(0.98290835,-0.18409556,-0.14430903,0.98953267,0,0)"
         y="569.68488"
         x="1011.082"
         height="11.89665"
         width="27.57905"
         id="rect11528-9-54-0-5-84-0"
         style="fill:#00ff00;fill-opacity:1;stroke:none" />
      <rect
         inkscape:transform-center-y="1.8664952e-005"
         inkscape:transform-center-x="22.393058"
         transform="matrix(0.96124952,-0.27567982,-0.09481215,0.99549518,0,0)"
         y="552.76849"
         x="989.1629"
         height="11.825396"
         width="18.416946"
         id="rect11528-9-54-0-5-84-3"
         style="fill:#00ff00;fill-opacity:1;stroke:none" />
      <rect
         inkscape:transform-center-x="52.982031"
         transform="matrix(0.99273353,-0.12033342,-0.21982876,0.97553848,0,0)"
         y="345.18982"
         x="978.37537"
         height="12.067309"
         width="42.192608"
         id="rect11528-9-54-0-5-84-7"
         style="fill:#00ff00;fill-opacity:1;stroke:none" />
      <rect
         inkscape:transform-center-y="2.2295154e-005"
         inkscape:transform-center-x="17.294885"
         transform="matrix(0.9374543,-0.34810836,-0.0733597,0.99730555,0,0)"
         y="525.71863"
         x="983.6886"
         height="11.803929"
         width="14.585058"
         id="rect11528-9-54-0-5-84-8"
         style="fill:#00ff00;fill-opacity:1;stroke:none" />
      <rect
         inkscape:transform-center-x="25.791812"
         transform="matrix(0.9703703,-0.24162259,-0.10904261,0.99403708,0,0)"
         y="531.91425"
         x="986.24548"
         height="11.842742"
         width="21.012857"
         id="rect11528-9-54-0-5-84-7-3"
         style="fill:#00ff00;fill-opacity:1;stroke:none" />
      <rect
         inkscape:transform-center-x="34.288774"
         transform="matrix(0.98290835,-0.18409556,-0.14430903,0.98953267,0,0)"
         y="588.05164"
         x="1016.6854"
         height="11.89665"
         width="27.57905"
         id="rect11528-9-54-0-5-84-0-1"
         style="fill:#00ff00;fill-opacity:1;stroke:none" />
      <rect
         inkscape:transform-center-x="34.288774"
         transform="matrix(0.98290835,-0.18409556,-0.14430903,0.98953267,0,0)"
         y="507.34753"
         x="1001.9297"
         height="11.89665"
         width="27.57905"
         id="rect11528-9-54-0-5-84-0-12"
         style="fill:#00ff00;fill-opacity:1;stroke:none" />
      <rect
         inkscape:transform-center-x="34.288774"
         transform="matrix(0.98290835,-0.18409556,-0.14430903,0.98953267,0,0)"
         y="442.23022"
         x="977.83521"
         height="11.89665"
         width="27.57905"
         id="rect11528-9-54-0-5-84-0-5"
         style="fill:#00ff00;fill-opacity:1;stroke:none" />
    </g>
    <text
       xml:space="preserve"
       style="font-size:40px;font-style:normal;font-variant:normal;font-weight:normal;font-stretch:normal;text-align:start;line-height:125%;letter-spacing:0px;word-spacing:0px;writing-mode:lr-tb;text-anchor:start;fill:#000000;fill-opacity:1;stroke:none;font-family:Sans;-inkscape-font-specification:Sans"
       x="-106.1132"
       y="125.04215"
       id="text20667"
       sodipodi:linespacing="125%"><tspan
         sodipodi:role="line"
         id="tspan20669"
         x="-106.1132"
         y="125.04215">No inter-chain mixing</tspan></text>
    <text
       xml:space="preserve"
       style="font-size:40px;font-style:normal;font-variant:normal;font-weight:normal;font-stretch:normal;text-align:start;line-height:125%;letter-spacing:0px;word-spacing:0px;writing-mode:lr-tb;text-anchor:start;fill:#000000;fill-opacity:1;stroke:none;font-family:Sans;-inkscape-font-specification:Sans"
       x="562.47162"
       y="125.04215"
       id="text20667-7"
       sodipodi:linespacing="125%"><tspan
         sodipodi:role="line"
         id="tspan20669-6"
         x="562.47162"
         y="125.04215">No intra-chain mixing</tspan></text>
  </g>
</svg>
