<?xml version="1.0" encoding="UTF-8" standalone="no"?>
<!-- Created with Inkscape (http://www.inkscape.org/) -->

<svg
   xmlns:dc="http://purl.org/dc/elements/1.1/"
   xmlns:cc="http://creativecommons.org/ns#"
   xmlns:rdf="http://www.w3.org/1999/02/22-rdf-syntax-ns#"
   xmlns:svg="http://www.w3.org/2000/svg"
   xmlns="http://www.w3.org/2000/svg"
   xmlns:sodipodi="http://sodipodi.sourceforge.net/DTD/sodipodi-0.dtd"
   xmlns:inkscape="http://www.inkscape.org/namespaces/inkscape"
   width="744.09448819"
   height="1052.3622047"
   id="svg20692"
   version="1.1"
   inkscape:version="0.48.4 r9939"
   sodipodi:docname="s_metropolisHastings_splitChains.svg">
  <defs
     id="defs20694">
    <marker
       inkscape:stockid="Arrow2Mend"
       orient="auto"
       refY="0"
       refX="0"
       id="Arrow2Mend"
       style="overflow:visible">
      <path
         inkscape:connector-curvature="0"
         id="path10539"
         style="fill-rule:evenodd;stroke-width:0.625;stroke-linejoin:round"
         d="M 8.7185878,4.0337352 -2.2072895,0.01601326 8.7185884,-4.0017078 c -1.7454984,2.3720609 -1.7354408,5.6174519 -6e-7,8.035443 z"
         transform="scale(-0.6,-0.6)" />
    </marker>
    <clipPath
       clipPathUnits="userSpaceOnUse"
       id="clipPath20907">
      <rect
         style="fill:#00ff00;fill-opacity:1;stroke:#00ff00;stroke-width:2.21979165;stroke-linejoin:miter;stroke-miterlimit:4;stroke-opacity:1;stroke-dasharray:none;stroke-dashoffset:0"
         id="rect20909"
         width="206.0145"
         height="383.15735"
         x="374.13559"
         y="715.06915" />
    </clipPath>
    <clipPath
       clipPathUnits="userSpaceOnUse"
       id="clipPath20911">
      <rect
         style="fill:#00ff00;fill-opacity:1;stroke:#00ff00;stroke-width:2.21979165;stroke-linejoin:miter;stroke-miterlimit:4;stroke-opacity:1;stroke-dasharray:none;stroke-dashoffset:0"
         id="rect20913"
         width="206.0145"
         height="383.15735"
         x="374.13559"
         y="715.06915" />
    </clipPath>
    <clipPath
       clipPathUnits="userSpaceOnUse"
       id="clipPath20938">
      <rect
         style="fill:#00ff00;fill-opacity:1;stroke:#00ff00;stroke-width:2.51999998;stroke-linejoin:miter;stroke-miterlimit:4;stroke-opacity:1;stroke-dasharray:none;stroke-dashoffset:0"
         id="rect20940"
         width="362.85715"
         height="302.85715"
         x="584"
         y="723.79077" />
    </clipPath>
    <clipPath
       clipPathUnits="userSpaceOnUse"
       id="clipPath20942">
      <rect
         style="fill:#00ff00;fill-opacity:1;stroke:#00ff00;stroke-width:2.51999998;stroke-linejoin:miter;stroke-miterlimit:4;stroke-opacity:1;stroke-dasharray:none;stroke-dashoffset:0"
         id="rect20944"
         width="362.85715"
         height="302.85715"
         x="584"
         y="723.79077" />
    </clipPath>
    <marker
       inkscape:stockid="Arrow2Mend"
       orient="auto"
       refY="0"
       refX="0"
       id="Arrow2Mend-7"
       style="overflow:visible">
      <path
         inkscape:connector-curvature="0"
         id="path10539-4"
         style="fill-rule:evenodd;stroke-width:0.625;stroke-linejoin:round"
         d="M 8.7185878,4.0337352 -2.2072895,0.01601326 8.7185884,-4.0017078 c -1.7454984,2.3720609 -1.7354408,5.6174519 -6e-7,8.035443 z"
         transform="scale(-0.6,-0.6)" />
    </marker>
  </defs>
  <sodipodi:namedview
     id="base"
     pagecolor="#ffffff"
     bordercolor="#666666"
     borderopacity="1.0"
     inkscape:pageopacity="0.0"
     inkscape:pageshadow="2"
     inkscape:zoom="0.49497475"
     inkscape:cx="130.71429"
     inkscape:cy="520"
     inkscape:document-units="px"
     inkscape:current-layer="layer1"
     showgrid="false"
     inkscape:window-width="1366"
     inkscape:window-height="706"
     inkscape:window-x="-8"
     inkscape:window-y="-8"
     inkscape:window-maximized="1" />
  <metadata
     id="metadata20697">
    <rdf:RDF>
      <cc:Work
         rdf:about="">
        <dc:format>image/svg+xml</dc:format>
        <dc:type
           rdf:resource="http://purl.org/dc/dcmitype/StillImage" />
        <dc:title></dc:title>
      </cc:Work>
    </rdf:RDF>
  </metadata>
  <g
     inkscape:label="Layer 1"
     inkscape:groupmode="layer"
     id="layer1">
    <rect
       style="fill:#0000ff;fill-opacity:1;stroke:none"
       id="rect11528-9-6"
       width="52.487534"
       height="11.936677"
       x="147.66452"
       y="317.00418"
       transform="matrix(0.98110193,-0.19349163,0.09435316,0.99553879,0,0)" />
    <rect
       style="fill:#0000ff;fill-opacity:1;stroke:none"
       id="rect11528-9-54-2"
       width="27.57905"
       height="11.89665"
       x="259.40979"
       y="438.33929"
       transform="matrix(0.98290835,-0.18409556,-0.14430903,0.98953267,0,0)"
       inkscape:transform-center-x="34.288774" />
    <rect
       style="fill:#0000ff;fill-opacity:1;stroke:none"
       id="rect11528-9-54-0-2"
       width="27.57905"
       height="11.89665"
       x="239.58412"
       y="373.74365"
       transform="matrix(0.98290835,-0.18409556,-0.14430903,0.98953267,0,0)"
       inkscape:transform-center-x="34.288774" />
    <rect
       style="fill:#0000ff;fill-opacity:1;stroke:none"
       id="rect11528-9-54-3-0"
       width="22.053152"
       height="11.850326"
       x="210.86786"
       y="314.01733"
       transform="matrix(0.97313749,-0.23022472,-0.11469393,0.99340088,0,0)"
       inkscape:transform-center-x="27.145896"
       inkscape:transform-center-y="-1.0139281e-005" />
    <rect
       style="fill:#0000ff;fill-opacity:1;stroke:none"
       id="rect11528-9-54-3-4-1"
       width="14.474707"
       height="11.803384"
       x="229.99094"
       y="429.31659"
       transform="matrix(0.93646454,-0.35076225,-0.07273115,0.99735158,0,0)"
       inkscape:transform-center-x="17.145894"
       inkscape:transform-center-y="-3.0126401e-005" />
    <rect
       style="fill:#00ff00;fill-opacity:1;stroke:none"
       id="rect11528-9-54-0-5-1"
       width="27.57905"
       height="11.89665"
       x="273.49921"
       y="496.56049"
       transform="matrix(0.98290835,-0.18409556,-0.14430903,0.98953267,0,0)"
       inkscape:transform-center-x="34.288774" />
    <path
       style="fill:none;stroke:#000000;stroke-width:2.73616123;stroke-linecap:butt;stroke-linejoin:miter;stroke-miterlimit:4;stroke-opacity:1;stroke-dasharray:none;marker-end:url(#Arrow2Mend)"
       d="m 168.08815,252.47221 c 41.27273,290.17015 41.27273,294.65732 41.27273,294.65732"
       id="path11526-1"
       inkscape:connector-curvature="0" />
    <text
       xml:space="preserve"
       style="font-size:50px;font-style:normal;font-variant:normal;font-weight:normal;font-stretch:normal;text-align:start;line-height:125%;letter-spacing:0px;word-spacing:0px;writing-mode:lr-tb;text-anchor:start;fill:#000000;fill-opacity:1;stroke:none;font-family:Sans;-inkscape-font-specification:Sans"
       x="202.39395"
       y="592.4223"
       id="text18586-2-4-2-4-9-6-8"
       sodipodi:linespacing="125%"><tspan
         sodipodi:role="line"
         id="tspan18588-3-8-8-6-6-1-1"
         x="202.39395"
         y="592.4223"
         dy="0">θ</tspan></text>
    <path
       style="fill:none;stroke:#0000ff;stroke-width:2.51999998;stroke-linecap:butt;stroke-linejoin:miter;stroke-miterlimit:4;stroke-opacity:1;stroke-dasharray:none"
       d="m -255.57615,309.19906 c 4.32528,-2.90994 4.78243,-2.85715 8.57142,-2.85715 0.95239,0 1.9332,0.23099 2.85715,0 2.77869,-0.69467 5.79274,-2.16247 8.57143,-2.85714 1.21724,-0.30431 3.0262,0 4.28571,0 4.28571,0 8.57143,0 12.85714,0 2.38096,0 4.76191,0 7.14286,0 0.95238,0 1.90476,0 2.85714,0 0.47619,0 0.97682,-0.15059 1.42857,0 0.95239,0.47619 1.90477,0.95238 2.85715,1.42857 0.47619,0 0.97681,-0.15058 1.42857,0 1.01015,0.33672 1.84699,1.09185 2.85714,1.42857 0.45176,0.15059 1.00266,-0.21296 1.42857,0 1.20468,0.60234 1.65247,2.25481 2.85715,2.85715 0.42591,0.21295 1.09185,-0.33672 1.42857,0 0.33671,0.33671 -0.21296,1.00265 0,1.42857 0.30117,0.60234 1.1274,0.82623 1.42857,1.42857 0.21296,0.42592 -0.21296,1.00265 0,1.42857 0.30117,0.60234 1.1274,0.82623 1.42857,1.42857 0.21296,0.42592 0,0.95238 0,1.42857 0,0.47619 0,0.95238 0,1.42857 0,2.38096 0,4.76191 0,7.14286 0,2.85714 0,5.71429 0,8.57143 0,0.64337 -0.21738,3.85095 0,4.28571 0.30117,0.60234 1.1274,0.82624 1.42857,1.42858 0.57143,1.14285 -0.57143,3.14285 0,4.28571 0.30117,0.60234 1.1274,0.82623 1.42857,1.42857 0.21296,0.42592 -0.33671,1.09185 0,1.42857 0.33672,0.33672 1.09186,-0.33672 1.42857,0 0.33672,0.33672 -0.33671,1.09186 0,1.42857 0.33672,0.33672 1.09186,-0.33671 1.42858,0 0.33671,0.33672 -0.33672,1.09186 0,1.42858 0.33671,0.33671 0.95238,0 1.42857,0 0.47619,0 0.95238,0 1.42857,0 4.28571,0 8.57143,0 12.85714,0 0.47619,0 0.95238,0 1.42857,0 0.47619,0 1.09186,-0.33672 1.42857,0 0.33672,0.33671 -0.42591,1.21561 0,1.42857 0.85184,0.42591 1.95364,-0.30117 2.85715,0 0.63887,0.21296 0.86824,1.05501 1.42857,1.42857 0.88596,0.59064 1.84699,1.09185 2.85714,1.42857 0.45176,0.15058 0.95238,0 1.42857,0 1.42857,0.47619 2.93885,0.75514 4.28572,1.42857 0.60234,0.30117 0.82623,1.1274 1.42857,1.42857 0.42592,0.21296 0.9666,-0.11549 1.42857,0 1.46089,0.36522 2.80036,1.18101 4.28571,1.42857 1.40914,0.23486 2.85715,0 4.28572,0 2.85714,0 5.71428,0 8.57143,0 0.64337,0 3.85095,-0.21738 4.28571,0 0.60234,0.30117 0.82623,1.12741 1.42857,1.42858 0.89789,0.44894 4.8164,-0.44895 5.71429,0 0.60234,0.30116 0.82623,1.1274 1.42857,1.42857 0.42592,0.21296 1.00265,-0.21296 1.42857,0 0.3793,0.18965 4.09607,3.90641 4.28572,4.28571 0.21295,0.42592 -0.21296,1.00265 0,1.42857 2.97268,5.94537 -0.0986,-1.52719 2.85714,1.42857 0.33672,0.33672 -0.33672,1.09186 0,1.42858 0.33672,0.33671 1.09185,-0.33672 1.42857,0 0.67344,0.67343 -0.67343,2.1837 0,2.85714 0.33672,0.33672 1.09185,-0.33672 1.42857,0 0.34376,0.34376 -0.34376,5.37053 0,5.71428 0.33672,0.33672 1.09186,-0.33671 1.42857,0 0.67344,0.67344 -0.42591,2.00531 0,2.85715 2.97269,5.94537 -0.0986,-1.5272 2.85715,1.42857 0.67343,0.67343 -0.42592,2.00531 0,2.85714 0.30117,0.60234 1.05501,0.86824 1.42857,1.42857 0.59064,0.88596 0.67565,2.10422 1.42857,2.85715 0.33672,0.33671 1.09185,-0.33672 1.42857,0 0.33672,0.33671 -0.33672,1.09185 0,1.42857 0.33672,0.33671 1.09185,-0.33672 1.42857,0 0.75293,0.75292 0.67565,2.10422 1.42857,2.85714 0.33672,0.33672 1.09186,-0.33672 1.42857,0 0.33672,0.33672 -0.33671,1.09185 0,1.42857 0.33672,0.33672 1.03236,-0.26414 1.42858,0 1.12066,0.74711 1.73648,2.11003 2.85714,2.85714 0.39621,0.26415 1.09185,-0.33671 1.42857,0 0.33672,0.33672 -0.33672,1.09186 0,1.42858 0.67344,0.67343 2.18371,-0.67344 2.85714,0 0.33672,0.33671 -0.33671,1.09185 0,1.42857 0.33672,0.33671 1.00266,-0.21296 1.42857,0 0.60234,0.30117 0.82624,1.1274 1.42858,1.42857 0.43476,0.21738 3.64234,0 4.28571,0 2.85714,0 5.71429,0 8.57143,0 0.47619,0 0.95238,0 1.42857,0 0.47619,0 1.09185,0.33672 1.42857,0 0.33672,-0.33672 -0.33672,-1.09186 0,-1.42857 0.67344,-0.67344 2.00531,0.42591 2.85714,0 0.60234,-0.30117 0.82624,-1.12741 1.42858,-1.42857 0.75748,-0.37875 6.17099,0.32395 7.14285,0 0.63888,-0.21296 0.82624,-1.12741 1.42857,-1.42858 0.32019,-0.16009 5.37482,0 5.71429,0 0.95238,0 1.90476,0 2.85714,0 0.47619,0 1.00266,-0.21296 1.42857,0 0.60234,0.30117 0.82624,1.12741 1.42858,1.42858 0.42591,0.21295 1.09185,-0.33672 1.42857,0 0.33672,0.33671 -0.33672,1.09185 0,1.42857 0.33672,0.33671 1.00265,-0.21296 1.42857,0 1.88731,0.94365 0.96983,1.91348 2.85714,2.85714 0.42592,0.21296 1.00266,-0.21296 1.42857,0 0.3793,0.18965 4.09607,3.90641 4.28572,4.28571 0.42592,0.85184 -0.67344,2.18371 0,2.85715 0.33672,0.33671 1.09185,-0.33672 1.42857,0 0.67343,0.67343 -0.67344,2.1837 0,2.85714 0.33672,0.33672 1.09185,-0.33672 1.42857,0 0.67344,0.67343 -0.42592,2.00531 0,2.85714 0.30117,0.60234 1.1274,0.82624 1.42857,1.42857 0.28321,0.56642 -0.29205,3.99367 0,4.28572 0.33672,0.33672 1.09186,-0.33672 1.42857,0 0.67344,0.67343 -0.42591,2.00531 0,2.85714 0.60234,1.20468 2.25481,1.65247 2.85715,2.85714 0.21295,0.42592 -0.21296,1.00266 0,1.42858 0.60233,1.20467 2.2548,1.65246 2.85714,2.85714 0.21296,0.42592 -0.21296,1.00265 0,1.42857 0.30117,0.60234 1.1274,0.82623 1.42857,1.42857 0.21296,0.42592 -0.21296,1.00265 0,1.42857 0.94403,1.88806 1.91311,0.96909 2.85714,2.85715 0.21296,0.42591 -0.21296,1.00265 0,1.42857 0.30117,0.60234 1.12741,0.82623 1.42857,1.42857 0.42592,0.85183 -0.42591,2.00531 0,2.85714 0.30117,0.60234 1.12741,0.82623 1.42858,1.42857 0.21295,0.42592 -0.21296,1.00266 0,1.42857 2.97268,5.94538 -0.0986,-1.52719 2.85714,1.42858 0.67343,0.67343 -0.42592,2.0053 0,2.85714 0.30117,0.60234 0.95238,0.95238 1.42857,1.42857 0.47619,0.47619 0.82623,1.1274 1.42857,1.42857 0.56642,0.28321 3.99366,-0.29205 4.28572,0 0.33671,0.33672 -0.33672,1.09185 0,1.42857 0.33671,0.33672 0.95238,0 1.42857,0 0.47619,0 0.95238,0 1.42857,0 2.85714,0 5.71428,0 8.57143,0 1.42857,0 2.87658,0.23486 4.28571,0 1.48536,-0.24756 2.82483,-1.06335 4.28572,-1.42857 0.92394,-0.23099 1.90476,0 2.85714,0 2.85714,0 5.71428,0 8.57143,0 0.476187,0 0.952377,0 1.428567,0 0.47619,0 1.09185,-0.33672 1.42857,0 0.33672,0.33672 -0.33672,1.09185 0,1.42857 0.34376,0.34376 5.37053,-0.34376 5.71429,0 0.33671,0.33672 -0.33672,1.09186 0,1.42857 0.33671,0.33672 1.09185,-0.33671 1.42857,0 0.33672,0.33672 -0.33672,1.09186 0,1.42858 0.33672,0.33671 1.09185,-0.33672 1.42857,0 0.71428,0.71428 -0.71429,3.57142 0,4.28571 0.33672,0.33672 1.09185,-0.33672 1.42857,0 0.0648,0.0647 0,6.46929 0,7.14286 0,4.7619 0,9.52381 0,14.28571 0,1.15005 -0.29888,4.81764 0,5.71429 0.33672,1.01015 1.09185,1.84699 1.42857,2.85714 0.15059,0.45175 -0.33672,1.09185 0,1.42857 0.33672,0.33672 1.09186,-0.33672 1.42857,0 0.67344,0.67344 -0.42591,2.00531 0,2.85714 0.30117,0.60234 1.12741,0.82624 1.42857,1.42858 0.21296,0.42591 -0.33671,1.09185 0,1.42857 0.33672,0.33671 1.09186,-0.33672 1.42858,0 0.33671,0.33671 -0.33672,1.09185 0,1.42857 0.34375,0.34376 5.37052,-0.34376 5.71428,0 0.33672,0.33672 -0.33672,1.09185 0,1.42857 0.71429,0.71429 3.57143,-0.71429 4.28572,0 0.33671,0.33672 -0.33672,1.09185 0,1.42857 0.33671,0.33672 0.96659,-0.11549 1.42857,0 1.46088,0.36522 2.82483,1.06335 4.28571,1.42857 0.51854,0.12964 4.11072,-0.17499 4.28572,0 0.33671,0.33672 -0.42592,1.21561 0,1.42857 1.14285,0.57143 3.14285,-0.57142 4.28571,0 6.53801,3.26901 -6.06202,-0.5921 4.28571,2.85715 0.45176,0.15058 0.95239,0 1.42858,0 0.79736,0 6.4889,-0.21799 7.14285,0 0.63888,0.21296 0.82624,1.1274 1.42857,1.42857 0.42592,0.21296 1.00266,-0.21296 1.42858,0 0.60233,0.30117 0.82623,1.1274 1.42857,1.42857 0.42592,0.21296 1.00265,-0.21296 1.42857,0 0.60234,0.30117 0.95238,0.95238 1.42857,1.42857 0.47619,0.47619 1.1274,0.82623 1.42857,1.42857 0.21296,0.42592 -0.33672,1.09186 0,1.42857 0.33672,0.33672 1.09186,-0.33671 1.42857,0 0.67344,0.67344 -0.42591,2.00531 0,2.85715 0.30117,0.60234 1.12741,0.82623 1.42857,1.42857 0.18782,0.37563 0,4.96725 0,5.71428 0,3.80953 0,7.61905 0,11.42858 0,0.67356 -0.0647,7.07811 0,7.14285 0.33672,0.33672 1.09186,-0.33672 1.42858,0 0.33671,0.33672 -0.33672,1.09186 0,1.42857 0.33671,0.33672 1.00265,-0.21296 1.42857,0 0.60234,0.30117 0.82623,1.12741 1.42857,1.42858 0.85183,0.42591 2.18371,-0.67344 2.857143,0 0.67344,0.67343 -0.673433,2.1837 0,2.85714 0.33672,0.33672 0.95238,0 1.42857,0 0.47619,0 0.95238,0 1.42857,0 3.80953,0 7.61905,0 11.42858,0 0.47619,0 0.95238,0 1.42857,0 0.47619,0 1.09185,-0.33672 1.42857,0 0.33672,0.33672 -0.33672,1.09185 0,1.42857 0.33672,0.33672 0.95238,0 1.42857,0 0.47619,0 0.95238,0 1.42857,0"
       id="path20362"
       inkscape:connector-curvature="0" />
    <path
       style="fill:none;stroke:#00ff00;stroke-width:2.51999998;stroke-linecap:butt;stroke-linejoin:miter;stroke-miterlimit:4;stroke-opacity:1;stroke-dasharray:none"
       d="m -242.71901,553.48477 c 4.25918,-1.3755 -1.0648,-5.01327 0,-7.14286 3.269,-6.53801 -0.5921,6.06203 2.85714,-4.28571 1.84816,-5.54449 -5.99498,7.27693 1.42857,-5.71429 1.18129,-2.06724 2.965,-3.73321 4.28572,-5.71428 1.24578,-1.86867 4.23524,-9.77288 4.28571,-10 0.4132,-1.85941 -0.21034,-3.82118 0,-5.71429 0.26814,-2.41325 1.08519,-4.73916 1.42857,-7.14286 0.13469,-0.94281 -0.23098,-1.93319 0,-2.85714 0.25825,-1.033 1.09186,-1.84699 1.42857,-2.85714 0.71429,-2.14286 -1.42857,-1.42857 0,-4.28572 0.60277,-1.20553 1.5144,1.25694 2.85715,-1.42857 0.28321,-0.56641 -0.29205,-3.99366 0,-4.28571 0.33671,-0.33672 1.09185,0.33672 1.42857,0 0.33672,-0.33672 -0.33672,-1.09186 0,-1.42857 0.33672,-0.33672 0.95238,0 1.42857,0 1.90476,0 3.80952,0 5.71429,0 0.47619,0 0.97681,-0.15059 1.42857,0 1.01015,0.33671 1.90476,0.95238 2.85714,1.42857 0.95238,0.47619 1.97118,0.83793 2.85714,1.42857 0.56033,0.37355 0.82624,1.1274 1.42857,1.42857 0.42592,0.21296 1.00266,-0.21296 1.42858,0 0.60233,0.30117 0.82623,1.1274 1.42857,1.42857 0.42592,0.21296 1.09185,-0.33672 1.42857,0 0.75292,0.75293 0.67565,2.10422 1.42857,2.85715 0.33672,0.33671 0.97682,-0.15059 1.42857,0 1.01015,0.33671 2.10422,0.67564 2.85714,1.42857 0.33672,0.33671 -0.21295,1.00265 0,1.42857 0.30117,0.60234 0.95239,0.95238 1.42858,1.42857 0.47619,0.47619 0.82623,1.1274 1.42857,1.42857 0.85183,0.42592 2.0053,-0.42592 2.85714,0 0.60234,0.30117 0.82623,1.1274 1.42857,1.42857 0.42592,0.21296 1.00266,-0.21296 1.42857,0 1.20468,0.60234 1.65247,2.25481 2.85715,2.85715 0.89788,0.44894 4.81639,-0.44895 5.71428,0 0.60234,0.30116 0.82623,1.1274 1.42857,1.42857 0.42592,0.21296 1.09186,-0.33672 1.42857,0 1.90477,1.90476 -2.38095,1.42857 1.42858,1.42857 3.35025,0 -0.67344,-0.33672 2.85714,1.42857 0.85183,0.42592 2.18371,-0.67344 2.85714,0 0.33672,0.33672 -0.33672,1.09185 0,1.42857 0.33672,0.33672 1.09186,0.33672 1.42857,0 0.33672,-0.33672 0,-0.95238 0,-1.42857 0,-1.13994 -0.28568,-6.2858 0,-7.14286 0.33672,-1.01015 1.17032,-1.82414 1.42857,-2.85714 0.46198,-1.84789 -0.60233,-3.90727 0,-5.71429 0.21296,-0.63887 1.12741,-0.82623 1.42858,-1.42857 0.21082,-0.42165 0,-8.52827 0,-10 0,-0.47619 0,-0.95238 0,-1.42857 0,-0.47619 -0.21296,-1.00265 0,-1.42857 0.30117,-0.60234 1.1274,-0.82623 1.42857,-1.42857 0.44894,-0.89789 -0.44895,-4.8164 0,-5.71429 2.97268,-5.94537 -0.0986,1.5272 2.85714,-1.42857 0.33672,-0.33672 -0.21296,-1.00265 0,-1.42857 0.30117,-0.60234 0.95238,-0.95238 1.42857,-1.42857 0.47619,-0.47619 0.82623,-1.1274 1.42857,-1.42857 0.42592,-0.21296 1.09186,0.33671 1.42857,0 2.95577,-2.95577 -4.5168,0.11554 1.42858,-2.85715 0.42591,-0.21296 0.95238,0 1.42857,0 2.38095,0 4.7619,0 7.14285,0 0.4762,0 0.95239,0 1.42858,0 0.47619,0 1.00265,0.21296 1.42857,0 0.60234,-0.30117 0.77524,-1.26524 1.42857,-1.42857 1.38592,-0.34648 2.85714,0 4.28571,0 2.85715,0 5.71429,0 8.57143,0 2.85714,0 5.71429,0 8.57143,0 0.95238,0 2.00531,-0.42592 2.85714,0 0.42592,0.21296 -0.33671,1.09186 0,1.42857 0.33672,0.33672 0.95238,0 1.42857,0 0.4762,0 0.95239,0 1.42858,0 4.28571,0 8.57142,0 12.85714,0 0.47619,0 0.95238,0 1.42857,0 0.47619,0 1.09185,0.33672 1.42857,0 0.33672,-0.33671 -0.33672,-1.09185 0,-1.42857 0.33672,-0.33672 1.09186,0.33672 1.42857,0 0.33672,-0.33672 -0.21296,-1.00265 0,-1.42857 0.30117,-0.60234 1.12741,-0.82623 1.42857,-1.42857 0.21739,-0.43476 0,-3.64235 0,-4.28571 0,-0.64628 0.19036,-8.19072 0,-8.57143 -0.30116,-0.60234 -1.1274,-0.82624 -1.42857,-1.42857 -0.21296,-0.42592 0.0674,-0.95717 0,-1.42858 -0.40963,-2.86744 -1.16633,-5.68677 -1.42857,-8.57142 -0.37448,-4.11934 0,-9.87652 0,-14.28572 0,-2.38095 0,-4.7619 0,-7.14286 0,-0.95238 -0.18678,-1.92325 0,-2.85714 2.67215,-13.36076 0.13403,0.89248 2.85714,-10 0.1155,-0.46197 -0.21295,-1.00265 0,-1.42857 0.30117,-0.60234 1.12741,-0.82623 1.42858,-1.42857 0.21295,-0.42592 -0.21296,-1.00266 0,-1.42857 0.30117,-0.60234 0.86824,-1.05502 1.42857,-1.42857 2.36682,-1.57788 3.24456,-1.42858 5.71428,-1.42858 2.38096,0 4.76191,0 7.14286,0 0.47619,0 0.95238,0 1.42857,0 0.47619,0 1.00266,-0.21296 1.42857,0 1.20468,0.60234 1.65247,2.25481 2.85715,2.85715 0.42591,0.21296 1.00265,-0.21296 1.42857,0 1.20467,0.60234 1.57939,2.43122 2.85714,2.85714 0.90351,0.30117 1.95364,-0.30117 2.85714,0 0.96736,0.32245 3.19445,3.74008 4.28572,4.28571 0.89789,0.44895 4.81639,-0.44894 5.71428,0 0.60234,0.30117 0.82624,1.12741 1.42857,1.42858 0.36936,0.18467 7.55886,0 8.57143,0 0.67357,0 7.07811,0.0647 7.14286,0 0.33672,-0.33672 -0.33672,-1.09186 0,-1.42858 0.33672,-0.33671 0.95238,0 1.42857,0 0.47619,-0.47619 1.05502,-0.86824 1.42857,-1.42857 0.59064,-0.88596 0.7897,-2.00531 1.42857,-2.85714 1.21219,-1.61624 3.16506,-2.60472 4.28572,-4.28571 4.81124,-7.21687 0.011,-0.0331 1.42857,-4.28572 0.67344,-2.0203 2.34064,-3.64828 2.85714,-5.71428 0.23099,-0.92395 -0.18677,-1.92326 0,-2.85715 1.48635,-7.43171 0.95238,-1.42857 2.85715,-7.14285 0.62087,-1.86263 0.88918,-3.82645 1.42857,-5.71429 0.41369,-1.44791 1.06335,-2.82483 1.42857,-4.28571 0.29317,-1.17271 -0.41996,-4.87437 0,-5.71429 3.269,-6.53801 -0.5921,6.06202 2.85714,-4.28571 0.30117,-0.90351 -0.67343,-2.18371 0,-2.85715 0.33672,-0.33672 1.09186,0.33672 1.42857,0 0.33672,-0.33672 0,-0.95238 0,-1.42857 0,-0.95238 -0.42591,-2.00531 0,-2.85714 0.21296,-0.42592 1.00266,0.21296 1.42857,0 5.94538,-2.97269 -1.52719,0.0986 1.42858,-2.85714 0.33671,-0.33672 1.09185,0.33671 1.42857,0 0.33672,-0.33672 -0.33672,-1.09186 0,-1.42858 0.0647,-0.0647 6.46929,0 7.14285,0 0.98646,0 5.27995,-0.21716 5.71429,0 0.60234,0.30117 0.82623,1.12741 1.42857,1.42858 0.63568,0.31784 5.06088,-0.21781 5.71429,0 0.63887,0.21295 0.82623,1.1274 1.42857,1.42857 0.42592,0.21296 1.00265,-0.21296 1.42857,0 0.60234,0.30117 0.7897,1.21561 1.42857,1.42857 9.80702,3.269 -6.65412,-5.46992 7.14286,1.42857 0.60234,0.30117 0.78969,1.21561 1.42857,1.42857 0.90351,0.30117 1.9332,-0.23099 2.85714,0 6.898497,1.72462 -0.0708,0.67889 4.28572,2.85714 0.425917,0.21296 1.002647,-0.21296 1.428567,0 0.60234,0.30117 0.78969,1.21562 1.42857,1.42858 0.90351,0.30116 2.00531,-0.42592 2.85714,0 0.42592,0.21295 -0.33671,1.09185 0,1.42857 0.67344,0.67343 2.18371,-0.67344 2.85715,0 0.33671,0.33671 -0.33672,1.09185 0,1.42857 0.33671,0.33672 0.95238,0 1.42857,0 0.47619,0 0.95238,0 1.42857,0 0.47619,0 0.95238,0 1.42857,0 0.47619,0 1.21561,0.42592 1.42857,0 0.42592,-0.85184 0,-1.90476 0,-2.85714 0,-2.85715 0,-5.71429 0,-8.57143 0,-0.47619 -0.21296,-1.00266 0,-1.42857 0.30117,-0.60234 1.1274,-0.82624 1.42857,-1.42858 0.21296,-0.42591 -0.33671,-1.09185 0,-1.42857 0.33672,-0.33672 1.09186,0.33672 1.42857,0 0.33672,-0.33672 -0.15058,-0.97682 0,-1.42857 0.33672,-1.01015 0.88074,-1.94409 1.42858,-2.85714 0.88335,-1.47226 2.0893,-2.75005 2.85714,-4.28572 0.57143,-1.14285 -0.57143,-3.14285 0,-4.28571 2.97269,-5.94537 -0.0986,1.52719 2.85714,-1.42857 0.67344,-0.67344 -0.42592,-2.00531 0,-2.85714 1.09399,-2.18797 2.54574,-1.11717 4.28572,-2.85715 5.57533,-5.57533 -0.33068,-0.76721 1.42857,-4.28571 0.30117,-0.60234 1.1274,-0.82623 1.42857,-1.42857 0.21296,-0.42592 -0.21296,-1.00266 0,-1.42857 0.30117,-0.60234 0.95238,-0.95239 1.42857,-1.42858 0.95238,-0.95238 2.11003,-1.73648 2.85714,-2.85714 0.39099,-0.58648 -0.38949,-4.9353 0,-5.71428 0.30117,-0.60234 1.12741,-0.82624 1.42857,-1.42858 0.45063,-0.90124 -0.45062,-6.24161 0,-7.14285 0.30117,-0.60234 1.21562,-0.7897 1.42858,-1.42857 0.30117,-0.90351 -0.42592,-2.00531 0,-2.85715 0.21295,-0.42592 1.09185,0.33672 1.42857,0 0.67343,-0.67343 -0.42592,-2.00531 0,-2.85714 0.30117,-0.60234 1.1274,-0.82623 1.42857,-1.42857 0.21296,-0.42592 -0.21296,-1.00266 0,-1.42857 2.97269,-5.94538 -0.0986,1.52719 2.85714,-1.42857 0.67344,-0.67344 -0.67343,-2.18371 0,-2.85715 0.33672,-0.33672 0.95238,0 1.42857,0 1.42857,0 2.85715,0 4.28572,0 2.38095,0 4.7619,0 7.14285,0 0.4762,0 1.09186,-0.33672 1.42858,0 0.33671,0.33672 -0.33672,1.09186 0,1.42857 0.33671,0.33672 1.00265,-0.21296 1.42857,0 0.60234,0.30117 0.82623,1.12741 1.42857,1.42858 0.77498,0.38749 5.3234,-0.39089 5.71428,0 0.33672,0.33671 -0.33671,1.09185 0,1.42857 0.33672,0.33671 1.09186,-0.33672 1.42858,0 0.33671,0.33671 -0.33672,1.09185 0,1.42857 0.71428,0.71428 3.57142,-0.71429 4.28571,0 0.33672,0.33672 -0.42592,1.21561 0,1.42857 0.41799,0.209 7.402153,0 8.571433,0 1.01257,0 8.20207,0.18468 8.57143,0 0.60234,-0.30117 0.95238,-0.95238 1.42857,-1.42857 0.47619,-0.47619 1.21561,-0.7897 1.42857,-1.42857 0.30117,-0.90351 -0.42592,-2.00531 0,-2.85715 0.21296,-0.42591 1.09185,0.33672 1.42857,0 0.33672,-0.33671 -0.21296,-1.00265 0,-1.42857 0.30117,-0.60234 1.1274,-0.82623 1.42857,-1.42857 0.21296,-0.42592 -0.33671,-1.09185 0,-1.42857 0.33672,-0.33672 1.00266,0.21296 1.42857,0 0.60234,-0.30117 0.82624,-1.1274 1.42858,-1.42857 0.43476,-0.21738 3.64234,0 4.28571,0"
       id="path20366"
       inkscape:connector-curvature="0" />
    <rect
       style="fill:#0000ff;fill-opacity:1;stroke:none"
       id="rect11528-9-54-2-7-8"
       width="27.57905"
       height="11.89665"
       x="292.3949"
       y="554.04938"
       transform="matrix(0.98290835,-0.18409556,-0.14430903,0.98953267,0,0)"
       inkscape:transform-center-x="34.288774" />
    <rect
       style="fill:#0000ff;fill-opacity:1;stroke:none"
       id="rect11528-9-54-3-4-1-6"
       width="14.474707"
       height="11.803384"
       x="235.53621"
       y="446.7959"
       transform="matrix(0.93646454,-0.35076225,-0.07273115,0.99735158,0,0)"
       inkscape:transform-center-x="17.145894"
       inkscape:transform-center-y="-3.0126401e-005" />
    <rect
       style="fill:#0000ff;fill-opacity:1;stroke:none"
       id="rect11528-9-54-3-4-1-69"
       width="14.474707"
       height="11.803384"
       x="240.19252"
       y="487.10742"
       transform="matrix(0.93646454,-0.35076225,-0.07273115,0.99735158,0,0)"
       inkscape:transform-center-x="17.145894"
       inkscape:transform-center-y="-3.0126401e-005" />
    <rect
       style="fill:#0000ff;fill-opacity:1;stroke:none"
       id="rect11528-9-54-3-4-1-9"
       width="14.474707"
       height="11.803384"
       x="220.09749"
       y="385.50403"
       transform="matrix(0.93646454,-0.35076225,-0.07273115,0.99735158,0,0)"
       inkscape:transform-center-x="17.145894"
       inkscape:transform-center-y="-3.0126401e-005" />
    <rect
       style="fill:#0000ff;fill-opacity:1;stroke:none"
       id="rect11528-9-54-3-4-1-2"
       width="14.474707"
       height="11.803384"
       x="246.4006"
       y="504.18732"
       transform="matrix(0.93646454,-0.35076225,-0.07273115,0.99735158,0,0)"
       inkscape:transform-center-x="17.145894"
       inkscape:transform-center-y="-3.0126401e-005" />
    <rect
       style="fill:#0000ff;fill-opacity:1;stroke:none"
       id="rect11528-9-54-2-7-8-6"
       width="27.57905"
       height="11.89665"
       x="280.31628"
       y="511.38104"
       transform="matrix(0.98290835,-0.18409556,-0.14430903,0.98953267,0,0)"
       inkscape:transform-center-x="34.288774" />
    <rect
       style="fill:#0000ff;fill-opacity:1;stroke:none"
       id="rect11528-9-54-2-7-8-6-6"
       width="27.57905"
       height="11.89665"
       x="268.92279"
       y="483.27502"
       transform="matrix(0.98290835,-0.18409556,-0.14430903,0.98953267,0,0)"
       inkscape:transform-center-x="34.288774" />
    <rect
       style="fill:#00ff00;fill-opacity:1;stroke:none"
       id="rect11528-9-54-0-5-84-0"
       width="27.57905"
       height="11.89665"
       x="281.43707"
       y="528.91235"
       transform="matrix(0.98290835,-0.18409556,-0.14430903,0.98953267,0,0)"
       inkscape:transform-center-x="34.288774" />
    <rect
       style="fill:#00ff00;fill-opacity:1;stroke:none"
       id="rect11528-9-54-0-5-84-3"
       width="18.416946"
       height="11.825396"
       x="237.99223"
       y="439.15469"
       transform="matrix(0.96124952,-0.27567982,-0.09481215,0.99549518,0,0)"
       inkscape:transform-center-x="22.393058"
       inkscape:transform-center-y="1.8664952e-005" />
    <rect
       style="fill:#00ff00;fill-opacity:1;stroke:none"
       id="rect11528-9-54-0-5-84-7"
       width="42.192608"
       height="12.067309"
       x="263.68973"
       y="353.36954"
       transform="matrix(0.99273353,-0.12033342,-0.21982876,0.97553848,0,0)"
       inkscape:transform-center-x="52.982031" />
    <rect
       style="fill:#00ff00;fill-opacity:1;stroke:none"
       id="rect11528-9-54-0-5-84-8"
       width="14.585058"
       height="11.803929"
       x="211.21605"
       y="350.32227"
       transform="matrix(0.9374543,-0.34810836,-0.0733597,0.99730555,0,0)"
       inkscape:transform-center-x="17.294885"
       inkscape:transform-center-y="2.2295154e-005" />
    <rect
       style="fill:#00ff00;fill-opacity:1;stroke:none"
       id="rect11528-9-54-0-5-84-7-3"
       width="21.012857"
       height="11.842742"
       x="243.57433"
       y="445.93448"
       transform="matrix(0.9703703,-0.24162259,-0.10904261,0.99403708,0,0)"
       inkscape:transform-center-x="25.791812" />
    <rect
       style="fill:#00ff00;fill-opacity:1;stroke:none"
       id="rect11528-9-54-0-5-84-0-1"
       width="27.57905"
       height="11.89665"
       x="287.04053"
       y="547.27856"
       transform="matrix(0.98290835,-0.18409556,-0.14430903,0.98953267,0,0)"
       inkscape:transform-center-x="34.288774" />
    <rect
       style="fill:#00ff00;fill-opacity:1;stroke:none"
       id="rect11528-9-54-0-5-84-0-12"
       width="27.57905"
       height="11.89665"
       x="272.28479"
       y="466.57635"
       transform="matrix(0.98290835,-0.18409556,-0.14430903,0.98953267,0,0)"
       inkscape:transform-center-x="34.288774" />
    <rect
       style="fill:#00ff00;fill-opacity:1;stroke:none"
       id="rect11528-9-54-0-5-84-0-5"
       width="27.57905"
       height="11.89665"
       x="248.19031"
       y="401.45905"
       transform="matrix(0.98290835,-0.18409556,-0.14430903,0.98953267,0,0)"
       inkscape:transform-center-x="34.288774" />
    <text
       xml:space="preserve"
       style="font-size:40px;font-style:normal;font-variant:normal;font-weight:normal;font-stretch:normal;text-align:start;line-height:125%;letter-spacing:0px;word-spacing:0px;writing-mode:lr-tb;text-anchor:start;fill:#000000;fill-opacity:1;stroke:none;font-family:Sans;-inkscape-font-specification:Sans"
       x="-145.04074"
       y="217.49179"
       id="text20667-7"
       sodipodi:linespacing="125%"><tspan
         sodipodi:role="line"
         id="tspan20669-6"
         x="-145.04074"
         y="217.49179">Two chains</tspan></text>
    <path
       style="fill:none;stroke:#ff0000;stroke-width:2.51999998;stroke-linecap:butt;stroke-linejoin:miter;stroke-miterlimit:4;stroke-opacity:1;stroke-dasharray:none"
       d="m 427.85714,783.76424 c 4.32528,-2.90994 4.78243,-2.85715 8.57142,-2.85715 0.95239,0 1.9332,0.23099 2.85715,0 2.77869,-0.69467 5.79274,-2.16247 8.57143,-2.85714 1.21724,-0.30431 3.0262,0 4.28571,0 4.28571,0 8.57143,0 12.85714,0 2.38096,0 4.76191,0 7.14286,0 0.95238,0 1.90476,0 2.85714,0 0.47619,0 0.97682,-0.15059 1.42857,0 0.95239,0.47619 1.90477,0.95238 2.85715,1.42857 0.47619,0 0.97681,-0.15058 1.42857,0 1.01015,0.33672 1.84699,1.09185 2.85714,1.42857 0.45176,0.15059 1.00266,-0.21296 1.42857,0 1.20468,0.60234 1.65247,2.25481 2.85715,2.85715 0.42591,0.21295 1.09185,-0.33672 1.42857,0 0.33671,0.33671 -0.21296,1.00265 0,1.42857 0.30117,0.60234 1.1274,0.82623 1.42857,1.42857 0.21296,0.42592 -0.21296,1.00265 0,1.42857 0.30117,0.60234 1.1274,0.82623 1.42857,1.42857 0.21296,0.42592 0,0.95238 0,1.42857 0,0.47619 0,0.95238 0,1.42857 0,2.38096 0,4.76191 0,7.14286 0,2.85714 0,5.71429 0,8.57143 0,0.64337 -0.21738,3.85095 0,4.28571 0.30117,0.60234 1.1274,0.82624 1.42857,1.42858 0.57143,1.14285 -0.57143,3.14285 0,4.28571 0.30117,0.60234 1.1274,0.82623 1.42857,1.42857 0.21296,0.42592 -0.33671,1.09185 0,1.42857 0.33672,0.33672 1.09186,-0.33672 1.42857,0 0.33672,0.33672 -0.33671,1.09186 0,1.42857 0.33672,0.33672 1.09186,-0.33671 1.42858,0 0.33671,0.33672 -0.33672,1.09186 0,1.42858 0.33671,0.33671 0.95238,0 1.42857,0 0.47619,0 0.95238,0 1.42857,0 4.28571,0 8.57143,0 12.85714,0 0.47619,0 0.95238,0 1.42857,0 0.47619,0 1.09186,-0.33672 1.42857,0 0.33672,0.33671 -0.42591,1.21561 0,1.42857 0.85184,0.42591 1.95364,-0.30117 2.85715,0 0.63887,0.21296 0.86824,1.05501 1.42857,1.42857 0.88596,0.59064 1.84699,1.09185 2.85714,1.42857 0.45176,0.15058 0.95238,0 1.42857,0 1.42857,0.47619 2.93885,0.75514 4.28572,1.42857 0.60234,0.30117 0.82623,1.1274 1.42857,1.42857 0.42592,0.21296 0.9666,-0.11549 1.42857,0 1.46089,0.36522 2.80036,1.18101 4.28571,1.42857 1.40914,0.23486 2.85715,0 4.28572,0 2.85714,0 5.71428,0 8.57143,0 0.64337,0 3.85095,-0.21738 4.28571,0 0.60234,0.30117 0.82623,1.12741 1.42857,1.42858 0.89789,0.44894 4.8164,-0.44895 5.71429,0 0.60234,0.30116 0.82623,1.1274 1.42857,1.42857 0.42592,0.21296 1.00265,-0.21296 1.42857,0 0.3793,0.18965 4.09607,3.90641 4.28572,4.28571 0.21295,0.42592 -0.21296,1.00265 0,1.42857 2.97268,5.94537 -0.0986,-1.52719 2.85714,1.42857 0.33672,0.33672 -0.33672,1.09186 0,1.42858 0.33672,0.33671 1.09185,-0.33672 1.42857,0 0.67344,0.67343 -0.67343,2.1837 0,2.85714 0.33672,0.33672 1.09185,-0.33672 1.42857,0 0.34376,0.34376 -0.34376,5.37053 0,5.71428 0.33672,0.33672 1.09186,-0.33671 1.42857,0 0.67344,0.67344 -0.42591,2.00531 0,2.85715 2.97269,5.94537 -0.0986,-1.5272 2.85715,1.42857 0.67343,0.67343 -0.42592,2.00531 0,2.85714 0.30117,0.60234 1.05501,0.86824 1.42857,1.42857 0.59064,0.88596 0.67565,2.10422 1.42857,2.85715 0.33672,0.33671 1.09185,-0.33672 1.42857,0 0.33672,0.33671 -0.33672,1.09185 0,1.42857 0.33672,0.33671 1.09185,-0.33672 1.42857,0 0.75293,0.75292 0.67565,2.10422 1.42857,2.85714 0.33672,0.33672 1.09186,-0.33672 1.42857,0 0.33672,0.33672 -0.33671,1.09185 0,1.42857 0.33672,0.33672 1.03236,-0.26414 1.42858,0 1.12066,0.74711 1.73648,2.11003 2.85714,2.85714 0.39621,0.26415 1.09185,-0.33671 1.42857,0 0.33672,0.33672 -0.33672,1.09186 0,1.42858 0.67344,0.67343 2.18371,-0.67344 2.85714,0 0.33672,0.33671 -0.33671,1.09185 0,1.42857 0.33672,0.33671 1.00266,-0.21296 1.42857,0 0.60234,0.30117 0.82624,1.1274 1.42858,1.42857 0.43476,0.21738 3.64234,0 4.28571,0 2.85714,0 5.71429,0 8.57143,0 0.47619,0 0.95238,0 1.42857,0 0.47619,0 1.09185,0.33672 1.42857,0 0.33672,-0.33672 -0.33672,-1.09186 0,-1.42857 0.67344,-0.67344 2.00531,0.42591 2.85714,0 0.60234,-0.30117 0.82624,-1.12741 1.42858,-1.42857 0.75748,-0.37875 6.17099,0.32395 7.14285,0 0.63888,-0.21296 0.82624,-1.12741 1.42857,-1.42858 0.32019,-0.16009 5.37482,0 5.71429,0 0.95238,0 1.90476,0 2.85714,0 0.47619,0 1.00266,-0.21296 1.42857,0 0.60234,0.30117 0.82624,1.12741 1.42858,1.42858 0.42591,0.21295 1.09185,-0.33672 1.42857,0 0.33672,0.33671 -0.33672,1.09185 0,1.42857 0.33672,0.33671 1.00265,-0.21296 1.42857,0 1.88731,0.94365 0.96983,1.91348 2.85714,2.85714 0.42592,0.21296 1.00266,-0.21296 1.42857,0 0.3793,0.18965 4.09607,3.90641 4.28572,4.28571 0.42592,0.85184 -0.67344,2.18371 0,2.85715 0.33672,0.33671 1.09185,-0.33672 1.42857,0 0.67343,0.67343 -0.67344,2.1837 0,2.85714 0.33672,0.33672 1.09185,-0.33672 1.42857,0 0.67344,0.67343 -0.42592,2.00531 0,2.85714 0.30117,0.60234 1.1274,0.82624 1.42857,1.42857 0.28321,0.56642 -0.29205,3.99367 0,4.28572 0.33672,0.33672 1.09186,-0.33672 1.42857,0 0.67344,0.67343 -0.42591,2.00531 0,2.85714 0.60234,1.20468 2.25481,1.65247 2.85715,2.85714 0.21295,0.42592 -0.21296,1.00266 0,1.42858 0.60233,1.20467 2.2548,1.65246 2.85714,2.85714 0.21296,0.42592 -0.21296,1.00265 0,1.42857 0.30117,0.60234 1.1274,0.82623 1.42857,1.42857 0.21296,0.42592 -0.21296,1.00265 0,1.42857 0.94403,1.88806 1.91311,0.96909 2.85714,2.85715 0.21296,0.42591 -0.21296,1.00265 0,1.42857 0.30117,0.60234 1.12741,0.82623 1.42857,1.42857 0.42592,0.85183 -0.42591,2.00531 0,2.85714 0.30117,0.60234 1.12741,0.82623 1.42858,1.42857 0.21295,0.42592 -0.21296,1.00266 0,1.42857 2.97268,5.94538 -0.0986,-1.52719 2.85714,1.42858 0.67343,0.67343 -0.42592,2.0053 0,2.85714 0.30117,0.60234 0.95238,0.95238 1.42857,1.42857 0.47619,0.47619 0.82623,1.1274 1.42857,1.42857 0.56642,0.28321 3.99366,-0.29205 4.28572,0 0.33671,0.33672 -0.33672,1.09185 0,1.42857 0.33671,0.33672 0.95238,0 1.42857,0 0.47619,0 0.95238,0 1.42857,0 2.85714,0 5.71428,0 8.57143,0 1.42857,0 2.87658,0.23486 4.28571,0 1.48536,-0.24756 2.82483,-1.06335 4.28572,-1.42857 0.92394,-0.23099 1.90476,0 2.85714,0 2.85714,0 5.71428,0 8.57143,0 0.47619,0 0.95238,0 1.42857,0 0.47619,0 1.09185,-0.33672 1.42857,0 0.33672,0.33672 -0.33672,1.09185 0,1.42857 0.34376,0.34376 5.37053,-0.34376 5.71429,0 0.33671,0.33672 -0.33672,1.09186 0,1.42857 0.33671,0.33672 1.09185,-0.33671 1.42857,0 0.33672,0.33672 -0.33672,1.09186 0,1.42858 0.33672,0.33671 1.09185,-0.33672 1.42857,0 0.71428,0.71428 -0.71429,3.57142 0,4.28571 0.33672,0.33672 1.09185,-0.33672 1.42857,0 0.0648,0.0647 0,6.46929 0,7.14286 0,4.7619 0,9.52381 0,14.28571 0,1.15005 -0.29888,4.81764 0,5.71429 0.33672,1.01015 1.09185,1.84699 1.42857,2.85714 0.15059,0.45175 -0.33672,1.09185 0,1.42857 0.33672,0.33672 1.09186,-0.33672 1.42857,0 0.67344,0.67344 -0.42591,2.00531 0,2.85714 0.30117,0.60234 1.12741,0.82624 1.42857,1.42858 0.21296,0.42591 -0.33671,1.09185 0,1.42857 0.33672,0.33671 1.09186,-0.33672 1.42858,0 0.33671,0.33671 -0.33672,1.09185 0,1.42857 0.34375,0.34376 5.37052,-0.34376 5.71428,0 0.33672,0.33672 -0.33672,1.09185 0,1.42857 0.71429,0.71429 3.57143,-0.71429 4.28572,0 0.33671,0.33672 -0.33672,1.09185 0,1.42857 0.33671,0.33672 0.96659,-0.11549 1.42857,0 1.46088,0.36522 2.82483,1.06335 4.28571,1.42857 0.51854,0.12964 4.11072,-0.17499 4.28572,0 0.33671,0.33672 -0.42592,1.21561 0,1.42857 1.14285,0.57143 3.14285,-0.57142 4.28571,0 6.53801,3.26901 -6.06202,-0.5921 4.28571,2.85715 0.45176,0.15058 0.95239,0 1.42858,0 0.79736,0 6.4889,-0.21799 7.14285,0 0.63888,0.21296 0.82624,1.1274 1.42857,1.42857 0.42592,0.21296 1.00266,-0.21296 1.42858,0 0.60233,0.30117 0.82623,1.1274 1.42857,1.42857 0.42592,0.21296 1.00265,-0.21296 1.42857,0 0.60234,0.30117 0.95238,0.95238 1.42857,1.42857 0.47619,0.47619 1.1274,0.82623 1.42857,1.42857 0.21296,0.42592 -0.33672,1.09186 0,1.42857 0.33672,0.33672 1.09186,-0.33671 1.42857,0 0.67344,0.67344 -0.42591,2.00531 0,2.85715 0.30117,0.60234 1.12741,0.82623 1.42857,1.42857 0.18782,0.37563 0,4.96722 0,5.71432 0,3.8095 0,7.619 0,11.4285 0,0.6736 -0.0647,7.0781 0,7.1429 0.33672,0.3367 1.09186,-0.3367 1.42858,0 0.33671,0.3367 -0.33672,1.0918 0,1.4286 0.33671,0.3367 1.00265,-0.213 1.42857,0 0.60234,0.3011 0.82623,1.1274 1.42857,1.4285 0.85183,0.4259 2.18371,-0.6734 2.85714,0 0.67344,0.6735 -0.67343,2.1837 0,2.8572 0.33672,0.3367 0.95238,0 1.42857,0 0.47619,0 0.95238,0 1.42857,0 3.80953,0 7.61905,0 11.42858,0 0.47619,0 0.95238,0 1.42857,0 0.47619,0 1.09185,-0.3367 1.42857,0 0.33672,0.3367 -0.33672,1.0918 0,1.4285 0.33672,0.3368 0.95238,0 1.42857,0 0.47619,0 0.95238,0 1.42857,0"
       id="path20362-6"
       inkscape:connector-curvature="0"
       clip-path="url(#clipPath20911)"
       transform="translate(-80.857139,-472.06856)" />
    <path
       style="fill:none;stroke:#000000;stroke-width:2.51999998;stroke-linecap:butt;stroke-linejoin:miter;stroke-miterlimit:4;stroke-opacity:1;stroke-dasharray:none"
       d="m 440.71428,1028.0499 c 4.25918,-1.3755 -1.0648,-5.0132 0,-7.1428 3.269,-6.538 -0.5921,6.062 2.85714,-4.2857 1.84816,-5.5445 -5.99498,7.2769 1.42857,-5.7143 1.18129,-2.0673 2.965,-3.7332 4.28572,-5.7143 1.24578,-1.8687 4.23524,-9.77287 4.28571,-9.99999 0.4132,-1.85941 -0.21034,-3.82118 0,-5.71429 0.26814,-2.41325 1.08519,-4.73916 1.42857,-7.14286 0.13469,-0.94281 -0.23098,-1.93319 0,-2.85714 0.25825,-1.033 1.09186,-1.84699 1.42857,-2.85714 0.71429,-2.14286 -1.42857,-1.42857 0,-4.28572 0.60277,-1.20553 1.5144,1.25694 2.85715,-1.42857 0.28321,-0.56641 -0.29205,-3.99366 0,-4.28571 0.33671,-0.33672 1.09185,0.33672 1.42857,0 0.33672,-0.33672 -0.33672,-1.09186 0,-1.42857 0.33672,-0.33672 0.95238,0 1.42857,0 1.90476,0 3.80952,0 5.71429,0 0.47619,0 0.97681,-0.15059 1.42857,0 1.01015,0.33671 1.90476,0.95238 2.85714,1.42857 0.95238,0.47619 1.97118,0.83793 2.85714,1.42857 0.56033,0.37355 0.82624,1.1274 1.42857,1.42857 0.42592,0.21296 1.00266,-0.21296 1.42858,0 0.60233,0.30117 0.82623,1.1274 1.42857,1.42857 0.42592,0.21296 1.09185,-0.33672 1.42857,0 0.75292,0.75293 0.67565,2.10422 1.42857,2.85715 0.33672,0.33671 0.97682,-0.15059 1.42857,0 1.01015,0.33671 2.10422,0.67564 2.85714,1.42857 0.33672,0.33671 -0.21295,1.00265 0,1.42857 0.30117,0.60234 0.95239,0.95238 1.42858,1.42857 0.47619,0.47619 0.82623,1.1274 1.42857,1.42857 0.85183,0.42592 2.0053,-0.42592 2.85714,0 0.60234,0.30117 0.82623,1.1274 1.42857,1.42857 0.42592,0.21296 1.00266,-0.21296 1.42857,0 1.20468,0.60234 1.65247,2.25481 2.85715,2.85715 0.89788,0.44894 4.81639,-0.44895 5.71428,0 0.60234,0.30116 0.82623,1.1274 1.42857,1.42857 0.42592,0.21296 1.09186,-0.33672 1.42857,0 1.90477,1.90476 -2.38095,1.42857 1.42858,1.42857 3.35025,0 -0.67344,-0.33672 2.85714,1.42857 0.85183,0.42592 2.18371,-0.67344 2.85714,0 0.33672,0.33672 -0.33672,1.09185 0,1.42857 0.33672,0.33672 1.09186,0.33672 1.42857,0 0.33672,-0.33672 0,-0.95238 0,-1.42857 0,-1.13994 -0.28568,-6.2858 0,-7.14286 0.33672,-1.01015 1.17032,-1.82414 1.42857,-2.85714 0.46198,-1.84789 -0.60233,-3.90727 0,-5.71429 0.21296,-0.63887 1.12741,-0.82623 1.42858,-1.42857 0.21082,-0.42165 0,-8.52827 0,-10 0,-0.47619 0,-0.95238 0,-1.42857 0,-0.47619 -0.21296,-1.00265 0,-1.42857 0.30117,-0.60234 1.1274,-0.82623 1.42857,-1.42857 0.44894,-0.89789 -0.44895,-4.8164 0,-5.71429 2.97268,-5.94537 -0.0986,1.5272 2.85714,-1.42857 0.33672,-0.33672 -0.21296,-1.00265 0,-1.42857 0.30117,-0.60234 0.95238,-0.95238 1.42857,-1.42857 0.47619,-0.47619 0.82623,-1.1274 1.42857,-1.42857 0.42592,-0.21296 1.09186,0.33671 1.42857,0 2.95577,-2.95577 -4.5168,0.11554 1.42858,-2.85715 0.42591,-0.21296 0.95238,0 1.42857,0 2.38095,0 4.7619,0 7.14285,0 0.4762,0 0.95239,0 1.42858,0 0.47619,0 1.00265,0.21296 1.42857,0 0.60234,-0.30117 0.77524,-1.26524 1.42857,-1.42857 1.38592,-0.34648 2.85714,0 4.28571,0 2.85715,0 5.71429,0 8.57143,0 2.85714,0 5.71429,0 8.57143,0 0.95238,0 2.00531,-0.42592 2.85714,0 0.42592,0.21296 -0.33671,1.09186 0,1.42857 0.33672,0.33672 0.95238,0 1.42857,0 0.4762,0 0.95239,0 1.42858,0 4.28571,0 8.57142,0 12.85714,0 0.47619,0 0.95238,0 1.42857,0 0.47619,0 1.09185,0.33672 1.42857,0 0.33672,-0.33671 -0.33672,-1.09185 0,-1.42857 0.33672,-0.33672 1.09186,0.33672 1.42857,0 0.33672,-0.33672 -0.21296,-1.00265 0,-1.42857 0.30117,-0.60234 1.12741,-0.82623 1.42857,-1.42857 0.21739,-0.43476 0,-3.64235 0,-4.28571 0,-0.64628 0.19036,-8.19072 0,-8.57143 -0.30116,-0.60234 -1.1274,-0.82624 -1.42857,-1.42857 -0.21296,-0.42592 0.0674,-0.95717 0,-1.42858 -0.40963,-2.86744 -1.16633,-5.68677 -1.42857,-8.57142 -0.37448,-4.11934 0,-9.87652 0,-14.28572 0,-2.38095 0,-4.7619 0,-7.14286 0,-0.95238 -0.18678,-1.92325 0,-2.85714 2.67215,-13.36076 0.13403,0.89248 2.85714,-10 0.1155,-0.46197 -0.21295,-1.00265 0,-1.42857 0.30117,-0.60234 1.12741,-0.82623 1.42858,-1.42857 0.21295,-0.42592 -0.21296,-1.00266 0,-1.42857 0.30117,-0.60234 0.86824,-1.05502 1.42857,-1.42857 2.36682,-1.57788 3.24456,-1.42858 5.71428,-1.42858 2.38096,0 4.76191,0 7.14286,0 0.47619,0 0.95238,0 1.42857,0 0.47619,0 1.00266,-0.21296 1.42857,0 1.20468,0.60234 1.65247,2.25481 2.85715,2.85715 0.42591,0.21296 1.00265,-0.21296 1.42857,0 1.20467,0.60234 1.57939,2.43122 2.85714,2.85714 0.90351,0.30117 1.95364,-0.30117 2.85714,0 0.96736,0.32245 3.19445,3.74008 4.28572,4.28571 0.89789,0.44895 4.81639,-0.44894 5.71428,0 0.60234,0.30117 0.82624,1.12741 1.42857,1.42858 0.36936,0.18467 7.55886,0 8.57143,0 0.67357,0 7.07811,0.0647 7.14286,0 0.33672,-0.33672 -0.33672,-1.09186 0,-1.42858 0.33672,-0.33671 0.95238,0 1.42857,0 0.47619,-0.47619 1.05502,-0.86824 1.42857,-1.42857 0.59064,-0.88596 0.7897,-2.00531 1.42857,-2.85714 1.21219,-1.61624 3.16506,-2.60472 4.28572,-4.28571 4.81124,-7.21687 0.011,-0.0331 1.42857,-4.28572 0.67344,-2.0203 2.34064,-3.64828 2.85714,-5.71428 0.23099,-0.92395 -0.18677,-1.92326 0,-2.85715 1.48635,-7.43171 0.95238,-1.42857 2.85715,-7.14285 0.62087,-1.86263 0.88918,-3.82645 1.42857,-5.71429 0.41369,-1.44791 1.06335,-2.82483 1.42857,-4.28571 0.29317,-1.17271 -0.41996,-4.87437 0,-5.71429 3.269,-6.53801 -0.5921,6.06202 2.85714,-4.28571 0.30117,-0.90351 -0.67343,-2.18371 0,-2.85715 0.33672,-0.33672 1.09186,0.33672 1.42857,0 0.33672,-0.33672 0,-0.95238 0,-1.42857 0,-0.95238 -0.42591,-2.00531 0,-2.85714 0.21296,-0.42592 1.00266,0.21296 1.42857,0 5.94538,-2.97269 -1.52719,0.0986 1.42858,-2.85714 0.33671,-0.33672 1.09185,0.33671 1.42857,0 0.33672,-0.33672 -0.33672,-1.09186 0,-1.42858 0.0647,-0.0647 6.46929,0 7.14285,0 0.98646,0 5.27995,-0.21716 5.71429,0 0.60234,0.30117 0.82623,1.12741 1.42857,1.42858 0.63568,0.31784 5.06088,-0.21781 5.71429,0 0.63887,0.21295 0.82623,1.1274 1.42857,1.42857 0.42592,0.21296 1.00265,-0.21296 1.42857,0 0.60234,0.30117 0.7897,1.21561 1.42857,1.42857 9.80702,3.269 -6.65412,-5.46992 7.14286,1.42857 0.60234,0.30117 0.78969,1.21561 1.42857,1.42857 0.90351,0.30117 1.9332,-0.23099 2.85714,0 6.8985,1.72462 -0.0708,0.67889 4.28572,2.85714 0.42592,0.21296 1.00265,-0.21296 1.42857,0 0.60234,0.30117 0.78969,1.21562 1.42857,1.42858 0.90351,0.30116 2.00531,-0.42592 2.85714,0 0.42592,0.21295 -0.33671,1.09185 0,1.42857 0.67344,0.67343 2.18371,-0.67344 2.85715,0 0.33671,0.33671 -0.33672,1.09185 0,1.42857 0.33671,0.33672 0.95238,0 1.42857,0 0.47619,0 0.95238,0 1.42857,0 0.47619,0 0.95238,0 1.42857,0 0.47619,0 1.21561,0.42592 1.42857,0 0.42592,-0.85184 0,-1.90476 0,-2.85714 0,-2.85715 0,-5.71429 0,-8.57143 0,-0.47619 -0.21296,-1.00266 0,-1.42857 0.30117,-0.60234 1.1274,-0.82624 1.42857,-1.42858 0.21296,-0.42591 -0.33671,-1.09185 0,-1.42857 0.33672,-0.33672 1.09186,0.33672 1.42857,0 0.33672,-0.33672 -0.15058,-0.97682 0,-1.42857 0.33672,-1.01015 0.88074,-1.94409 1.42858,-2.85714 0.88335,-1.47226 2.0893,-2.75005 2.85714,-4.28572 0.57143,-1.14285 -0.57143,-3.14285 0,-4.28571 2.97269,-5.94537 -0.0986,1.52719 2.85714,-1.42857 0.67344,-0.67344 -0.42592,-2.00531 0,-2.85714 1.09399,-2.18797 2.54574,-1.11717 4.28572,-2.85715 5.57533,-5.57533 -0.33068,-0.76721 1.42857,-4.28571 0.30117,-0.60234 1.1274,-0.82623 1.42857,-1.42857 0.21296,-0.42592 -0.21296,-1.00266 0,-1.42857 0.30117,-0.60234 0.95238,-0.95239 1.42857,-1.42858 0.95238,-0.95238 2.11003,-1.73648 2.85714,-2.85714 0.39099,-0.58648 -0.38949,-4.9353 0,-5.71428 0.30117,-0.60234 1.12741,-0.82624 1.42857,-1.42858 0.45063,-0.90124 -0.45062,-6.24161 0,-7.14285 0.30117,-0.60234 1.21562,-0.7897 1.42858,-1.42857 0.30117,-0.90351 -0.42592,-2.00531 0,-2.85715 0.21295,-0.42592 1.09185,0.33672 1.42857,0 0.67343,-0.67343 -0.42592,-2.00531 0,-2.85714 0.30117,-0.60234 1.1274,-0.82623 1.42857,-1.42857 0.21296,-0.42592 -0.21296,-1.00266 0,-1.42857 2.97269,-5.94538 -0.0986,1.52719 2.85714,-1.42857 0.67344,-0.67344 -0.67343,-2.18371 0,-2.85715 0.33672,-0.33672 0.95238,0 1.42857,0 1.42857,0 2.85715,0 4.28572,0 2.38095,0 4.7619,0 7.14285,0 0.4762,0 1.09186,-0.33672 1.42858,0 0.33671,0.33672 -0.33672,1.09186 0,1.42857 0.33671,0.33672 1.00265,-0.21296 1.42857,0 0.60234,0.30117 0.82623,1.12741 1.42857,1.42858 0.77498,0.38749 5.3234,-0.39089 5.71428,0 0.33672,0.33671 -0.33671,1.09185 0,1.42857 0.33672,0.33671 1.09186,-0.33672 1.42858,0 0.33671,0.33671 -0.33672,1.09185 0,1.42857 0.71428,0.71428 3.57142,-0.71429 4.28571,0 0.33672,0.33672 -0.42592,1.21561 0,1.42857 0.41799,0.209 7.40215,0 8.57143,0 1.01257,0 8.20207,0.18468 8.57143,0 0.60234,-0.30117 0.95238,-0.95238 1.42857,-1.42857 0.47619,-0.47619 1.21561,-0.7897 1.42857,-1.42857 0.30117,-0.90351 -0.42592,-2.00531 0,-2.85715 0.21296,-0.42591 1.09185,0.33672 1.42857,0 0.33672,-0.33671 -0.21296,-1.00265 0,-1.42857 0.30117,-0.60234 1.1274,-0.82623 1.42857,-1.42857 0.21296,-0.42592 -0.33671,-1.09185 0,-1.42857 0.33672,-0.33672 1.00266,0.21296 1.42857,0 0.60234,-0.30117 0.82624,-1.1274 1.42858,-1.42857 0.43476,-0.21738 3.64234,0 4.28571,0"
       id="path20366-1"
       inkscape:connector-curvature="0"
       clip-path="url(#clipPath20907)"
       transform="translate(-78.857139,-476.06856)" />
    <path
       style="fill:none;stroke:#0000ff;stroke-width:2.51999998;stroke-linecap:butt;stroke-linejoin:miter;stroke-miterlimit:4;stroke-opacity:1;stroke-dasharray:none"
       d="m 427.85714,755.19281 c 4.32528,-2.90994 4.78243,-2.85715 8.57142,-2.85715 0.95239,0 1.9332,0.23099 2.85715,0 2.77869,-0.69467 5.79274,-2.16247 8.57143,-2.85714 1.21724,-0.30431 3.0262,0 4.28571,0 4.28571,0 8.57143,0 12.85714,0 2.38096,0 4.76191,0 7.14286,0 0.95238,0 1.90476,0 2.85714,0 0.47619,0 0.97682,-0.15059 1.42857,0 0.95239,0.47619 1.90477,0.95238 2.85715,1.42857 0.47619,0 0.97681,-0.15058 1.42857,0 1.01015,0.33672 1.84699,1.09185 2.85714,1.42857 0.45176,0.15059 1.00266,-0.21296 1.42857,0 1.20468,0.60234 1.65247,2.25481 2.85715,2.85715 0.42591,0.21295 1.09185,-0.33672 1.42857,0 0.33671,0.33671 -0.21296,1.00265 0,1.42857 0.30117,0.60234 1.1274,0.82623 1.42857,1.42857 0.21296,0.42592 -0.21296,1.00265 0,1.42857 0.30117,0.60234 1.1274,0.82623 1.42857,1.42857 0.21296,0.42592 0,0.95238 0,1.42857 0,0.47619 0,0.95238 0,1.42857 0,2.38096 0,4.76191 0,7.14286 0,2.85714 0,5.71429 0,8.57143 0,0.64337 -0.21738,3.85095 0,4.28571 0.30117,0.60234 1.1274,0.82624 1.42857,1.42858 0.57143,1.14285 -0.57143,3.14285 0,4.28571 0.30117,0.60234 1.1274,0.82623 1.42857,1.42857 0.21296,0.42592 -0.33671,1.09185 0,1.42857 0.33672,0.33672 1.09186,-0.33672 1.42857,0 0.33672,0.33672 -0.33671,1.09186 0,1.42857 0.33672,0.33672 1.09186,-0.33671 1.42858,0 0.33671,0.33672 -0.33672,1.09186 0,1.42858 0.33671,0.33671 0.95238,0 1.42857,0 0.47619,0 0.95238,0 1.42857,0 4.28571,0 8.57143,0 12.85714,0 0.47619,0 0.95238,0 1.42857,0 0.47619,0 1.09186,-0.33672 1.42857,0 0.33672,0.33671 -0.42591,1.21561 0,1.42857 0.85184,0.42591 1.95364,-0.30117 2.85715,0 0.63887,0.21296 0.86824,1.05501 1.42857,1.42857 0.88596,0.59064 1.84699,1.09185 2.85714,1.42857 0.45176,0.15058 0.95238,0 1.42857,0 1.42857,0.47619 2.93885,0.75514 4.28572,1.42857 0.60234,0.30117 0.82623,1.1274 1.42857,1.42857 0.42592,0.21296 0.9666,-0.11549 1.42857,0 1.46089,0.36522 2.80036,1.18101 4.28571,1.42857 1.40914,0.23486 2.85715,0 4.28572,0 2.85714,0 5.71428,0 8.57143,0 0.64337,0 3.85095,-0.21738 4.28571,0 0.60234,0.30117 0.82623,1.12741 1.42857,1.42858 0.89789,0.44894 4.8164,-0.44895 5.71429,0 0.60234,0.30116 0.82623,1.1274 1.42857,1.42857 0.42592,0.21296 1.00265,-0.21296 1.42857,0 0.3793,0.18965 4.09607,3.90641 4.28572,4.28571 0.21295,0.42592 -0.21296,1.00265 0,1.42857 2.97268,5.94537 -0.0986,-1.52719 2.85714,1.42857 0.33672,0.33672 -0.33672,1.09186 0,1.42858 0.33672,0.33671 1.09185,-0.33672 1.42857,0 0.67344,0.67343 -0.67343,2.1837 0,2.85714 0.33672,0.33672 1.09185,-0.33672 1.42857,0 0.34376,0.34376 -0.34376,5.37053 0,5.71428 0.33672,0.33672 1.09186,-0.33671 1.42857,0 0.67344,0.67344 -0.42591,2.00531 0,2.85715 2.97269,5.94537 -0.0986,-1.5272 2.85715,1.42857 0.67343,0.67343 -0.42592,2.00531 0,2.85714 0.30117,0.60234 1.05501,0.86824 1.42857,1.42857 0.59064,0.88596 0.67565,2.10422 1.42857,2.85715 0.33672,0.33671 1.09185,-0.33672 1.42857,0 0.33672,0.33671 -0.33672,1.09185 0,1.42857 0.33672,0.33671 1.09185,-0.33672 1.42857,0 0.75293,0.75292 0.67565,2.10422 1.42857,2.85714 0.33672,0.33672 1.09186,-0.33672 1.42857,0 0.33672,0.33672 -0.33671,1.09185 0,1.42857 0.33672,0.33672 1.03236,-0.26414 1.42858,0 1.12066,0.74711 1.73648,2.11003 2.85714,2.85714 0.39621,0.26415 1.09185,-0.33671 1.42857,0 0.33672,0.33672 -0.33672,1.09186 0,1.42858 0.67344,0.67343 2.18371,-0.67344 2.85714,0 0.33672,0.33671 -0.33671,1.09185 0,1.42857 0.33672,0.33671 1.00266,-0.21296 1.42857,0 0.60234,0.30117 0.82624,1.1274 1.42858,1.42857 0.43476,0.21738 3.64234,0 4.28571,0 2.85714,0 5.71429,0 8.57143,0 0.47619,0 0.95238,0 1.42857,0 0.47619,0 1.09185,0.33672 1.42857,0 0.33672,-0.33672 -0.33672,-1.09186 0,-1.42857 0.67344,-0.67344 2.00531,0.42591 2.85714,0 0.60234,-0.30117 0.82624,-1.12741 1.42858,-1.42857 0.75748,-0.37875 6.17099,0.32395 7.14285,0 0.63888,-0.21296 0.82624,-1.12741 1.42857,-1.42858 0.32019,-0.16009 5.37482,0 5.71429,0 0.95238,0 1.90476,0 2.85714,0 0.47619,0 1.00266,-0.21296 1.42857,0 0.60234,0.30117 0.82624,1.12741 1.42858,1.42858 0.42591,0.21295 1.09185,-0.33672 1.42857,0 0.33672,0.33671 -0.33672,1.09185 0,1.42857 0.33672,0.33671 1.00265,-0.21296 1.42857,0 1.88731,0.94365 0.96983,1.91348 2.85714,2.85714 0.42592,0.21296 1.00266,-0.21296 1.42857,0 0.3793,0.18965 4.09607,3.90641 4.28572,4.28571 0.42592,0.85184 -0.67344,2.18371 0,2.85715 0.33672,0.33671 1.09185,-0.33672 1.42857,0 0.67343,0.67343 -0.67344,2.1837 0,2.85714 0.33672,0.33672 1.09185,-0.33672 1.42857,0 0.67344,0.67343 -0.42592,2.00531 0,2.85714 0.30117,0.60234 1.1274,0.82624 1.42857,1.42857 0.28321,0.56642 -0.29205,3.99367 0,4.28572 0.33672,0.33672 1.09186,-0.33672 1.42857,0 0.67344,0.67343 -0.42591,2.00531 0,2.85714 0.60234,1.20468 2.25481,1.65247 2.85715,2.85714 0.21295,0.42592 -0.21296,1.00266 0,1.42858 0.60233,1.20467 2.2548,1.65246 2.85714,2.85714 0.21296,0.42592 -0.21296,1.00265 0,1.42857 0.30117,0.60234 1.1274,0.82623 1.42857,1.42857 0.21296,0.42592 -0.21296,1.00265 0,1.42857 0.94403,1.88806 1.91311,0.96909 2.85714,2.85715 0.21296,0.42591 -0.21296,1.00265 0,1.42857 0.30117,0.60234 1.12741,0.82623 1.42857,1.42857 0.42592,0.85183 -0.42591,2.00531 0,2.85714 0.30117,0.60234 1.12741,0.82623 1.42858,1.42857 0.21295,0.42592 -0.21296,1.00266 0,1.42857 2.97268,5.94538 -0.0986,-1.52719 2.85714,1.42858 0.67343,0.67343 -0.42592,2.0053 0,2.85714 0.30117,0.60234 0.95238,0.95238 1.42857,1.42857 0.47619,0.47619 0.82623,1.1274 1.42857,1.42857 0.56642,0.28321 3.99366,-0.29205 4.28572,0 0.33671,0.33672 -0.33672,1.09185 0,1.42857 0.33671,0.33672 0.95238,0 1.42857,0 0.47619,0 0.95238,0 1.42857,0 2.85714,0 5.71428,0 8.57143,0 1.42857,0 2.87658,0.23486 4.28571,0 1.48536,-0.24756 2.82483,-1.06335 4.28572,-1.42857 0.92394,-0.23099 1.90476,0 2.85714,0 2.85714,0 5.71428,0 8.57143,0 0.47619,0 0.95238,0 1.42857,0 0.47619,0 1.09185,-0.33672 1.42857,0 0.33672,0.33672 -0.33672,1.09185 0,1.42857 0.34376,0.34376 5.37053,-0.34376 5.71429,0 0.33671,0.33672 -0.33672,1.09186 0,1.42857 0.33671,0.33672 1.09185,-0.33671 1.42857,0 0.33672,0.33672 -0.33672,1.09186 0,1.42858 0.33672,0.33671 1.09185,-0.33672 1.42857,0 0.71428,0.71428 -0.71429,3.57142 0,4.28571 0.33672,0.33672 1.09185,-0.33672 1.42857,0 0.0648,0.0647 0,6.46929 0,7.14286 0,4.7619 0,9.52381 0,14.28571 0,1.15005 -0.29888,4.81764 0,5.71429 0.33672,1.01015 1.09185,1.84699 1.42857,2.85714 0.15059,0.45175 -0.33672,1.09188 0,1.42858 0.33672,0.3367 1.09186,-0.3367 1.42857,0 0.67344,0.6734 -0.42591,2.0053 0,2.8571 0.30117,0.6024 1.12741,0.8263 1.42857,1.4286 0.21296,0.4259 -0.33671,1.0919 0,1.4286 0.33672,0.3367 1.09186,-0.3367 1.42858,0 0.33671,0.3367 -0.33672,1.0918 0,1.4285 0.34375,0.3438 5.37052,-0.3437 5.71428,0 0.33672,0.3368 -0.33672,1.0919 0,1.4286 0.71429,0.7143 3.57143,-0.7143 4.28572,0 0.33671,0.3367 -0.33672,1.0919 0,1.4286 0.33671,0.3367 0.96659,-0.1155 1.42857,0 1.46088,0.3652 2.82483,1.0633 4.28571,1.4286 0.51854,0.1296 4.11072,-0.175 4.28572,0 0.33671,0.3367 -0.42592,1.2156 0,1.4285 1.14285,0.5715 3.14285,-0.5714 4.28571,0 6.53801,3.269 -6.06202,-0.5921 4.28571,2.8572 0.45176,0.1506 0.95239,0 1.42858,0 0.79736,0 6.4889,-0.218 7.14285,0 0.63888,0.2129 0.82624,1.1274 1.42857,1.4285 0.42592,0.213 1.00266,-0.2129 1.42858,0 0.60233,0.3012 0.82623,1.1274 1.42857,1.4286 0.42592,0.213 1.00265,-0.2129 1.42857,0 0.60234,0.3012 0.95238,0.9524 1.42857,1.4286 0.47619,0.4762 1.1274,0.8262 1.42857,1.4286 0.21296,0.4259 -0.33672,1.0918 0,1.4285 0.33672,0.3367 1.09186,-0.3367 1.42857,0 0.67344,0.6735 -0.42591,2.0053 0,2.8572 0.30117,0.6023 1.12741,0.8262 1.42857,1.4285 0.18782,0.3757 0,4.9673 0,5.7143 0,3.8096 0,7.6191 0,11.4286 0,0.6736 -0.0647,7.0781 0,7.1429 0.33672,0.3367 1.09186,-0.3368 1.42858,0 0.33671,0.3367 -0.33672,1.0918 0,1.4285 0.33671,0.3367 1.00265,-0.2129 1.42857,0 0.60234,0.3012 0.82623,1.1274 1.42857,1.4286 0.85183,0.4259 2.18371,-0.6734 2.85714,0 0.67344,0.6734 -0.67343,2.1837 0,2.8571 0.33672,0.3368 0.95238,0 1.42857,0 0.47619,0 0.95238,0 1.42857,0 3.80953,0 7.61905,0 11.42858,0 0.47619,0 0.95238,0 1.42857,0 0.47619,0 1.09185,-0.3367 1.42857,0 0.33672,0.3368 -0.33672,1.0919 0,1.4286 0.33672,0.3367 0.95238,0 1.42857,0 0.47619,0 0.95238,0 1.42857,0"
       id="path20362-1"
       inkscape:connector-curvature="0"
       clip-path="url(#clipPath20942)"
       transform="translate(-82.857142,-444.63999)" />
    <path
       style="fill:none;stroke:#00ff00;stroke-width:2.51999998;stroke-linecap:butt;stroke-linejoin:miter;stroke-miterlimit:4;stroke-opacity:1;stroke-dasharray:none"
       d="m 440.71428,999.4785 c 4.25918,-1.3755 -1.0648,-5.0133 0,-7.1428 3.269,-6.5381 -0.5921,6.062 2.85714,-4.2858 1.84816,-5.5444 -5.99498,7.277 1.42857,-5.7142 1.18129,-2.0673 2.965,-3.7333 4.28572,-5.7143 1.24578,-1.8687 4.23524,-9.7729 4.28571,-10 0.4132,-1.8594 -0.21034,-3.8212 0,-5.7143 0.26814,-2.4133 1.08519,-4.7392 1.42857,-7.1429 0.13469,-0.9428 -0.23098,-1.9332 0,-2.8571 0.25825,-1.033 1.09186,-1.847 1.42857,-2.8572 0.71429,-2.1428 -1.42857,-1.4285 0,-4.2857 0.60277,-1.2055 1.5144,1.257 2.85715,-1.4285 0.28321,-0.5665 -0.29205,-3.9937 0,-4.28575 0.33671,-0.33672 1.09185,0.33672 1.42857,0 0.33672,-0.33672 -0.33672,-1.09186 0,-1.42857 0.33672,-0.33672 0.95238,0 1.42857,0 1.90476,0 3.80952,0 5.71429,0 0.47619,0 0.97681,-0.15059 1.42857,0 1.01015,0.33671 1.90476,0.95238 2.85714,1.42857 0.95238,0.47619 1.97118,0.83793 2.85714,1.42857 0.56033,0.37355 0.82624,1.12738 1.42857,1.42858 0.42592,0.2129 1.00266,-0.213 1.42858,0 0.60233,0.3012 0.82623,1.1274 1.42857,1.4286 0.42592,0.2129 1.09185,-0.3368 1.42857,0 0.75292,0.7529 0.67565,2.1042 1.42857,2.8571 0.33672,0.3367 0.97682,-0.1506 1.42857,0 1.01015,0.3367 2.10422,0.6756 2.85714,1.4286 0.33672,0.3367 -0.21295,1.0026 0,1.4285 0.30117,0.6024 0.95239,0.9524 1.42858,1.4286 0.47619,0.4762 0.82623,1.1274 1.42857,1.4286 0.85183,0.4259 2.0053,-0.4259 2.85714,0 0.60234,0.3012 0.82623,1.1274 1.42857,1.4286 0.42592,0.2129 1.00266,-0.213 1.42857,0 1.20468,0.6023 1.65247,2.2548 2.85715,2.8571 0.89788,0.4489 4.81639,-0.4489 5.71428,0 0.60234,0.3012 0.82623,1.1274 1.42857,1.4286 0.42592,0.2129 1.09186,-0.3367 1.42857,0 1.90477,1.9047 -2.38095,1.4285 1.42858,1.4285 3.35025,0 -0.67344,-0.3367 2.85714,1.4286 0.85183,0.4259 2.18371,-0.6734 2.85714,0 0.33672,0.3367 -0.33672,1.0919 0,1.4286 0.33672,0.3367 1.09186,0.3367 1.42857,0 0.33672,-0.3367 0,-0.9524 0,-1.4286 0,-1.1399 -0.28568,-6.2858 0,-7.1428 0.33672,-1.0102 1.17032,-1.8242 1.42857,-2.8572 0.46198,-1.8479 -0.60233,-3.9073 0,-5.7143 0.21296,-0.6388 1.12741,-0.8262 1.42858,-1.4285 0.21082,-0.4217 0,-8.52831 0,-10.00004 0,-0.47619 0,-0.95238 0,-1.42857 0,-0.47619 -0.21296,-1.00265 0,-1.42857 0.30117,-0.60234 1.1274,-0.82623 1.42857,-1.42857 0.44894,-0.89789 -0.44895,-4.8164 0,-5.71429 2.97268,-5.94537 -0.0986,1.5272 2.85714,-1.42857 0.33672,-0.33672 -0.21296,-1.00265 0,-1.42857 0.30117,-0.60234 0.95238,-0.95238 1.42857,-1.42857 0.47619,-0.47619 0.82623,-1.1274 1.42857,-1.42857 0.42592,-0.21296 1.09186,0.33671 1.42857,0 2.95577,-2.95577 -4.5168,0.11554 1.42858,-2.85715 0.42591,-0.21296 0.95238,0 1.42857,0 2.38095,0 4.7619,0 7.14285,0 0.4762,0 0.95239,0 1.42858,0 0.47619,0 1.00265,0.21296 1.42857,0 0.60234,-0.30117 0.77524,-1.26524 1.42857,-1.42857 1.38592,-0.34648 2.85714,0 4.28571,0 2.85715,0 5.71429,0 8.57143,0 2.85714,0 5.71429,0 8.57143,0 0.95238,0 2.00531,-0.42592 2.85714,0 0.42592,0.21296 -0.33671,1.09186 0,1.42857 0.33672,0.33672 0.95238,0 1.42857,0 0.4762,0 0.95239,0 1.42858,0 4.28571,0 8.57142,0 12.85714,0 0.47619,0 0.95238,0 1.42857,0 0.47619,0 1.09185,0.33672 1.42857,0 0.33672,-0.33671 -0.33672,-1.09185 0,-1.42857 0.33672,-0.33672 1.09186,0.33672 1.42857,0 0.33672,-0.33672 -0.21296,-1.00265 0,-1.42857 0.30117,-0.60234 1.12741,-0.82623 1.42857,-1.42857 0.21739,-0.43476 0,-3.64235 0,-4.28571 0,-0.64628 0.19036,-8.19072 0,-8.57143 -0.30116,-0.60234 -1.1274,-0.82624 -1.42857,-1.42857 -0.21296,-0.42592 0.0674,-0.95717 0,-1.42858 -0.40963,-2.86744 -1.16633,-5.68677 -1.42857,-8.57142 -0.37448,-4.11934 0,-9.87652 0,-14.28572 0,-2.38095 0,-4.7619 0,-7.14286 0,-0.95238 -0.18678,-1.92325 0,-2.85714 2.67215,-13.36076 0.13403,0.89248 2.85714,-10 0.1155,-0.46197 -0.21295,-1.00265 0,-1.42857 0.30117,-0.60234 1.12741,-0.82623 1.42858,-1.42857 0.21295,-0.42592 -0.21296,-1.00266 0,-1.42857 0.30117,-0.60234 0.86824,-1.05502 1.42857,-1.42857 2.36682,-1.57788 3.24456,-1.42858 5.71428,-1.42858 2.38096,0 4.76191,0 7.14286,0 0.47619,0 0.95238,0 1.42857,0 0.47619,0 1.00266,-0.21296 1.42857,0 1.20468,0.60234 1.65247,2.25481 2.85715,2.85715 0.42591,0.21296 1.00265,-0.21296 1.42857,0 1.20467,0.60234 1.57939,2.43122 2.85714,2.85714 0.90351,0.30117 1.95364,-0.30117 2.85714,0 0.96736,0.32245 3.19445,3.74008 4.28572,4.28571 0.89789,0.44895 4.81639,-0.44894 5.71428,0 0.60234,0.30117 0.82624,1.12741 1.42857,1.42858 0.36936,0.18467 7.55886,0 8.57143,0 0.67357,0 7.07811,0.0647 7.14286,0 0.33672,-0.33672 -0.33672,-1.09186 0,-1.42858 0.33672,-0.33671 0.95238,0 1.42857,0 0.47619,-0.47619 1.05502,-0.86824 1.42857,-1.42857 0.59064,-0.88596 0.7897,-2.00531 1.42857,-2.85714 1.21219,-1.61624 3.16506,-2.60472 4.28572,-4.28571 4.81124,-7.21687 0.011,-0.0331 1.42857,-4.28572 0.67344,-2.0203 2.34064,-3.64828 2.85714,-5.71428 0.23099,-0.92395 -0.18677,-1.92326 0,-2.85715 1.48635,-7.43171 0.95238,-1.42857 2.85715,-7.14285 0.62087,-1.86263 0.88918,-3.82645 1.42857,-5.71429 0.41369,-1.44791 1.06335,-2.82483 1.42857,-4.28571 0.29317,-1.17271 -0.41996,-4.87437 0,-5.71429 3.269,-6.53801 -0.5921,6.06202 2.85714,-4.28571 0.30117,-0.90351 -0.67343,-2.18371 0,-2.85715 0.33672,-0.33672 1.09186,0.33672 1.42857,0 0.33672,-0.33672 0,-0.95238 0,-1.42857 0,-0.95238 -0.42591,-2.00531 0,-2.85714 0.21296,-0.42592 1.00266,0.21296 1.42857,0 5.94538,-2.97269 -1.52719,0.0986 1.42858,-2.85714 0.33671,-0.33672 1.09185,0.33671 1.42857,0 0.33672,-0.33672 -0.33672,-1.09186 0,-1.42858 0.0647,-0.0647 6.46929,0 7.14285,0 0.98646,0 5.27995,-0.21716 5.71429,0 0.60234,0.30117 0.82623,1.12741 1.42857,1.42858 0.63568,0.31784 5.06088,-0.21781 5.71429,0 0.63887,0.21295 0.82623,1.1274 1.42857,1.42857 0.42592,0.21296 1.00265,-0.21296 1.42857,0 0.60234,0.30117 0.7897,1.21561 1.42857,1.42857 9.80702,3.269 -6.65412,-5.46992 7.14286,1.42857 0.60234,0.30117 0.78969,1.21561 1.42857,1.42857 0.90351,0.30117 1.9332,-0.23099 2.85714,0 6.8985,1.72462 -0.0708,0.67889 4.28572,2.85714 0.42592,0.21296 1.00265,-0.21296 1.42857,0 0.60234,0.30117 0.78969,1.21562 1.42857,1.42858 0.90351,0.30116 2.00531,-0.42592 2.85714,0 0.42592,0.21295 -0.33671,1.09185 0,1.42857 0.67344,0.67343 2.18371,-0.67344 2.85715,0 0.33671,0.33671 -0.33672,1.09185 0,1.42857 0.33671,0.33672 0.95238,0 1.42857,0 0.47619,0 0.95238,0 1.42857,0 0.47619,0 0.95238,0 1.42857,0 0.47619,0 1.21561,0.42592 1.42857,0 0.42592,-0.85184 0,-1.90476 0,-2.85714 0,-2.85715 0,-5.71429 0,-8.57143 0,-0.47619 -0.21296,-1.00266 0,-1.42857 0.30117,-0.60234 1.1274,-0.82624 1.42857,-1.42858 0.21296,-0.42591 -0.33671,-1.09185 0,-1.42857 0.33672,-0.33672 1.09186,0.33672 1.42857,0 0.33672,-0.33672 -0.15058,-0.97682 0,-1.42857 0.33672,-1.01015 0.88074,-1.94409 1.42858,-2.85714 0.88335,-1.47226 2.0893,-2.75005 2.85714,-4.28572 0.57143,-1.14285 -0.57143,-3.14285 0,-4.28571 2.97269,-5.94537 -0.0986,1.52719 2.85714,-1.42857 0.67344,-0.67344 -0.42592,-2.00531 0,-2.85714 1.09399,-2.18797 2.54574,-1.11717 4.28572,-2.85715 5.57533,-5.57533 -0.33068,-0.76721 1.42857,-4.28571 0.30117,-0.60234 1.1274,-0.82623 1.42857,-1.42857 0.21296,-0.42592 -0.21296,-1.00266 0,-1.42857 0.30117,-0.60234 0.95238,-0.95239 1.42857,-1.42858 0.95238,-0.95238 2.11003,-1.73648 2.85714,-2.85714 0.39099,-0.58648 -0.38949,-4.9353 0,-5.71428 0.30117,-0.60234 1.12741,-0.82624 1.42857,-1.42858 0.45063,-0.90124 -0.45062,-6.24161 0,-7.14285 0.30117,-0.60234 1.21562,-0.7897 1.42858,-1.42857 0.30117,-0.90351 -0.42592,-2.00531 0,-2.85715 0.21295,-0.42592 1.09185,0.33672 1.42857,0 0.67343,-0.67343 -0.42592,-2.00531 0,-2.85714 0.30117,-0.60234 1.1274,-0.82623 1.42857,-1.42857 0.21296,-0.42592 -0.21296,-1.00266 0,-1.42857 2.97269,-5.94538 -0.0986,1.52719 2.85714,-1.42857 0.67344,-0.67344 -0.67343,-2.18371 0,-2.85715 0.33672,-0.33672 0.95238,0 1.42857,0 1.42857,0 2.85715,0 4.28572,0 2.38095,0 4.7619,0 7.14285,0 0.4762,0 1.09186,-0.33672 1.42858,0 0.33671,0.33672 -0.33672,1.09186 0,1.42857 0.33671,0.33672 1.00265,-0.21296 1.42857,0 0.60234,0.30117 0.82623,1.12741 1.42857,1.42858 0.77498,0.38749 5.3234,-0.39089 5.71428,0 0.33672,0.33671 -0.33671,1.09185 0,1.42857 0.33672,0.33671 1.09186,-0.33672 1.42858,0 0.33671,0.33671 -0.33672,1.09185 0,1.42857 0.71428,0.71428 3.57142,-0.71429 4.28571,0 0.33672,0.33672 -0.42592,1.21561 0,1.42857 0.41799,0.209 7.40215,0 8.57143,0 1.01257,0 8.20207,0.18468 8.57143,0 0.60234,-0.30117 0.95238,-0.95238 1.42857,-1.42857 0.47619,-0.47619 1.21561,-0.7897 1.42857,-1.42857 0.30117,-0.90351 -0.42592,-2.00531 0,-2.85715 0.21296,-0.42591 1.09185,0.33672 1.42857,0 0.33672,-0.33671 -0.21296,-1.00265 0,-1.42857 0.30117,-0.60234 1.1274,-0.82623 1.42857,-1.42857 0.21296,-0.42592 -0.33671,-1.09185 0,-1.42857 0.33672,-0.33672 1.00266,0.21296 1.42857,0 0.60234,-0.30117 0.82624,-1.1274 1.42858,-1.42857 0.43476,-0.21738 3.64234,0 4.28571,0"
       id="path20366-5"
       inkscape:connector-curvature="0"
       clip-path="url(#clipPath20938)"
       transform="translate(-82.857142,-444.63999)" />
    <rect
       style="fill:#ff0000;fill-opacity:1;stroke:none"
       id="rect11528-9-6-8"
       width="52.487534"
       height="11.936677"
       x="723.78864"
       y="436.46042"
       transform="matrix(0.98110193,-0.19349163,0.09435316,0.99553879,0,0)" />
    <rect
       style="fill:#00ff00;fill-opacity:1;stroke:none"
       id="rect11528-9-54-0-5-84-3-0"
       width="18.416946"
       height="11.825396"
       x="855.34094"
       y="617.59711"
       transform="matrix(0.96124952,-0.27567982,-0.09481215,0.99549518,0,0)"
       inkscape:transform-center-x="22.393058"
       inkscape:transform-center-y="1.8664952e-005" />
    <rect
       style="fill:#0000ff;fill-opacity:1;stroke:none"
       id="rect11528-9-54-2-5"
       width="27.57905"
       height="11.89665"
       x="863.54907"
       y="558.26251"
       transform="matrix(0.98290835,-0.18409556,-0.14430903,0.98953267,0,0)"
       inkscape:transform-center-x="34.288774" />
    <rect
       style="fill:#00ff00;fill-opacity:1;stroke:none"
       id="rect11528-9-54-0-5-84-7-1"
       width="42.192608"
       height="12.067309"
       x="862.4632"
       y="434.86389"
       transform="matrix(0.99273353,-0.12033342,-0.21982876,0.97553848,0,0)"
       inkscape:transform-center-x="52.982031" />
    <rect
       style="fill:#ff0000;fill-opacity:1;stroke:none"
       id="rect11528-9-54-0-2-6"
       width="27.57905"
       height="11.89665"
       x="843.72339"
       y="493.6669"
       transform="matrix(0.98290835,-0.18409556,-0.14430903,0.98953267,0,0)"
       inkscape:transform-center-x="34.288774" />
    <rect
       style="fill:#ff0000;fill-opacity:1;stroke:none"
       id="rect11528-9-54-3-0-4"
       width="22.053152"
       height="11.850326"
       x="820.83429"
       y="462.87741"
       transform="matrix(0.97313749,-0.23022472,-0.11469393,0.99340088,0,0)"
       inkscape:transform-center-x="27.145896"
       inkscape:transform-center-y="-1.0139281e-005" />
    <rect
       style="fill:#00ff00;fill-opacity:1;stroke:none"
       id="rect11528-9-54-0-5-84-0-5-6"
       width="27.57905"
       height="11.89665"
       x="852.32959"
       y="521.38232"
       transform="matrix(0.98290835,-0.18409556,-0.14430903,0.98953267,0,0)"
       inkscape:transform-center-x="34.288774" />
    <rect
       style="fill:#ff0000;fill-opacity:1;stroke:none"
       id="rect11528-9-54-3-4-1-98"
       width="14.474707"
       height="11.803384"
       x="863.4964"
       y="659.58411"
       transform="matrix(0.93646454,-0.35076225,-0.07273115,0.99735158,0,0)"
       inkscape:transform-center-x="17.145894"
       inkscape:transform-center-y="-3.0126401e-005" />
    <rect
       style="fill:#0000ff;fill-opacity:1;stroke:none"
       id="rect11528-9-54-2-7-8-6-6-6"
       width="27.57905"
       height="11.89665"
       x="873.06207"
       y="603.19824"
       transform="matrix(0.98290835,-0.18409556,-0.14430903,0.98953267,0,0)"
       inkscape:transform-center-x="34.288774" />
    <rect
       style="fill:#0000ff;fill-opacity:1;stroke:none"
       id="rect11528-9-54-2-7-8-6-0"
       width="27.57905"
       height="11.89665"
       x="884.45557"
       y="631.30426"
       transform="matrix(0.98290835,-0.18409556,-0.14430903,0.98953267,0,0)"
       inkscape:transform-center-x="34.288774" />
    <rect
       style="fill:#000000;fill-opacity:1;stroke:none"
       id="rect11528-9-54-0-5-1-4"
       width="27.57905"
       height="11.89665"
       x="877.63849"
       y="616.4837"
       transform="matrix(0.98290835,-0.18409556,-0.14430903,0.98953267,0,0)"
       inkscape:transform-center-x="34.288774" />
    <path
       style="fill:none;stroke:#000000;stroke-width:2.73616123;stroke-linecap:butt;stroke-linejoin:miter;stroke-miterlimit:4;stroke-opacity:1;stroke-dasharray:none;marker-end:url(#Arrow2Mend)"
       d="m 744.59576,259.92107 c 41.27273,290.17015 41.27273,294.65732 41.27273,294.65732"
       id="path11526-1-3"
       inkscape:connector-curvature="0" />
    <text
       xml:space="preserve"
       style="font-size:50px;font-style:normal;font-variant:normal;font-weight:normal;font-stretch:normal;text-align:start;line-height:125%;letter-spacing:0px;word-spacing:0px;writing-mode:lr-tb;text-anchor:start;fill:#000000;fill-opacity:1;stroke:none;font-family:Sans;-inkscape-font-specification:Sans"
       x="778.90155"
       y="599.87122"
       id="text18586-2-4-2-4-9-6-8-2"
       sodipodi:linespacing="125%"><tspan
         sodipodi:role="line"
         id="tspan18588-3-8-8-6-6-1-1-5"
         x="778.90155"
         y="599.87122"
         dy="0">θ</tspan></text>
    <rect
       style="fill:#0000ff;fill-opacity:1;stroke:none"
       id="rect11528-9-54-2-7-8-3"
       width="27.57905"
       height="11.89665"
       x="896.53418"
       y="673.97455"
       transform="matrix(0.98290835,-0.18409556,-0.14430903,0.98953267,0,0)"
       inkscape:transform-center-x="34.288774" />
    <rect
       style="fill:#ff0000;fill-opacity:1;stroke:none"
       id="rect11528-9-54-3-4-1-6-8"
       width="14.474707"
       height="11.803384"
       x="869.04169"
       y="677.06342"
       transform="matrix(0.93646454,-0.35076225,-0.07273115,0.99735158,0,0)"
       inkscape:transform-center-x="17.145894"
       inkscape:transform-center-y="-3.0126401e-005" />
    <rect
       style="fill:#0000ff;fill-opacity:1;stroke:none"
       id="rect11528-9-54-3-4-1-69-3"
       width="14.474707"
       height="11.803384"
       x="873.698"
       y="717.37494"
       transform="matrix(0.93646454,-0.35076225,-0.07273115,0.99735158,0,0)"
       inkscape:transform-center-x="17.145894"
       inkscape:transform-center-y="-3.0126401e-005" />
    <rect
       style="fill:#ff0000;fill-opacity:1;stroke:none"
       id="rect11528-9-54-3-4-1-9-2"
       width="14.474707"
       height="11.803384"
       x="853.60297"
       y="615.77155"
       transform="matrix(0.93646454,-0.35076225,-0.07273115,0.99735158,0,0)"
       inkscape:transform-center-x="17.145894"
       inkscape:transform-center-y="-3.0126401e-005" />
    <rect
       style="fill:#0000ff;fill-opacity:1;stroke:none"
       id="rect11528-9-54-3-4-1-2-7"
       width="14.474707"
       height="11.803384"
       x="879.90607"
       y="734.45483"
       transform="matrix(0.93646454,-0.35076225,-0.07273115,0.99735158,0,0)"
       inkscape:transform-center-x="17.145894"
       inkscape:transform-center-y="-3.0126401e-005" />
    <rect
       style="fill:#000000;fill-opacity:1;stroke:none"
       id="rect11528-9-54-0-5-84-0-8"
       width="27.57905"
       height="11.89665"
       x="885.57635"
       y="648.83691"
       transform="matrix(0.98290835,-0.18409556,-0.14430903,0.98953267,0,0)"
       inkscape:transform-center-x="34.288774" />
    <rect
       style="fill:#00ff00;fill-opacity:1;stroke:none"
       id="rect11528-9-54-0-5-84-8-1"
       width="14.585058"
       height="11.803929"
       x="844.05792"
       y="578.68335"
       transform="matrix(0.9374543,-0.34810836,-0.0733597,0.99730555,0,0)"
       inkscape:transform-center-x="17.294885"
       inkscape:transform-center-y="2.2295154e-005" />
    <rect
       style="fill:#00ff00;fill-opacity:1;stroke:none"
       id="rect11528-9-54-0-5-84-7-3-9"
       width="21.012857"
       height="11.842742"
       x="855.2348"
       y="602.1062"
       transform="matrix(0.9703703,-0.24162259,-0.10904261,0.99403708,0,0)"
       inkscape:transform-center-x="25.791812" />
    <rect
       style="fill:#000000;fill-opacity:1;stroke:none"
       id="rect11528-9-54-0-5-84-0-1-5"
       width="27.57905"
       height="11.89665"
       x="891.17981"
       y="667.20374"
       transform="matrix(0.98290835,-0.18409556,-0.14430903,0.98953267,0,0)"
       inkscape:transform-center-x="34.288774" />
    <rect
       style="fill:#000000;fill-opacity:1;stroke:none"
       id="rect11528-9-54-0-5-84-0-12-3"
       width="27.57905"
       height="11.89665"
       x="876.42407"
       y="586.49957"
       transform="matrix(0.98290835,-0.18409556,-0.14430903,0.98953267,0,0)"
       inkscape:transform-center-x="34.288774" />
    <text
       xml:space="preserve"
       style="font-size:40px;font-style:normal;font-variant:normal;font-weight:normal;font-stretch:normal;text-align:start;line-height:125%;letter-spacing:0px;word-spacing:0px;writing-mode:lr-tb;text-anchor:start;fill:#000000;fill-opacity:1;stroke:none;font-family:Sans;-inkscape-font-specification:Sans"
       x="433.3775"
       y="213.9957"
       id="text20667-7-3"
       sodipodi:linespacing="125%"><tspan
         sodipodi:role="line"
         id="tspan20669-6-1"
         x="433.3775"
         y="213.9957">Split into four</tspan></text>
  </g>
</svg>
